{
.appVersion = "3108";
.formatVersion = 3;
DisplayStrings = (
"ĂǍĀĄCĆČĊDĎĐEĚĖĒĘĞĢĠĦĲİĪĮĶĹĽĻŃŇŅŊŐŌŔŘŖŚŞȘŤȚŬ̋ŐŰőű˝ŰŪŲŮẂŴẄẀŶỲZŹŻ

ăǎāąćčċďđěėēęğģġħ/idotaccent ĳīįȷķ́ĺľļńňņŋőōŕřŗśşșťțŭűūųůẃŵẅẁŷỳźż
·/periodcentered.loclCAT/periodcentered.loclCAT.case/caroncomb.alt ̒

̨AĄEĘIĮUŲaąeęıįuų
̦ĢĶĻŅŖȘȚķļņŗșț",
"AÁĂǍÂÄÀĀĄÅÃÆBCĆČÇĊDÐĎĐEÉĚÊËĖÈĒĘFGĞĢĠHĦIĲÍÎÏİÌĪĮJKĶLĹĽĻŁMNŃŇŅÑŊOÓÔÖÒŐŌØÕŒPÞQRŔŘŖSŚŠŞȘTŤȚUÚŬÛÜÙŰŪŲŮVWẂŴẄẀXYÝŶŸỲZŹŽŻaáăǎâäàāąåãæbcćčçċdðďđeéěêëėèēęfgğģġhħiııíîï/idotaccent ìĳīįjȷkķlĺľļłmnńňņñŋoóôöòőōøõœpþqrŕřŗsśšşșßtťțuúŭûüùűūųůvwẃŵẅẁxyýŷÿỳzźžżﬁﬂªºπ0123456789¹²³⁄½¼¾\015/.notdef   .,:;…!¡?¿·•*#///backslash/periodcentered.loclCAT/periodcentered.loclCAT.case -­–—_(){}[]‚„“”‘’«»‹›\"'ƒ@&¶§©®™°|¦†‡€¢¤$£¥+−×÷=≠><≥≤±≈~¬^∞∫Ω∆∏∑√µ∂%‰◊̈̇̀́̋/caroncomb.alt ̧̨̦̂̌̆̊̃̄̒¨˙`´˝ˆˇ˘˚˜¯¸˛"
);
axes = (
{
name = Weight;
tag = wght;
}
);
customParameters = (
{
name = openTypeOS2Panose;
value = (
0,
0,
0,
0,
0,
0,
0,
0,
0,
0
);
},
{
name = fsType;
value = (
);
},
{
name = "Variable Font Origin";
value = "573A4E99-B1EA-4FCA-90B1-EE1ED57C0074";
},
{
name = "Use Typo Metrics";
value = 1;
},
{
name = "Axis Mappings";
value = {
wght = {
100 = 100;
200 = 200;
300 = 300;
400 = 400;
500 = 500;
600 = 625;
700 = 720;
800 = 820;
900 = 900;
};
};
}
);
date = "2022-05-13 13:45:33 +0000";
familyName = Gantari;
featurePrefixes = (
{
code = "languagesystem latn dflt;





";
name = Languagesystems;
}
);
features = (
{
code = "feature frac;
  feature ordn;
  feature sups;";
tag = aalt;
},
{
code = "@_A = [A Agrave Aacute Acircumflex Atilde Adieresis Aring Delta];
@_A1 = [A Agrave Aacute Acircumflex Atilde Adieresis Aring AE Delta];
@_C = [C Ccedilla];
@_C1 = [C G O Q Ccedilla Ograve Oacute Ocircumflex Otilde Odieresis Oslash OE];
@_D = [D O Q Eth Ograve Oacute Ocircumflex Otilde Odieresis Oslash Thorn];
@_G = [G];
@_J = [J];
@_J1 = [J];
@_K = [K];
@_L = [L Lslash];
@_R = [R];
@_S = [S Scaron];
@_T = [T];
@_U = [U Ugrave Uacute Ucircumflex Udieresis];
@_W = [W];
@_Y = [Y Yacute Ydieresis];
@_Z = [Z Zcaron];

glyphs = (
{
color = 6;
glyphname = A;
kernLeft = _A1;
kernRight = _A;
lastChange = "2022-05-20 09:41:26 +0000";
layers = (
{
anchors = (
{
name = bottom;
pos = (314,0);
},
{
name = ogonek;
pos = (659,0);
},
{
name = top;
pos = (431,668);
}
);
background = {
shapes = (
{
closed = 1;
nodes = (
(156,0,l),
(211,108,l),
(469,108,l),
(487,0,l),
(659,0,l),
(521,668,l),
(337,668,l),
(-34,0,l)
);
},
{
closed = 1;
nodes = (
(408,494,l),
(449,244,l),
(279,244,l)
);
}
);
};
layerId = "D2242EF2-33C7-49B0-8663-736078BD5B35";
shapes = (
{
closed = 1;
nodes = (
(156,0,l),
(211,108,l),
(469,108,l),
(487,0,l),
(659,0,l),
(521,668,l),
(337,668,l),
(-34,0,l)
);
},
{
closed = 1;
nodes = (
(408,494,l),
(449,244,l),
(279,244,l)
);
}
);
width = 709;
},
{
anchors = (
{
name = bottom;
pos = (315,0);
},
{
name = ogonek;
pos = (668,0);
},
{
name = top;
pos = (432,668);
}
);
background = {
shapes = (
{
closed = 1;
nodes = (
(176,0,l),
(224,97,l),
(458,97,l),
(472,0,l),
(668,0,l),
(536,668,l),
(326,668,l),
(-40,0,l)
);
},
{
closed = 1;
nodes = (
(407,471,l),
(437,251,l),
(299,251,l)
);
}
);
};
layerId = "EC4B77C1-E739-4B44-9572-0CFE97DCA064";
shapes = (
{
closed = 1;
nodes = (
(176,0,l),
(224,97,l),
(458,97,l),
(472,0,l),
(668,0,l),
(536,668,l),
(326,668,l),
(-40,0,l)
);
},
{
closed = 1;
nodes = (
(407,471,l),
(437,251,l),
(299,251,l)
);
}
);
width = 712;
},
{
anchors = (
{
name = bottom;
pos = (307,0);
},
{
name = ogonek;
pos = (618,0);
},
{
name = top;
pos = (424,668);
}
);
background = {
shapes = (
{
closed = 1;
nodes = (
(60,0,l),
(153,158,l),
(520,158,l),
(558,0,l),
(618,0,l),
(453,668,l),
(391,668,l),
(-7,0,l)
);
},
{
closed = 1;
nodes = (
(415,603,l),
(508,209,l),
(182,209,l)
);
}
);
};
layerId = "BA8B9BDD-FBF5-4763-A7AD-14140821EFBD";
shapes = (
{
closed = 1;
nodes = (
(60,0,l),
(153,158,l),
(520,158,l),
(558,0,l),
(618,0,l),
(453,668,l),
(391,668,l),
(-7,0,l)
);
},
{
closed = 1;
nodes = (
(415,603,l),
(508,209,l),
(182,209,l)
);
}
);
width = 695;
},
{
anchors = (
{
name = bottom;
pos = (309,0);
},
{
name = ogonek;
pos = (628,0);
},
{
name = top;
pos = (426,668);
}
);
background = {
shapes = (
{
closed = 1;
nodes = (
(84,0,l),
(167,146,l),
(508,146,l),
(541,0,l),
(628,0,l),
(470,668,l),
(377,668,l),
(-14,0,l)
);
},
{
closed = 1;
nodes = (
(413,575,l),
(492,218,l),
(208,218,l)
);
}
);
};
layerId = "573A4E99-B1EA-4FCA-90B1-EE1ED57C0074";
shapes = (
{
closed = 1;
nodes = (
(84,0,l),
(167,146,l),
(508,146,l),
(541,0,l),
(628,0,l),
(470,668,l),
(377,668,l),
(-14,0,l)
);
},
{
closed = 1;
nodes = (
(413,575,l),
(492,218,l),
(208,218,l)
);
}
);
width = 699;
},
{
anchors = (
{
name = bottom;
pos = (312,0);
},
{
name = ogonek;
pos = (649,0);
},
{
name = top;
pos = (429,668);
}
);
background = {
shapes = (
{
closed = 1;
nodes = (
(133,0,l),
(197,120,l),
(481,120,l),
(504,0,l),
(649,0,l),
(505,668,l),
(350,668,l),
(-28,0,l)
);
},
{
closed = 1;
nodes = (
(410,520,l),
(463,235,l),
(256,235,l)
);
}
);
};
layerId = "261A487E-1CB1-41FD-8732-BC3F4489D58F";
shapes = (
{
closed = 1;
nodes = (
(133,0,l),
(197,120,l),
(481,120,l),
(504,0,l),
(649,0,l),
(505,668,l),
(350,668,l),
(-28,0,l)
);
},
{
closed = 1;
nodes = (
(410,520,l),
(463,235,l),
(256,235,l)
);
}
);
width = 706;
},
{
anchors = (
{
name = bottom;
pos = (311,0);
},
{
name = ogonek;
pos = (639,0);
},
{
name = top;
pos = (428,668);
}
);
background = {
shapes = (
{
closed = 1;
nodes = (
(110,0,l),
(183,132,l),
(494,132,l),
(522,0,l),
(639,0,l),
(488,668,l),
(363,668,l),
(-21,0,l)
);
},
{
closed = 1;
nodes = (
(411,546,l),
(477,227,l),
(233,227,l)
);
}
);
};
layerId = "ACFE83A5-3FD5-4916-9088-BF4CCAF0E845";
shapes = (
{
closed = 1;
nodes = (
(110,0,l),
(183,132,l),
(494,132,l),
(522,0,l),
(639,0,l),
(488,668,l),
(363,668,l),
(-21,0,l)
);
},
{
closed = 1;
nodes = (
(411,546,l),
(477,227,l),
(233,227,l)
);
}
);
width = 703;
},
{
anchors = (
{
name = bottom;
pos = (305,0);
},
{
name = ogonek;
pos = (608,0);
},
{
name = top;
pos = (422,668);
}
);
background = {
shapes = (
{
closed = 1;
nodes = (
(36,0,l),
(139,171,l),
(533,171,l),
(576,0,l),
(608,0,l),
(437,668,l),
(405,668,l),
(0,0,l)
);
},
{
closed = 1;
nodes = (
(417,631,l),
(525,201,l),
(157,201,l)
);
}
);
};
layerId = "EA8306D6-B852-442A-A16D-2D86AE16EEA2";
shapes = (
{
closed = 1;
nodes = (
(36,0,l),
(139,171,l),
(533,171,l),
(576,0,l),
(608,0,l),
(437,668,l),
(405,668,l),
(0,0,l)
);
},
{
closed = 1;
nodes = (
(417,631,l),
(525,201,l),
(157,201,l)
);
}
);
width = 692;
}
);
unicode = 65;
},
{
color = 10;
glyphname = Aacute;
kernLeft = _A1;
kernRight = _A;
lastChange = "2022-05-20 09:41:26 +0000";
layers = (
{
background = {
shapes = (
{
closed = 1;
nodes = (
(156,0,l),
(211,108,l),
(469,108,l),
(487,0,l),
(659,0,l),
(521,668,l),
(337,668,l),
(-34,0,l)
);
},
{
closed = 1;
nodes = (
(408,494,l),
(449,244,l),
(279,244,l)
);
},
{
closed = 1;
nodes = (
(496,729,l),
(635,888,l),
(478,888,l),
(386,729,l)
);
}
);
};
layerId = "D2242EF2-33C7-49B0-8663-736078BD5B35";
shapes = (
{
ref = A;
},
{
pos = (76,198);
ref = acutecomb;
}
);
width = 709;
},
{
background = {
shapes = (
{
closed = 1;
nodes = (
(176,0,l),
(224,97,l),
(458,97,l),
(472,0,l),
(668,0,l),
(536,668,l),
(326,668,l),
(-40,0,l)
);
},
{
closed = 1;
nodes = (
(407,471,l),
(437,251,l),
(299,251,l)
);
},
{
closed = 1;
nodes = (
(504,726,l),
(647,888,l),
(469,888,l),
(380,726,l)
);
}
);
};
layerId = "EC4B77C1-E739-4B44-9572-0CFE97DCA064";
shapes = (
{
ref = A;
},
{
pos = (75,198);
ref = acutecomb;
}
);
width = 712;
},
{
background = {
shapes = (
{
closed = 1;
nodes = (
(60,0,l),
(153,158,l),
(520,158,l),
(558,0,l),
(618,0,l),
(453,668,l),
(391,668,l),
(-7,0,l)
);
},
{
closed = 1;
nodes = (
(415,603,l),
(508,209,l),
(182,209,l)
);
},
{
closed = 1;
nodes = (
(457,742,l),
(580,888,l),
(518,888,l),
(415,742,l)
);
}
);
};
layerId = "BA8B9BDD-FBF5-4763-A7AD-14140821EFBD";
shapes = (
{
ref = A;
},
{
pos = (76,198);
ref = acutecomb;
}
);
width = 695;
},
{
background = {
shapes = (
{
closed = 1;
nodes = (
(84,0,l),
(167,146,l),
(508,146,l),
(541,0,l),
(628,0,l),
(470,668,l),
(377,668,l),
(-14,0,l)
);
},
{
closed = 1;
nodes = (
(413,575,l),
(492,218,l),
(208,218,l)
);
},
{
closed = 1;
nodes = (
(467,739,l),
(594,888,l),
(508,888,l),
(408,739,l)
);
}
);
};
layerId = "573A4E99-B1EA-4FCA-90B1-EE1ED57C0074";
shapes = (
{
ref = A;
},
{
pos = (77,198);
ref = acutecomb;
}
);
width = 699;
},
{
background = {
shapes = (
{
closed = 1;
nodes = (
(133,0,l),
(197,120,l),
(481,120,l),
(504,0,l),
(649,0,l),
(505,668,l),
(350,668,l),
(-28,0,l)
);
},
{
closed = 1;
nodes = (
(410,520,l),
(463,235,l),
(256,235,l)
);
},
{
closed = 1;
nodes = (
(487,732,l),
(622,888,l),
(487,888,l),
(393,732,l)
);
}
);
};
layerId = "261A487E-1CB1-41FD-8732-BC3F4489D58F";
shapes = (
{
ref = A;
},
{
pos = (76,198);
ref = acutecomb;
}
);
width = 706;
},
{
background = {
shapes = (
{
closed = 1;
nodes = (
(110,0,l),
(183,132,l),
(494,132,l),
(522,0,l),
(639,0,l),
(488,668,l),
(363,668,l),
(-21,0,l)
);
},
{
closed = 1;
nodes = (
(411,546,l),
(477,227,l),
(233,227,l)
);
},
{
closed = 1;
nodes = (
(477,735,l),
(609,888,l),
(497,888,l),
(400,735,l)
);
}
);
};
layerId = "ACFE83A5-3FD5-4916-9088-BF4CCAF0E845";
shapes = (
{
ref = A;
},
{
pos = (77,198);
ref = acutecomb;
}
);
width = 703;
},
{
background = {
shapes = (
{
closed = 1;
nodes = (
(36,0,l),
(139,171,l),
(533,171,l),
(576,0,l),
(608,0,l),
(437,668,l),
(405,668,l),
(0,0,l)
);
},
{
closed = 1;
nodes = (
(417,631,l),
(525,201,l),
(157,201,l)
);
},
{
closed = 1;
nodes = (
(448,746,l),
(566,888,l),
(528,888,l),
(422,746,l)
);
}
);
};
layerId = "EA8306D6-B852-442A-A16D-2D86AE16EEA2";
shapes = (
{
ref = A;
},
{
pos = (76,198);
ref = acutecomb;
}
);
width = 692;
}
);
unicode = 193;
},
{
color = 10;
glyphname = Acircumflex;
kernLeft = _A1;
kernRight = _A;
lastChange = "2022-05-20 09:41:26 +0000";
layers = (
{
background = {
shapes = (
{
closed = 1;
nodes = (
(156,0,l),
(211,108,l),
(469,108,l),
(487,0,l),
(659,0,l),
(521,668,l),
(337,668,l),
(-34,0,l)
);
},
{
closed = 1;
nodes = (
(408,494,l),
(449,244,l),
(279,244,l)
);
},
{
closed = 1;
nodes = (
(398,729,l),
(463,807,l),
(500,729,l),
(608,729,l),
(540,888,l),
(398,888,l),
(274,729,l)
);
}
);
};
layerId = "D2242EF2-33C7-49B0-8663-736078BD5B35";
shapes = (
{
ref = A;
},
{
pos = (91,198);
ref = circumflexcomb;
}
);
width = 709;
},
{
background = {
shapes = (
{
closed = 1;
nodes = (
(176,0,l),
(224,97,l),
(458,97,l),
(472,0,l),
(668,0,l),
(536,668,l),
(326,668,l),
(-40,0,l)
);
},
{
closed = 1;
nodes = (
(407,471,l),
(437,251,l),
(299,251,l)
);
},
{
closed = 1;
nodes = (
(407,726,l),
(464,797,l),
(495,726,l),
(616,726,l),
(551,888,l),
(391,888,l),
(268,726,l)
);
}
);
};
layerId = "EC4B77C1-E739-4B44-9572-0CFE97DCA064";
shapes = (
{
ref = A;
},
{
pos = (92,198);
ref = circumflexcomb;
}
);
width = 712;
},
{
background = {
shapes = (
{
closed = 1;
nodes = (
(60,0,l),
(153,158,l),
(520,158,l),
(558,0,l),
(618,0,l),
(453,668,l),
(391,668,l),
(-7,0,l)
);
},
{
closed = 1;
nodes = (
(415,603,l),
(508,209,l),
(182,209,l)
);
},
{
closed = 1;
nodes = (
(356,742,l),
(460,855,l),
(524,742,l),
(568,742,l),
(490,888,l),
(433,888,l),
(303,742,l)
);
}
);
};
layerId = "BA8B9BDD-FBF5-4763-A7AD-14140821EFBD";
shapes = (
{
ref = A;
},
{
pos = (85,198);
ref = circumflexcomb;
}
);
width = 695;
},
{
background = {
shapes = (
{
closed = 1;
nodes = (
(84,0,l),
(167,146,l),
(508,146,l),
(541,0,l),
(628,0,l),
(470,668,l),
(377,668,l),
(-14,0,l)
);
},
{
closed = 1;
nodes = (
(413,575,l),
(492,218,l),
(208,218,l)
);
},
{
closed = 1;
nodes = (
(367,739,l),
(461,843,l),
(518,739,l),
(578,739,l),
(503,888,l),
(425,888,l),
(296,739,l)
);
}
);
};
layerId = "573A4E99-B1EA-4FCA-90B1-EE1ED57C0074";
shapes = (
{
ref = A;
},
{
pos = (87,198);
ref = circumflexcomb;
}
);
width = 699;
},
{
background = {
shapes = (
{
closed = 1;
nodes = (
(133,0,l),
(197,120,l),
(481,120,l),
(504,0,l),
(649,0,l),
(505,668,l),
(350,668,l),
(-28,0,l)
);
},
{
closed = 1;
nodes = (
(410,520,l),
(463,235,l),
(256,235,l)
);
},
{
closed = 1;
nodes = (
(388,732,l),
(463,819,l),
(506,732,l),
(598,732,l),
(528,888,l),
(407,888,l),
(281,732,l)
);
}
);
};
layerId = "261A487E-1CB1-41FD-8732-BC3F4489D58F";
shapes = (
{
ref = A;
},
{
pos = (90,198);
ref = circumflexcomb;
}
);
width = 706;
},
{
background = {
shapes = (
{
closed = 1;
nodes = (
(110,0,l),
(183,132,l),
(494,132,l),
(522,0,l),
(639,0,l),
(488,668,l),
(363,668,l),
(-21,0,l)
);
},
{
closed = 1;
nodes = (
(411,546,l),
(477,227,l),
(233,227,l)
);
},
{
closed = 1;
nodes = (
(378,735,l),
(462,830,l),
(512,735,l),
(589,735,l),
(516,888,l),
(415,888,l),
(288,735,l)
);
}
);
};
layerId = "ACFE83A5-3FD5-4916-9088-BF4CCAF0E845";
shapes = (
{
ref = A;
},
{
pos = (88,198);
ref = circumflexcomb;
}
);
width = 703;
},
{
background = {
shapes = (
{
closed = 1;
nodes = (
(36,0,l),
(139,171,l),
(533,171,l),
(576,0,l),
(608,0,l),
(437,668,l),
(405,668,l),
(0,0,l)
);
},
{
closed = 1;
nodes = (
(417,631,l),
(525,201,l),
(157,201,l)
);
},
{
closed = 1;
nodes = (
(346,746,l),
(459,867,l),
(530,746,l),
(559,746,l),
(478,888,l),
(442,888,l),
(311,746,l)
);
}
);
};
layerId = "EA8306D6-B852-442A-A16D-2D86AE16EEA2";
shapes = (
{
ref = A;
},
{
pos = (83,198);
ref = circumflexcomb;
}
);
width = 692;
}
);
unicode = 194;
},
{
color = 10;
glyphname = Adieresis;
kernLeft = _A1;
kernRight = _A;
lastChange = "2022-05-20 09:41:26 +0000";
layers = (
{
background = {
shapes = (
{
closed = 1;
nodes = (
(156,0,l),
(211,108,l),
(469,108,l),
(487,0,l),
(659,0,l),
(521,668,l),
(337,668,l),
(-34,0,l)
);
},
{
closed = 1;
nodes = (
(408,494,l),
(449,244,l),
(279,244,l)
);
},
{
closed = 1;
nodes = (
(395,737,o),
(429,770,o),
(429,818,cs),
(429,853,o),
(406,880,o),
(363,880,cs),
(311,880,o),
(277,847,o),
(277,799,cs),
(277,764,o),
(302,737,o),
(343,737,cs)
);
},
{
closed = 1;
nodes = (
(600,737,o),
(634,770,o),
(634,818,cs),
(634,853,o),
(611,880,o),
(568,880,cs),
(517,880,o),
(483,847,o),
(483,799,cs),
(483,764,o),
(506,737,o),
(549,737,cs)
);
}
);
};
layerId = "D2242EF2-33C7-49B0-8663-736078BD5B35";
shapes = (
{
ref = A;
},
{
pos = (91,198);
ref = dieresiscomb;
}
);
width = 709;
},
{
background = {
shapes = (
{
closed = 1;
nodes = (
(176,0,l),
(224,97,l),
(458,97,l),
(472,0,l),
(668,0,l),
(536,668,l),
(326,668,l),
(-40,0,l)
);
},
{
closed = 1;
nodes = (
(407,471,l),
(437,251,l),
(299,251,l)
);
},
{
closed = 1;
nodes = (
(398,728,o),
(436,763,o),
(436,818,cs),
(436,857,o),
(410,886,o),
(363,886,cs),
(306,886,o),
(268,851,o),
(268,796,cs),
(268,757,o),
(294,728,o),
(341,728,cs)
);
},
{
closed = 1;
nodes = (
(608,728,o),
(646,763,o),
(646,818,cs),
(646,857,o),
(620,886,o),
(573,886,cs),
(516,886,o),
(478,851,o),
(478,796,cs),
(478,757,o),
(504,728,o),
(551,728,cs)
);
}
);
};
layerId = "EC4B77C1-E739-4B44-9572-0CFE97DCA064";
shapes = (
{
ref = A;
},
{
pos = (92,198);
ref = dieresiscomb;
}
);
width = 712;
},
{
background = {
shapes = (
{
closed = 1;
nodes = (
(60,0,l),
(153,158,l),
(520,158,l),
(558,0,l),
(618,0,l),
(453,668,l),
(391,668,l),
(-7,0,l)
);
},
{
closed = 1;
nodes = (
(415,603,l),
(508,209,l),
(182,209,l)
);
},
{
closed = 1;
nodes = (
(378,782,o),
(393,797,o),
(393,818,cs),
(393,835,o),
(382,848,o),
(361,848,cs),
(338,848,o),
(323,835,o),
(323,812,cs),
(323,795,o),
(334,782,o),
(354,782,cs)
);
},
{
closed = 1;
nodes = (
(561,782,o),
(576,797,o),
(576,818,cs),
(576,835,o),
(565,848,o),
(544,848,cs),
(521,848,o),
(506,835,o),
(506,812,cs),
(506,795,o),
(517,782,o),
(537,782,cs)
);
}
);
};
layerId = "BA8B9BDD-FBF5-4763-A7AD-14140821EFBD";
shapes = (
{
ref = A;
},
{
pos = (85,198);
ref = dieresiscomb;
}
);
width = 695;
},
{
background = {
shapes = (
{
closed = 1;
nodes = (
(84,0,l),
(167,146,l),
(508,146,l),
(541,0,l),
(628,0,l),
(470,668,l),
(377,668,l),
(-14,0,l)
);
},
{
closed = 1;
nodes = (
(413,575,l),
(492,218,l),
(208,218,l)
);
},
{
closed = 1;
nodes = (
(384,770,o),
(403,790,o),
(403,818,cs),
(403,839,o),
(389,857,o),
(362,857,cs),
(331,857,o),
(311,838,o),
(311,809,cs),
(311,786,o),
(325,770,o),
(352,770,cs)
);
},
{
closed = 1;
nodes = (
(572,770,o),
(591,790,o),
(591,818,cs),
(591,839,o),
(577,857,o),
(550,857,cs),
(519,857,o),
(499,838,o),
(499,809,cs),
(499,786,o),
(513,770,o),
(540,770,cs)
);
}
);
};
layerId = "573A4E99-B1EA-4FCA-90B1-EE1ED57C0074";
shapes = (
{
ref = A;
},
{
pos = (86,198);
ref = dieresiscomb;
}
);
width = 699;
},
{
background = {
shapes = (
{
closed = 1;
nodes = (
(133,0,l),
(197,120,l),
(481,120,l),
(504,0,l),
(649,0,l),
(505,668,l),
(350,668,l),
(-28,0,l)
);
},
{
closed = 1;
nodes = (
(410,520,l),
(463,235,l),
(256,235,l)
);
},
{
closed = 1;
nodes = (
(391,748,o),
(420,775,o),
(420,818,cs),
(420,849,o),
(400,872,o),
(363,872,cs),
(318,872,o),
(288,845,o),
(288,802,cs),
(288,771,o),
(310,748,o),
(346,748,cs)
);
},
{
closed = 1;
nodes = (
(591,748,o),
(620,775,o),
(620,818,cs),
(620,849,o),
(601,872,o),
(562,872,cs),
(517,872,o),
(488,845,o),
(488,802,cs),
(488,771,o),
(509,748,o),
(546,748,cs)
);
}
);
};
layerId = "261A487E-1CB1-41FD-8732-BC3F4489D58F";
shapes = (
{
ref = A;
},
{
pos = (89,198);
ref = dieresiscomb;
}
);
width = 706;
},
{
background = {
shapes = (
{
closed = 1;
nodes = (
(110,0,l),
(183,132,l),
(494,132,l),
(522,0,l),
(639,0,l),
(488,668,l),
(363,668,l),
(-21,0,l)
);
},
{
closed = 1;
nodes = (
(411,546,l),
(477,227,l),
(233,227,l)
);
},
{
closed = 1;
nodes = (
(388,758,o),
(412,783,o),
(412,818,cs),
(412,845,o),
(395,865,o),
(362,865,cs),
(323,865,o),
(299,841,o),
(299,805,cs),
(299,778,o),
(317,758,o),
(349,758,cs)
);
},
{
closed = 1;
nodes = (
(582,758,o),
(606,783,o),
(606,818,cs),
(606,845,o),
(589,865,o),
(556,865,cs),
(517,865,o),
(493,841,o),
(493,805,cs),
(493,778,o),
(511,758,o),
(543,758,cs)
);
}
);
};
layerId = "ACFE83A5-3FD5-4916-9088-BF4CCAF0E845";
shapes = (
{
ref = A;
},
{
pos = (88,198);
ref = dieresiscomb;
}
);
width = 703;
},
{
background = {
shapes = (
{
closed = 1;
nodes = (
(36,0,l),
(139,171,l),
(533,171,l),
(576,0,l),
(608,0,l),
(437,668,l),
(405,668,l),
(0,0,l)
);
},
{
closed = 1;
nodes = (
(417,631,l),
(525,201,l),
(157,201,l)
);
},
{
closed = 1;
nodes = (
(374,795,o),
(383,803,o),
(383,819,cs),
(383,832,o),
(376,839,o),
(361,839,cs),
(344,839,o),
(335,831,o),
(335,815,cs),
(335,802,o),
(342,795,o),
(357,795,cs)
);
},
{
closed = 1;
nodes = (
(552,795,o),
(561,803,o),
(561,819,cs),
(561,832,o),
(554,839,o),
(539,839,cs),
(522,839,o),
(513,831,o),
(513,815,cs),
(513,802,o),
(520,795,o),
(535,795,cs)
);
}
);
};
layerId = "EA8306D6-B852-442A-A16D-2D86AE16EEA2";
shapes = (
{
ref = A;
},
{
pos = (82,198);
ref = dieresiscomb;
}
);
width = 692;
}
);
unicode = 196;
},
{
color = 10;
glyphname = Agrave;
kernLeft = _A1;
kernRight = _A;
lastChange = "2022-05-20 09:41:26 +0000";
layers = (
{
background = {
shapes = (
{
closed = 1;
nodes = (
(156,0,l),
(211,108,l),
(469,108,l),
(487,0,l),
(659,0,l),
(521,668,l),
(337,668,l),
(-34,0,l)
);
},
{
closed = 1;
nodes = (
(408,494,l),
(449,244,l),
(279,244,l)
);
},
{
closed = 1;
nodes = (
(492,729,l),
(458,888,l),
(307,888,l),
(390,729,l)
);
}
);
};
layerId = "D2242EF2-33C7-49B0-8663-736078BD5B35";
shapes = (
{
ref = A;
},
{
pos = (106,198);
ref = gravecomb;
}
);
width = 709;
},
{
background = {
shapes = (
{
closed = 1;
nodes = (
(176,0,l),
(224,97,l),
(458,97,l),
(472,0,l),
(668,0,l),
(536,668,l),
(326,668,l),
(-40,0,l)
);
},
{
closed = 1;
nodes = (
(407,471,l),
(437,251,l),
(299,251,l)
);
},
{
closed = 1;
nodes = (
(500,726,l),
(469,888,l),
(299,888,l),
(384,726,l)
);
}
);
};
layerId = "EC4B77C1-E739-4B44-9572-0CFE97DCA064";
shapes = (
{
ref = A;
},
{
pos = (109,198);
ref = gravecomb;
}
);
width = 712;
},
{
background = {
shapes = (
{
closed = 1;
nodes = (
(60,0,l),
(153,158,l),
(520,158,l),
(558,0,l),
(618,0,l),
(453,668,l),
(391,668,l),
(-7,0,l)
);
},
{
closed = 1;
nodes = (
(415,603,l),
(508,209,l),
(182,209,l)
);
},
{
closed = 1;
nodes = (
(455,742,l),
(403,888,l),
(346,888,l),
(417,742,l)
);
}
);
};
layerId = "BA8B9BDD-FBF5-4763-A7AD-14140821EFBD";
shapes = (
{
ref = A;
},
{
pos = (93,198);
ref = gravecomb;
}
);
width = 695;
},
{
background = {
shapes = (
{
closed = 1;
nodes = (
(84,0,l),
(167,146,l),
(508,146,l),
(541,0,l),
(628,0,l),
(470,668,l),
(377,668,l),
(-14,0,l)
);
},
{
closed = 1;
nodes = (
(413,575,l),
(492,218,l),
(208,218,l)
);
},
{
closed = 1;
nodes = (
(464,739,l),
(417,888,l),
(337,888,l),
(410,739,l)
);
}
);
};
layerId = "573A4E99-B1EA-4FCA-90B1-EE1ED57C0074";
shapes = (
{
ref = A;
},
{
pos = (97,198);
ref = gravecomb;
}
);
width = 699;
},
{
background = {
shapes = (
{
closed = 1;
nodes = (
(133,0,l),
(197,120,l),
(481,120,l),
(504,0,l),
(649,0,l),
(505,668,l),
(350,668,l),
(-28,0,l)
);
},
{
closed = 1;
nodes = (
(410,520,l),
(463,235,l),
(256,235,l)
);
},
{
closed = 1;
nodes = (
(483,732,l),
(445,888,l),
(317,888,l),
(396,732,l)
);
}
);
};
layerId = "261A487E-1CB1-41FD-8732-BC3F4489D58F";
shapes = (
{
ref = A;
},
{
pos = (103,198);
ref = gravecomb;
}
);
width = 706;
},
{
background = {
shapes = (
{
closed = 1;
nodes = (
(110,0,l),
(183,132,l),
(494,132,l),
(522,0,l),
(639,0,l),
(488,668,l),
(363,668,l),
(-21,0,l)
);
},
{
closed = 1;
nodes = (
(411,546,l),
(477,227,l),
(233,227,l)
);
},
{
closed = 1;
nodes = (
(474,735,l),
(432,888,l),
(326,888,l),
(403,735,l)
);
}
);
};
layerId = "ACFE83A5-3FD5-4916-9088-BF4CCAF0E845";
shapes = (
{
ref = A;
},
{
pos = (100,198);
ref = gravecomb;
}
);
width = 703;
},
{
background = {
shapes = (
{
closed = 1;
nodes = (
(36,0,l),
(139,171,l),
(533,171,l),
(576,0,l),
(608,0,l),
(437,668,l),
(405,668,l),
(0,0,l)
);
},
{
closed = 1;
nodes = (
(417,631,l),
(525,201,l),
(157,201,l)
);
},
{
closed = 1;
nodes = (
(446,746,l),
(390,888,l),
(356,888,l),
(424,746,l)
);
}
);
};
layerId = "EA8306D6-B852-442A-A16D-2D86AE16EEA2";
shapes = (
{
ref = A;
},
{
pos = (89,198);
ref = gravecomb;
}
);
width = 692;
}
);
unicode = 192;
},
{
color = 10;
glyphname = Aring;
kernLeft = _A1;
kernRight = _A;
lastChange = "2022-05-20 09:41:26 +0000";
layers = (
{
background = {
shapes = (
{
closed = 1;
nodes = (
(156,0,l),
(211,108,l),
(469,108,l),
(487,0,l),
(659,0,l),
(521,668,l),
(337,668,l),
(-34,0,l)
);
},
{
closed = 1;
nodes = (
(408,494,l),
(449,244,l),
(279,244,l)
);
},
{
closed = 1;
nodes = (
(526,699,o),
(579,751,o),
(579,824,cs),
(579,879,o),
(537,918,o),
(469,918,cs),
(385,918,o),
(332,866,o),
(332,793,cs),
(332,738,o),
(374,699,o),
(442,699,cs)
);
},
{
closed = 1;
nodes = (
(423,761,o),
(405,780,o),
(405,803,cs),
(405,835,o),
(428,856,o),
(461,856,cs),
(488,856,o),
(506,837,o),
(506,814,cs),
(506,782,o),
(483,761,o),
(450,761,cs)
);
}
);
};
layerId = "D2242EF2-33C7-49B0-8663-736078BD5B35";
shapes = (
{
ref = A;
},
{
pos = (91,198);
ref = ringcomb;
}
);
width = 709;
},
{
background = {
shapes = (
{
closed = 1;
nodes = (
(176,0,l),
(224,97,l),
(458,97,l),
(472,0,l),
(668,0,l),
(536,668,l),
(326,668,l),
(-40,0,l)
);
},
{
closed = 1;
nodes = (
(407,471,l),
(437,251,l),
(299,251,l)
);
},
{
closed = 1;
nodes = (
(528,696,o),
(583,747,o),
(583,823,cs),
(583,879,o),
(539,918,o),
(471,918,cs),
(386,918,o),
(331,867,o),
(331,791,cs),
(331,735,o),
(375,696,o),
(443,696,cs)
);
},
{
closed = 1;
nodes = (
(428,764,o),
(411,781,o),
(411,802,cs),
(411,831,o),
(431,850,o),
(462,850,cs),
(486,850,o),
(503,833,o),
(503,812,cs),
(503,783,o),
(483,764,o),
(452,764,cs)
);
}
);
};
layerId = "EC4B77C1-E739-4B44-9572-0CFE97DCA064";
shapes = (
{
ref = A;
},
{
pos = (92,198);
ref = ringcomb;
}
);
width = 712;
},
{
background = {
shapes = (
{
closed = 1;
nodes = (
(60,0,l),
(153,158,l),
(520,158,l),
(558,0,l),
(618,0,l),
(453,668,l),
(391,668,l),
(-7,0,l)
);
},
{
closed = 1;
nodes = (
(415,603,l),
(508,209,l),
(182,209,l)
);
},
{
closed = 1;
nodes = (
(512,712,o),
(560,762,o),
(560,829,cs),
(560,878,o),
(524,918,o),
(461,918,cs),
(385,918,o),
(337,868,o),
(337,801,cs),
(337,752,o),
(373,712,o),
(436,712,cs)
);
},
{
closed = 1;
nodes = (
(396,745,o),
(375,772,o),
(375,807,cs),
(375,851,o),
(409,885,o),
(458,885,cs),
(501,885,o),
(522,858,o),
(522,823,cs),
(522,779,o),
(488,745,o),
(439,745,cs)
);
}
);
};
layerId = "BA8B9BDD-FBF5-4763-A7AD-14140821EFBD";
shapes = (
{
ref = A;
},
{
pos = (85,198);
ref = ringcomb;
}
);
width = 695;
},
{
background = {
shapes = (
{
closed = 1;
nodes = (
(84,0,l),
(167,146,l),
(508,146,l),
(541,0,l),
(628,0,l),
(470,668,l),
(377,668,l),
(-14,0,l)
);
},
{
closed = 1;
nodes = (
(413,575,l),
(492,218,l),
(208,218,l)
);
},
{
closed = 1;
nodes = (
(515,709,o),
(565,760,o),
(565,828,cs),
(565,879,o),
(527,918,o),
(463,918,cs),
(384,918,o),
(336,867,o),
(336,799,cs),
(336,748,o),
(374,709,o),
(438,709,cs)
);
},
{
closed = 1;
nodes = (
(403,749,o),
(383,775,o),
(383,806,cs),
(383,847,o),
(414,878,o),
(459,878,cs),
(498,878,o),
(518,852,o),
(518,821,cs),
(518,780,o),
(487,749,o),
(442,749,cs)
);
}
);
};
layerId = "573A4E99-B1EA-4FCA-90B1-EE1ED57C0074";
shapes = (
{
ref = A;
},
{
pos = (87,198);
ref = ringcomb;
}
);
width = 699;
},
{
background = {
shapes = (
{
closed = 1;
nodes = (
(133,0,l),
(197,120,l),
(481,120,l),
(504,0,l),
(649,0,l),
(505,668,l),
(350,668,l),
(-28,0,l)
);
},
{
closed = 1;
nodes = (
(410,520,l),
(463,235,l),
(256,235,l)
);
},
{
closed = 1;
nodes = (
(522,702,o),
(575,753,o),
(575,825,cs),
(575,878,o),
(534,918,o),
(467,918,cs),
(386,918,o),
(333,867,o),
(333,795,cs),
(333,742,o),
(374,702,o),
(441,702,cs)
);
},
{
closed = 1;
nodes = (
(416,757,o),
(398,777,o),
(398,804,cs),
(398,839,o),
(424,863,o),
(461,863,cs),
(492,863,o),
(510,843,o),
(510,816,cs),
(510,781,o),
(484,757,o),
(447,757,cs)
);
}
);
};
layerId = "261A487E-1CB1-41FD-8732-BC3F4489D58F";
shapes = (
{
ref = A;
},
{
pos = (89,198);
ref = ringcomb;
}
);
width = 706;
},
{
background = {
shapes = (
{
closed = 1;
nodes = (
(110,0,l),
(183,132,l),
(494,132,l),
(522,0,l),
(639,0,l),
(488,668,l),
(363,668,l),
(-21,0,l)
);
},
{
closed = 1;
nodes = (
(411,546,l),
(477,227,l),
(233,227,l)
);
},
{
closed = 1;
nodes = (
(519,705,o),
(570,756,o),
(570,827,cs),
(570,878,o),
(530,918,o),
(465,918,cs),
(385,918,o),
(335,868,o),
(335,797,cs),
(335,745,o),
(374,705,o),
(439,705,cs)
);
},
{
closed = 1;
nodes = (
(410,753,o),
(391,777,o),
(391,805,cs),
(391,844,o),
(419,870,o),
(460,870,cs),
(495,870,o),
(514,847,o),
(514,818,cs),
(514,781,o),
(486,753,o),
(445,753,cs)
);
}
);
};
layerId = "ACFE83A5-3FD5-4916-9088-BF4CCAF0E845";
shapes = (
{
ref = A;
},
{
pos = (88,198);
ref = ringcomb;
}
);
width = 703;
},
{
background = {
shapes = (
{
closed = 1;
nodes = (
(36,0,l),
(139,171,l),
(533,171,l),
(576,0,l),
(608,0,l),
(437,668,l),
(405,668,l),
(0,0,l)
);
},
{
closed = 1;
nodes = (
(417,631,l),
(525,201,l),
(157,201,l)
);
},
{
closed = 1;
nodes = (
(510,716,o),
(556,766,o),
(556,831,cs),
(556,878,o),
(520,918,o),
(459,918,cs),
(384,918,o),
(338,868,o),
(338,803,cs),
(338,756,o),
(374,716,o),
(435,716,cs)
);
},
{
closed = 1;
nodes = (
(390,742,o),
(368,772,o),
(368,808,cs),
(368,856,o),
(405,892,o),
(457,892,cs),
(504,892,o),
(526,862,o),
(526,826,cs),
(526,778,o),
(489,742,o),
(437,742,cs)
);
}
);
};
layerId = "EA8306D6-B852-442A-A16D-2D86AE16EEA2";
shapes = (
{
ref = A;
},
{
pos = (83,198);
ref = ringcomb;
}
);
width = 692;
}
);
unicode = 197;
},
{
color = 10;
glyphname = Atilde;
kernLeft = _A1;
kernRight = _A;
lastChange = "2022-05-20 09:41:26 +0000";
layers = (
{
background = {
shapes = (
{
closed = 1;
nodes = (
(156,0,l),
(211,108,l),
(469,108,l),
(487,0,l),
(659,0,l),
(521,668,l),
(337,668,l),
(-34,0,l)
);
},
{
closed = 1;
nodes = (
(408,494,l),
(449,244,l),
(279,244,l)
);
},
{
closed = 1;
nodes = (
(351,732,l),
(358,769,o),
(371,787,o),
(390,787,cs),
(420,787,o),
(463,732,o),
(525,732,cs),
(598,732,o),
(638,786,o),
(646,885,c),
(559,885,l),
(552,848,o),
(539,830,o),
(520,830,cs),
(490,830,o),
(447,885,o),
(385,885,cs),
(312,885,o),
(272,831,o),
(265,732,c)
);
}
);
};
layerId = "D2242EF2-33C7-49B0-8663-736078BD5B35";
shapes = (
{
ref = A;
},
{
pos = (91,198);
ref = tildecomb;
}
);
width = 709;
},
{
background = {
shapes = (
{
closed = 1;
nodes = (
(176,0,l),
(224,97,l),
(458,97,l),
(472,0,l),
(668,0,l),
(536,668,l),
(326,668,l),
(-40,0,l)
);
},
{
closed = 1;
nodes = (
(407,471,l),
(437,251,l),
(299,251,l)
);
},
{
closed = 1;
nodes = (
(354,726,l),
(361,757,o),
(375,778,o),
(391,778,cs),
(418,778,o),
(467,726,o),
(528,726,cs),
(607,726,o),
(648,787,o),
(655,888,c),
(559,888,l),
(552,857,o),
(538,836,o),
(522,836,cs),
(495,836,o),
(446,888,o),
(385,888,cs),
(306,888,o),
(265,827,o),
(258,726,c)
);
}
);
};
layerId = "EC4B77C1-E739-4B44-9572-0CFE97DCA064";
shapes = (
{
ref = A;
},
{
pos = (92,198);
ref = tildecomb;
}
);
width = 712;
},
{
background = {
shapes = (
{
closed = 1;
nodes = (
(60,0,l),
(153,158,l),
(520,158,l),
(558,0,l),
(618,0,l),
(453,668,l),
(391,668,l),
(-7,0,l)
);
},
{
closed = 1;
nodes = (
(415,603,l),
(508,209,l),
(182,209,l)
);
},
{
closed = 1;
nodes = (
(333,759,l),
(348,816,o),
(363,831,o),
(387,831,cs),
(427,831,o),
(450,759,o),
(511,759,cs),
(558,759,o),
(589,787,o),
(601,871,c),
(563,871,l),
(550,814,o),
(533,799,o),
(510,799,cs),
(471,799,o),
(447,871,o),
(385,871,cs),
(338,871,o),
(307,843,o),
(296,759,c)
);
}
);
};
layerId = "BA8B9BDD-FBF5-4763-A7AD-14140821EFBD";
shapes = (
{
ref = A;
},
{
pos = (85,198);
ref = tildecomb;
}
);
width = 695;
},
{
background = {
shapes = (
{
closed = 1;
nodes = (
(84,0,l),
(167,146,l),
(508,146,l),
(541,0,l),
(628,0,l),
(470,668,l),
(377,668,l),
(-14,0,l)
);
},
{
closed = 1;
nodes = (
(413,575,l),
(492,218,l),
(208,218,l)
);
},
{
closed = 1;
nodes = (
(339,752,l),
(352,804,o),
(365,820,o),
(388,820,cs),
(424,820,o),
(452,752,o),
(515,752,cs),
(568,752,o),
(601,787,o),
(612,875,c),
(561,875,l),
(548,823,o),
(535,807,o),
(512,807,cs),
(475,807,o),
(449,875,o),
(385,875,cs),
(332,875,o),
(299,840,o),
(288,752,c)
);
}
);
};
layerId = "573A4E99-B1EA-4FCA-90B1-EE1ED57C0074";
shapes = (
{
ref = A;
},
{
pos = (87,198);
ref = tildecomb;
}
);
width = 699;
},
{
background = {
shapes = (
{
closed = 1;
nodes = (
(133,0,l),
(197,120,l),
(481,120,l),
(504,0,l),
(649,0,l),
(505,668,l),
(350,668,l),
(-28,0,l)
);
},
{
closed = 1;
nodes = (
(410,520,l),
(463,235,l),
(256,235,l)
);
},
{
closed = 1;
nodes = (
(347,738,l),
(356,778,o),
(370,798,o),
(390,798,cs),
(421,798,o),
(460,738,o),
(522,738,cs),
(588,738,o),
(626,786,o),
(635,882,c),
(560,882,l),
(551,842,o),
(537,822,o),
(517,822,cs),
(486,822,o),
(447,882,o),
(385,882,cs),
(318,882,o),
(280,834,o),
(272,738,c)
);
}
);
};
layerId = "261A487E-1CB1-41FD-8732-BC3F4489D58F";
shapes = (
{
ref = A;
},
{
pos = (89,198);
ref = tildecomb;
}
);
width = 706;
},
{
background = {
shapes = (
{
closed = 1;
nodes = (
(110,0,l),
(183,132,l),
(494,132,l),
(522,0,l),
(639,0,l),
(488,668,l),
(363,668,l),
(-21,0,l)
);
},
{
closed = 1;
nodes = (
(411,546,l),
(477,227,l),
(233,227,l)
);
},
{
closed = 1;
nodes = (
(343,745,l),
(354,792,o),
(368,808,o),
(389,808,cs),
(421,808,o),
(456,745,o),
(519,745,cs),
(579,745,o),
(613,787,o),
(624,879,c),
(560,879,l),
(549,832,o),
(536,815,o),
(515,815,cs),
(481,815,o),
(447,879,o),
(385,879,cs),
(324,879,o),
(289,834,o),
(280,745,c)
);
}
);
};
layerId = "ACFE83A5-3FD5-4916-9088-BF4CCAF0E845";
shapes = (
{
ref = A;
},
{
pos = (89,198);
ref = tildecomb;
}
);
width = 703;
},
{
background = {
shapes = (
{
closed = 1;
nodes = (
(36,0,l),
(139,171,l),
(533,171,l),
(576,0,l),
(608,0,l),
(437,668,l),
(405,668,l),
(0,0,l)
);
},
{
closed = 1;
nodes = (
(417,631,l),
(525,201,l),
(157,201,l)
);
},
{
closed = 1;
nodes = (
(328,766,l),
(341,829,o),
(362,842,o),
(386,842,cs),
(428,842,o),
(449,766,o),
(508,766,cs),
(548,766,o),
(578,788,o),
(590,868,c),
(566,868,l),
(551,805,o),
(532,792,o),
(508,792,cs),
(465,792,o),
(444,868,o),
(386,868,cs),
(346,868,o),
(316,846,o),
(304,766,c)
);
}
);
};
layerId = "EA8306D6-B852-442A-A16D-2D86AE16EEA2";
shapes = (
{
ref = A;
},
{
pos = (83,198);
ref = tildecomb;
}
);
width = 692;
}
);
unicode = 195;
},
{
color = 6;
glyphname = AE;
kernLeft = _A1;
lastChange = "2022-05-20 09:41:26 +0000";
layers = (
{
anchors = (
{
name = bottom;
pos = (465,0);
},
{
name = top;
pos = (582,668);
}
);
background = {
shapes = (
{
closed = 1;
nodes = (
(157,0,l),
(237,108,l),
(448,108,l),
(429,0,l),
(925,0,l),
(949,140,l),
(620,140,l),
(645,279,l),
(944,279,l),
(967,409,l),
(668,409,l),
(688,528,l),
(1018,528,l),
(1042,668,l),
(489,668,l),
(-34,0,l)
);
},
{
closed = 1;
nodes = (
(514,483,l),
(472,244,l),
(336,244,l)
);
}
);
};
layerId = "D2242EF2-33C7-49B0-8663-736078BD5B35";
shapes = (
{
closed = 1;
nodes = (
(157,0,l),
(237,108,l),
(448,108,l),
(429,0,l),
(925,0,l),
(949,140,l),
(620,140,l),
(645,279,l),
(944,279,l),
(967,409,l),
(668,409,l),
(688,528,l),
(1018,528,l),
(1042,668,l),
(489,668,l),
(-34,0,l)
);
},
{
closed = 1;
nodes = (
(514,483,l),
(472,244,l),
(336,244,l)
);
}
);
width = 1012;
},
{
anchors = (
{
name = bottom;
pos = (468,0);
},
{
name = top;
pos = (585,668);
}
);
background = {
shapes = (
{
closed = 1;
nodes = (
(176,0,l),
(246,97,l),
(443,97,l),
(426,0,l),
(934,0,l),
(961,158,l),
(643,158,l),
(663,271,l),
(951,271,l),
(977,417,l),
(689,417,l),
(705,510,l),
(1023,510,l),
(1051,668,l),
(478,668,l),
(-40,0,l)
);
},
{
closed = 1;
nodes = (
(507,462,l),
(470,251,l),
(356,251,l)
);
}
);
};
layerId = "EC4B77C1-E739-4B44-9572-0CFE97DCA064";
shapes = (
{
closed = 1;
nodes = (
(176,0,l),
(246,97,l),
(443,97,l),
(426,0,l),
(934,0,l),
(961,158,l),
(643,158,l),
(663,271,l),
(951,271,l),
(977,417,l),
(689,417,l),
(705,510,l),
(1023,510,l),
(1051,668,l),
(478,668,l),
(-40,0,l)
);
},
{
closed = 1;
nodes = (
(507,462,l),
(470,251,l),
(356,251,l)
);
}
);
width = 1018;
},
{
anchors = (
{
name = bottom;
pos = (452,0);
},
{
name = top;
pos = (569,668);
}
);
background = {
shapes = (
{
closed = 1;
nodes = (
(64,0,l),
(194,158,l),
(470,158,l),
(442,0,l),
(884,0,l),
(893,52,l),
(510,52,l),
(557,318,l),
(910,318,l),
(919,369,l),
(566,369,l),
(609,616,l),
(992,616,l),
(1001,668,l),
(543,668,l),
(-7,0,l)
);
},
{
closed = 1;
nodes = (
(546,590,l),
(479,209,l),
(235,209,l)
);
}
);
};
layerId = "BA8B9BDD-FBF5-4763-A7AD-14140821EFBD";
shapes = (
{
closed = 1;
nodes = (
(64,0,l),
(194,158,l),
(470,158,l),
(442,0,l),
(884,0,l),
(893,52,l),
(510,52,l),
(557,318,l),
(910,318,l),
(919,369,l),
(566,369,l),
(609,616,l),
(992,616,l),
(1001,668,l),
(543,668,l),
(-7,0,l)
);
},
{
closed = 1;
nodes = (
(546,590,l),
(479,209,l),
(235,209,l)
);
}
);
width = 985;
},
{
anchors = (
{
name = bottom;
pos = (455,0);
},
{
name = top;
pos = (572,668);
}
);
background = {
shapes = (
{
closed = 1;
nodes = (
(90,0,l),
(207,146,l),
(465,146,l),
(439,0,l),
(894,0,l),
(907,74,l),
(538,74,l),
(579,308,l),
(919,308,l),
(932,380,l),
(592,380,l),
(629,594,l),
(999,594,l),
(1011,668,l),
(530,668,l),
(-14,0,l)
);
},
{
closed = 1;
nodes = (
(537,558,l),
(477,218,l),
(264,218,l)
);
}
);
};
layerId = "573A4E99-B1EA-4FCA-90B1-EE1ED57C0074";
shapes = (
{
closed = 1;
nodes = (
(90,0,l),
(207,146,l),
(465,146,l),
(439,0,l),
(894,0,l),
(907,74,l),
(538,74,l),
(579,308,l),
(919,308,l),
(932,380,l),
(592,380,l),
(629,594,l),
(999,594,l),
(1011,668,l),
(530,668,l),
(-14,0,l)
);
},
{
closed = 1;
nodes = (
(537,558,l),
(477,218,l),
(264,218,l)
);
}
);
width = 992;
},
{
anchors = (
{
name = bottom;
pos = (462,0);
},
{
name = top;
pos = (579,668);
}
);
background = {
shapes = (
{
closed = 1;
nodes = (
(136,0,l),
(228,120,l),
(453,120,l),
(432,0,l),
(915,0,l),
(936,119,l),
(594,119,l),
(624,288,l),
(936,288,l),
(956,400,l),
(643,400,l),
(669,549,l),
(1012,549,l),
(1032,668,l),
(502,668,l),
(-28,0,l)
);
},
{
closed = 1;
nodes = (
(521,507,l),
(473,235,l),
(313,235,l)
);
}
);
};
layerId = "261A487E-1CB1-41FD-8732-BC3F4489D58F";
shapes = (
{
closed = 1;
nodes = (
(136,0,l),
(228,120,l),
(453,120,l),
(432,0,l),
(915,0,l),
(936,119,l),
(594,119,l),
(624,288,l),
(936,288,l),
(956,400,l),
(643,400,l),
(669,549,l),
(1012,549,l),
(1032,668,l),
(502,668,l),
(-28,0,l)
);
},
{
closed = 1;
nodes = (
(521,507,l),
(473,235,l),
(313,235,l)
);
}
);
width = 1006;
},
{
anchors = (
{
name = bottom;
pos = (459,0);
},
{
name = top;
pos = (576,668);
}
);
background = {
shapes = (
{
closed = 1;
nodes = (
(114,0,l),
(218,132,l),
(459,132,l),
(435,0,l),
(905,0,l),
(922,98,l),
(567,98,l),
(603,298,l),
(928,298,l),
(945,390,l),
(619,390,l),
(650,570,l),
(1006,570,l),
(1022,668,l),
(515,668,l),
(-21,0,l)
);
},
{
closed = 1;
nodes = (
(529,531,l),
(475,227,l),
(290,227,l)
);
}
);
};
layerId = "ACFE83A5-3FD5-4916-9088-BF4CCAF0E845";
shapes = (
{
closed = 1;
nodes = (
(114,0,l),
(218,132,l),
(459,132,l),
(435,0,l),
(905,0,l),
(922,98,l),
(567,98,l),
(603,298,l),
(928,298,l),
(945,390,l),
(619,390,l),
(650,570,l),
(1006,570,l),
(1022,668,l),
(515,668,l),
(-21,0,l)
);
},
{
closed = 1;
nodes = (
(529,531,l),
(475,227,l),
(290,227,l)
);
}
);
width = 999;
},
{
anchors = (
{
name = bottom;
pos = (448,0);
},
{
name = top;
pos = (565,668);
}
);
background = {
shapes = (
{
closed = 1;
nodes = (
(39,0,l),
(181,171,l),
(476,171,l),
(446,0,l),
(874,0,l),
(879,30,l),
(483,30,l),
(536,329,l),
(902,329,l),
(907,359,l),
(541,359,l),
(590,638,l),
(986,638,l),
(991,668,l),
(557,668,l),
(0,0,l)
);
},
{
closed = 1;
nodes = (
(556,622,l),
(481,201,l),
(206,201,l)
);
}
);
};
layerId = "EA8306D6-B852-442A-A16D-2D86AE16EEA2";
shapes = (
{
closed = 1;
nodes = (
(39,0,l),
(181,171,l),
(476,171,l),
(446,0,l),
(874,0,l),
(879,30,l),
(483,30,l),
(536,329,l),
(902,329,l),
(907,359,l),
(541,359,l),
(590,638,l),
(986,638,l),
(991,668,l),
(557,668,l),
(0,0,l)
);
},
{
closed = 1;
nodes = (
(556,622,l),
(481,201,l),
(206,201,l)
);
}
);
width = 978;
}
);
unicode = 198;
},
{
color = 6;
glyphname = B;
lastChange = "2022-05-20 09:41:26 +0000";
layers = (
{
anchors = (
{
name = bottom;
pos = (306,0);
},
{
name = center;
pos = (364,334);
},
{
name = top;
pos = (423,668);
}
);
background = {
shapes = (
{
closed = 1;
nodes = (
(362,0,ls),
(563,0,o),
(654,61,o),
(654,206,cs),
(654,273,o),
(620,318,o),
(552,341,c),
(640,364,o),
(690,422,o),
(690,521,cs),
(690,620,o),
(603,668,o),
(455,668,cs),
(137,668,l),
(20,0,l)
);
},
{
closed = 1;
nodes = (
(236,283,l),
(375,283,ls),
(456,283,o),
(488,264,o),
(488,223,cs),
(488,158,o),
(451,132,o),
(360,132,cs),
(210,132,l)
);
},
{
closed = 1;
nodes = (
(281,536,l),
(420,536,ls),
(492,536,o),
(515,520,o),
(515,485,cs),
(515,430,o),
(486,405,o),
(409,405,cs),
(258,405,l)
);
}
);
};
layerId = "D2242EF2-33C7-49B0-8663-736078BD5B35";
shapes = (
{
closed = 1;
nodes = (
(362,0,ls),
(563,0,o),
(654,61,o),
(654,206,cs),
(654,273,o),
(620,318,o),
(552,341,c),
(640,364,o),
(690,422,o),
(690,521,cs),
(690,620,o),
(603,668,o),
(455,668,cs),
(137,668,l),
(20,0,l)
);
},
{
closed = 1;
nodes = (
(236,283,l),
(375,283,ls),
(456,283,o),
(488,264,o),
(488,223,cs),
(488,158,o),
(451,132,o),
(360,132,cs),
(210,132,l)
);
},
{
closed = 1;
nodes = (
(281,536,l),
(420,536,ls),
(492,536,o),
(515,520,o),
(515,485,cs),
(515,430,o),
(486,405,o),
(409,405,cs),
(258,405,l)
);
}
);
width = 694;
},
{
anchors = (
{
name = bottom;
pos = (306,0);
},
{
name = center;
pos = (364,334);
},
{
name = top;
pos = (423,668);
}
);
background = {
shapes = (
{
closed = 1;
nodes = (
(364,0,ls),
(571,0,o),
(660,62,o),
(660,206,cs),
(660,271,o),
(626,315,o),
(558,340,c),
(646,364,o),
(696,424,o),
(696,519,cs),
(696,618,o),
(607,668,o),
(456,668,cs),
(131,668,l),
(14,0,l)
);
},
{
closed = 1;
nodes = (
(252,276,l),
(374,276,ls),
(445,276,o),
(472,261,o),
(472,226,cs),
(472,170,o),
(439,148,o),
(363,148,cs),
(230,148,l)
);
},
{
closed = 1;
nodes = (
(295,520,l),
(417,520,ls),
(478,520,o),
(497,505,o),
(497,478,cs),
(497,435,o),
(474,412,o),
(409,412,cs),
(276,412,l)
);
}
);
};
layerId = "EC4B77C1-E739-4B44-9572-0CFE97DCA064";
shapes = (
{
closed = 1;
nodes = (
(364,0,ls),
(571,0,o),
(660,62,o),
(660,206,cs),
(660,271,o),
(626,315,o),
(558,340,c),
(646,364,o),
(696,424,o),
(696,519,cs),
(696,618,o),
(607,668,o),
(456,668,cs),
(131,668,l),
(14,0,l)
);
},
{
closed = 1;
nodes = (
(252,276,l),
(374,276,ls),
(445,276,o),
(472,261,o),
(472,226,cs),
(472,170,o),
(439,148,o),
(363,148,cs),
(230,148,l)
);
},
{
closed = 1;
nodes = (
(295,520,l),
(417,520,ls),
(478,520,o),
(497,505,o),
(497,478,cs),
(497,435,o),
(474,412,o),
(409,412,cs),
(276,412,l)
);
}
);
width = 694;
},
{
anchors = (
{
name = bottom;
pos = (306,0);
},
{
name = center;
pos = (364,334);
},
{
name = top;
pos = (423,668);
}
);
background = {
shapes = (
{
closed = 1;
nodes = (
(353,0,ls),
(525,0,o),
(627,50,o),
(627,203,cs),
(627,283,o),
(585,323,o),
(514,342,c),
(602,361,o),
(663,407,o),
(663,527,cs),
(663,629,o),
(580,668,o),
(450,668,cs),
(164,668,l),
(47,0,l)
);
},
{
closed = 1;
nodes = (
(162,319,l),
(378,319,ls),
(511,319,o),
(566,279,o),
(566,207,cs),
(566,95,o),
(504,52,o),
(346,52,cs),
(115,52,l)
);
},
{
closed = 1;
nodes = (
(214,616,l),
(435,616,ls),
(551,616,o),
(600,589,o),
(600,520,cs),
(600,407,o),
(544,369,o),
(405,369,cs),
(171,369,l)
);
}
);
};
layerId = "BA8B9BDD-FBF5-4763-A7AD-14140821EFBD";
shapes = (
{
closed = 1;
nodes = (
(353,0,ls),
(525,0,o),
(627,50,o),
(627,203,cs),
(627,283,o),
(585,323,o),
(514,342,c),
(602,361,o),
(663,407,o),
(663,527,cs),
(663,629,o),
(580,668,o),
(450,668,cs),
(164,668,l),
(47,0,l)
);
},
{
closed = 1;
nodes = (
(162,319,l),
(378,319,ls),
(511,319,o),
(566,279,o),
(566,207,cs),
(566,95,o),
(504,52,o),
(346,52,cs),
(115,52,l)
);
},
{
closed = 1;
nodes = (
(214,616,l),
(435,616,ls),
(551,616,o),
(600,589,o),
(600,520,cs),
(600,407,o),
(544,369,o),
(405,369,cs),
(171,369,l)
);
}
);
width = 694;
},
{
anchors = (
{
name = bottom;
pos = (306,0);
},
{
name = center;
pos = (364,334);
},
{
name = top;
pos = (423,668);
}
);
background = {
shapes = (
{
closed = 1;
nodes = (
(355,0,ls),
(534,0,o),
(634,52,o),
(634,204,cs),
(634,283,o),
(599,327,o),
(530,344,c),
(618,364,o),
(670,418,o),
(670,526,cs),
(670,627,o),
(586,668,o),
(451,668,cs),
(157,668,l),
(40,0,l)
);
},
{
closed = 1;
nodes = (
(180,308,l),
(377,308,ls),
(497,308,o),
(547,272,o),
(547,211,cs),
(547,112,o),
(491,74,o),
(350,74,cs),
(139,74,l)
);
},
{
closed = 1;
nodes = (
(230,594,l),
(431,594,ls),
(535,594,o),
(579,571,o),
(579,512,cs),
(579,415,o),
(530,380,o),
(407,380,cs),
(193,380,l)
);
}
);
};
layerId = "573A4E99-B1EA-4FCA-90B1-EE1ED57C0074";
shapes = (
{
closed = 1;
nodes = (
(355,0,ls),
(534,0,o),
(634,52,o),
(634,204,cs),
(634,283,o),
(599,327,o),
(530,344,c),
(618,364,o),
(670,418,o),
(670,526,cs),
(670,627,o),
(586,668,o),
(451,668,cs),
(157,668,l),
(40,0,l)
);
},
{
closed = 1;
nodes = (
(180,308,l),
(377,308,ls),
(497,308,o),
(547,272,o),
(547,211,cs),
(547,112,o),
(491,74,o),
(350,74,cs),
(139,74,l)
);
},
{
closed = 1;
nodes = (
(230,594,l),
(431,594,ls),
(535,594,o),
(579,571,o),
(579,512,cs),
(579,415,o),
(530,380,o),
(407,380,cs),
(193,380,l)
);
}
);
width = 694;
},
{
anchors = (
{
name = bottom;
pos = (306,0);
},
{
name = center;
pos = (364,334);
},
{
name = top;
pos = (423,668);
}
);
background = {
shapes = (
{
closed = 1;
nodes = (
(360,0,ls),
(553,0,o),
(648,58,o),
(648,205,cs),
(648,276,o),
(614,321,o),
(545,342,c),
(633,365,o),
(684,422,o),
(684,522,cs),
(684,622,o),
(598,668,o),
(454,668,cs),
(143,668,l),
(26,0,l)
);
},
{
closed = 1;
nodes = (
(218,291,l),
(375,291,ls),
(470,291,o),
(507,267,o),
(507,219,cs),
(507,143,o),
(464,113,o),
(357,113,cs),
(187,113,l)
);
},
{
closed = 1;
nodes = (
(264,555,l),
(424,555,ls),
(505,555,o),
(536,537,o),
(536,494,cs),
(536,426,o),
(500,397,o),
(408,397,cs),
(237,397,l)
);
}
);
};
layerId = "261A487E-1CB1-41FD-8732-BC3F4489D58F";
shapes = (
{
closed = 1;
nodes = (
(360,0,ls),
(553,0,o),
(648,58,o),
(648,205,cs),
(648,276,o),
(614,321,o),
(545,342,c),
(633,365,o),
(684,422,o),
(684,522,cs),
(684,622,o),
(598,668,o),
(454,668,cs),
(143,668,l),
(26,0,l)
);
},
{
closed = 1;
nodes = (
(218,291,l),
(375,291,ls),
(470,291,o),
(507,267,o),
(507,219,cs),
(507,143,o),
(464,113,o),
(357,113,cs),
(187,113,l)
);
},
{
closed = 1;
nodes = (
(264,555,l),
(424,555,ls),
(505,555,o),
(536,537,o),
(536,494,cs),
(536,426,o),
(500,397,o),
(408,397,cs),
(237,397,l)
);
}
);
width = 694;
},
{
anchors = (
{
name = bottom;
pos = (306,0);
},
{
name = center;
pos = (364,334);
},
{
name = top;
pos = (423,668);
}
);
background = {
shapes = (
{
closed = 1;
nodes = (
(358,0,ls),
(545,0,o),
(641,56,o),
(641,205,cs),
(641,278,o),
(607,324,o),
(538,343,c),
(626,364,o),
(677,420,o),
(677,524,cs),
(677,624,o),
(593,668,o),
(452,668,cs),
(150,668,l),
(33,0,l)
);
},
{
closed = 1;
nodes = (
(200,299,l),
(376,299,ls),
(483,299,o),
(526,271,o),
(526,215,cs),
(526,128,o),
(477,95,o),
(354,95,cs),
(164,95,l)
);
},
{
closed = 1;
nodes = (
(248,573,l),
(427,573,ls),
(519,573,o),
(556,553,o),
(556,502,cs),
(556,421,o),
(515,389,o),
(408,389,cs),
(216,389,l)
);
}
);
};
layerId = "ACFE83A5-3FD5-4916-9088-BF4CCAF0E845";
shapes = (
{
closed = 1;
nodes = (
(358,0,ls),
(545,0,o),
(641,56,o),
(641,205,cs),
(641,278,o),
(607,324,o),
(538,343,c),
(626,364,o),
(677,420,o),
(677,524,cs),
(677,624,o),
(593,668,o),
(452,668,cs),
(150,668,l),
(33,0,l)
);
},
{
closed = 1;
nodes = (
(200,299,l),
(376,299,ls),
(483,299,o),
(526,271,o),
(526,215,cs),
(526,128,o),
(477,95,o),
(354,95,cs),
(164,95,l)
);
},
{
closed = 1;
nodes = (
(248,573,l),
(427,573,ls),
(519,573,o),
(556,553,o),
(556,502,cs),
(556,421,o),
(515,389,o),
(408,389,cs),
(216,389,l)
);
}
);
width = 694;
},
{
anchors = (
{
name = bottom;
pos = (306,0);
},
{
name = center;
pos = (364,334);
},
{
name = top;
pos = (423,668);
}
);
background = {
shapes = (
{
closed = 1;
nodes = (
(351,0,ls),
(515,0,o),
(620,48,o),
(620,203,cs),
(620,282,o),
(569,320,o),
(498,341,c),
(586,357,o),
(657,397,o),
(657,529,cs),
(657,633,o),
(574,668,o),
(449,668,cs),
(171,668,l),
(54,0,l)
);
},
{
closed = 1;
nodes = (
(144,330,l),
(380,330,ls),
(527,330,o),
(586,287,o),
(586,203,cs),
(586,78,o),
(517,30,o),
(342,30,cs),
(91,30,l)
);
},
{
closed = 1;
nodes = (
(198,638,l),
(439,638,ls),
(567,638,o),
(622,609,o),
(622,529,cs),
(622,399,o),
(557,358,o),
(404,358,cs),
(149,358,l)
);
}
);
};
layerId = "EA8306D6-B852-442A-A16D-2D86AE16EEA2";
shapes = (
{
closed = 1;
nodes = (
(351,0,ls),
(515,0,o),
(620,48,o),
(620,203,cs),
(620,282,o),
(569,320,o),
(498,341,c),
(586,357,o),
(657,397,o),
(657,529,cs),
(657,633,o),
(574,668,o),
(449,668,cs),
(171,668,l),
(54,0,l)
);
},
{
closed = 1;
nodes = (
(144,330,l),
(380,330,ls),
(527,330,o),
(586,287,o),
(586,203,cs),
(586,78,o),
(517,30,o),
(342,30,cs),
(91,30,l)
);
},
{
closed = 1;
nodes = (
(198,638,l),
(439,638,ls),
(567,638,o),
(622,609,o),
(622,529,cs),
(622,399,o),
(557,358,o),
(404,358,cs),
(149,358,l)
);
}
);
width = 694;
}
);
unicode = 66;
},
{
color = 6;
glyphname = C;
kernLeft = _C1;
kernRight = _C;
lastChange = "2022-05-20 09:41:26 +0000";
layers = (
{
anchors = (
{
name = bottom;
pos = (287,0);
},
{
name = top;
pos = (404,668);
}
);
background = {
shapes = (
{
closed = 1;
nodes = (
(445,-10,o),
(528,8,o),
(597,55,c),
(563,187,l),
(490,150,o),
(438,135,o),
(378,135,cs),
(281,135,o),
(215,191,o),
(215,291,cs),
(215,439,o),
(310,533,o),
(434,533,cs),
(494,533,o),
(554,517,o),
(614,481,c),
(692,595,l),
(623,651,o),
(541,678,o),
(454,678,cs),
(211,678,o),
(46,526,o),
(46,286,cs),
(46,114,o),
(175,-10,o),
(358,-10,cs)
);
}
);
};
layerId = "D2242EF2-33C7-49B0-8663-736078BD5B35";
shapes = (
{
closed = 1;
nodes = (
(445,-10,o),
(528,8,o),
(597,55,c),
(563,187,l),
(490,150,o),
(438,135,o),
(378,135,cs),
(281,135,o),
(215,191,o),
(215,291,cs),
(215,439,o),
(310,533,o),
(434,533,cs),
(494,533,o),
(554,517,o),
(614,481,c),
(692,595,l),
(623,651,o),
(541,678,o),
(454,678,cs),
(211,678,o),
(46,526,o),
(46,286,cs),
(46,114,o),
(175,-10,o),
(358,-10,cs)
);
}
);
width = 655;
},
{
anchors = (
{
name = bottom;
pos = (285,0);
},
{
name = top;
pos = (402,668);
}
);
background = {
shapes = (
{
closed = 1;
nodes = (
(445,-10,o),
(530,8,o),
(599,53,c),
(562,203,l),
(487,168,o),
(438,154,o),
(382,154,cs),
(293,154,o),
(233,205,o),
(233,294,cs),
(233,429,o),
(318,514,o),
(430,514,cs),
(486,514,o),
(545,500,o),
(608,465,c),
(695,594,l),
(623,650,o),
(541,678,o),
(454,678,cs),
(209,678,o),
(41,525,o),
(41,288,cs),
(41,116,o),
(172,-10,o),
(358,-10,cs)
);
}
);
};
layerId = "EC4B77C1-E739-4B44-9572-0CFE97DCA064";
shapes = (
{
closed = 1;
nodes = (
(445,-10,o),
(530,8,o),
(599,53,c),
(562,203,l),
(487,168,o),
(438,154,o),
(382,154,cs),
(293,154,o),
(233,205,o),
(233,294,cs),
(233,429,o),
(318,514,o),
(430,514,cs),
(486,514,o),
(545,500,o),
(608,465,c),
(695,594,l),
(623,650,o),
(541,678,o),
(454,678,cs),
(209,678,o),
(41,525,o),
(41,288,cs),
(41,116,o),
(172,-10,o),
(358,-10,cs)
);
}
);
width = 652;
},
{
anchors = (
{
name = bottom;
pos = (293,0);
},
{
name = top;
pos = (410,668);
}
);
background = {
shapes = (
{
closed = 1;
nodes = (
(444,-10,o),
(520,12,o),
(585,63,c),
(565,111,l),
(504,64,o),
(439,43,o),
(359,43,cs),
(223,43,o),
(131,131,o),
(131,275,cs),
(131,494,o),
(265,625,o),
(452,625,cs),
(532,625,o),
(595,597,o),
(643,557,c),
(676,598,l),
(616,649,o),
(540,678,o),
(456,678,cs),
(231,678,o),
(71,521,o),
(71,274,cs),
(71,102,o),
(190,-10,o),
(355,-10,cs)
);
}
);
};
layerId = "BA8B9BDD-FBF5-4763-A7AD-14140821EFBD";
shapes = (
{
closed = 1;
nodes = (
(444,-10,o),
(520,12,o),
(585,63,c),
(565,111,l),
(504,64,o),
(439,43,o),
(359,43,cs),
(223,43,o),
(131,131,o),
(131,275,cs),
(131,494,o),
(265,625,o),
(452,625,cs),
(532,625,o),
(595,597,o),
(643,557,c),
(676,598,l),
(616,649,o),
(540,678,o),
(456,678,cs),
(231,678,o),
(71,521,o),
(71,274,cs),
(71,102,o),
(190,-10,o),
(355,-10,cs)
);
}
);
width = 668;
},
{
anchors = (
{
name = bottom;
pos = (292,0);
},
{
name = top;
pos = (409,668);
}
);
background = {
shapes = (
{
closed = 1;
nodes = (
(444,-10,o),
(521,12,o),
(588,61,c),
(565,130,l),
(501,86,o),
(440,66,o),
(364,66,cs),
(239,66,o),
(152,146,o),
(152,279,cs),
(152,480,o),
(276,602,o),
(448,602,cs),
(524,602,o),
(585,577,o),
(636,538,c),
(680,597,l),
(619,649,o),
(540,678,o),
(456,678,cs),
(226,678,o),
(65,523,o),
(65,277,cs),
(65,105,o),
(187,-10,o),
(356,-10,cs)
);
}
);
};
layerId = "573A4E99-B1EA-4FCA-90B1-EE1ED57C0074";
shapes = (
{
closed = 1;
nodes = (
(444,-10,o),
(521,12,o),
(588,61,c),
(565,130,l),
(501,86,o),
(440,66,o),
(364,66,cs),
(239,66,o),
(152,146,o),
(152,279,cs),
(152,480,o),
(276,602,o),
(448,602,cs),
(524,602,o),
(585,577,o),
(636,538,c),
(680,597,l),
(619,649,o),
(540,678,o),
(456,678,cs),
(226,678,o),
(65,523,o),
(65,277,cs),
(65,105,o),
(187,-10,o),
(356,-10,cs)
);
}
);
width = 665;
},
{
anchors = (
{
name = bottom;
pos = (288,0);
},
{
name = top;
pos = (405,668);
}
);
background = {
shapes = (
{
closed = 1;
nodes = (
(445,-10,o),
(526,10,o),
(594,57,c),
(563,169,l),
(494,129,o),
(438,113,o),
(374,113,cs),
(266,113,o),
(195,176,o),
(195,287,cs),
(195,453,o),
(299,555,o),
(438,555,cs),
(503,555,o),
(564,536,o),
(621,499,c),
(688,595,l),
(621,651,o),
(540,678,o),
(455,678,cs),
(216,678,o),
(52,523,o),
(52,283,cs),
(52,111,o),
(178,-10,o),
(357,-10,cs)
);
}
);
};
layerId = "261A487E-1CB1-41FD-8732-BC3F4489D58F";
shapes = (
{
closed = 1;
nodes = (
(445,-10,o),
(526,10,o),
(594,57,c),
(563,169,l),
(494,129,o),
(438,113,o),
(374,113,cs),
(266,113,o),
(195,176,o),
(195,287,cs),
(195,453,o),
(299,555,o),
(438,555,cs),
(503,555,o),
(564,536,o),
(621,499,c),
(688,595,l),
(621,651,o),
(540,678,o),
(455,678,cs),
(216,678,o),
(52,523,o),
(52,283,cs),
(52,111,o),
(178,-10,o),
(357,-10,cs)
);
}
);
width = 658;
},
{
anchors = (
{
name = bottom;
pos = (290,0);
},
{
name = top;
pos = (407,668);
}
);
background = {
shapes = (
{
closed = 1;
nodes = (
(445,-10,o),
(523,11,o),
(591,59,c),
(564,150,l),
(496,109,o),
(440,91,o),
(369,91,cs),
(253,91,o),
(175,163,o),
(175,283,cs),
(175,467,o),
(288,577,o),
(443,577,cs),
(514,577,o),
(573,555,o),
(628,518,c),
(684,596,l),
(620,649,o),
(540,678,o),
(455,678,cs),
(220,678,o),
(58,524,o),
(58,280,cs),
(58,108,o),
(183,-10,o),
(357,-10,cs)
);
}
);
};
layerId = "ACFE83A5-3FD5-4916-9088-BF4CCAF0E845";
shapes = (
{
closed = 1;
nodes = (
(445,-10,o),
(523,11,o),
(591,59,c),
(564,150,l),
(496,109,o),
(440,91,o),
(369,91,cs),
(253,91,o),
(175,163,o),
(175,283,cs),
(175,467,o),
(288,577,o),
(443,577,cs),
(514,577,o),
(573,555,o),
(628,518,c),
(684,596,l),
(620,649,o),
(540,678,o),
(455,678,cs),
(220,678,o),
(58,524,o),
(58,280,cs),
(58,108,o),
(183,-10,o),
(357,-10,cs)
);
}
);
width = 661;
},
{
anchors = (
{
name = bottom;
pos = (295,0);
},
{
name = top;
pos = (412,668);
}
);
background = {
shapes = (
{
closed = 1;
nodes = (
(444,-10,o),
(519,15,o),
(582,65,c),
(566,92,l),
(507,44,o),
(440,20,o),
(355,20,cs),
(210,20,o),
(111,116,o),
(111,272,cs),
(111,508,o),
(257,648,o),
(457,648,cs),
(542,648,o),
(604,617,o),
(651,576,c),
(673,599,l),
(616,648,o),
(541,678,o),
(457,678,cs),
(237,678,o),
(77,522,o),
(77,272,cs),
(77,100,o),
(195,-10,o),
(355,-10,cs)
);
}
);
};
layerId = "EA8306D6-B852-442A-A16D-2D86AE16EEA2";
shapes = (
{
closed = 1;
nodes = (
(444,-10,o),
(519,15,o),
(582,65,c),
(566,92,l),
(507,44,o),
(440,20,o),
(355,20,cs),
(210,20,o),
(111,116,o),
(111,272,cs),
(111,508,o),
(257,648,o),
(457,648,cs),
(542,648,o),
(604,617,o),
(651,576,c),
(673,599,l),
(616,648,o),
(541,678,o),
(457,678,cs),
(237,678,o),
(77,522,o),
(77,272,cs),
(77,100,o),
(195,-10,o),
(355,-10,cs)
);
}
);
width = 672;
}
);
unicode = 67;
},
{
color = 10;
glyphname = Ccedilla;
kernLeft = _C1;
kernRight = _C;
lastChange = "2022-05-20 09:41:26 +0000";
layers = (
{
background = {
shapes = (
{
closed = 1;
nodes = (
(356,-208,o),
(410,-167,o),
(410,-104,cs),
(410,-65,o),
(377,-42,o),
(328,-42,c),
(348,-10,l),
(358,-10,ls),
(445,-10,o),
(528,8,o),
(597,55,c),
(563,187,l),
(490,150,o),
(437,135,o),
(376,135,cs),
(272,135,o),
(212,202,o),
(212,302,cs),
(212,442,o),
(300,533,o),
(436,533,cs),
(496,533,o),
(554,517,o),
(614,481,c),
(692,595,l),
(623,651,o),
(541,678,o),
(454,678,cs),
(210,678,o),
(43,527,o),
(43,284,cs),
(43,135,o),
(137,24,o),
(281,-3,c),
(257,-42,l),
(252,-76,l),
(273,-76,ls),
(300,-76,o),
(314,-84,o),
(314,-99,cs),
(314,-121,o),
(297,-132,o),
(263,-132,cs),
(244,-132,o),
(211,-128,o),
(188,-123,c),
(175,-194,l),
(206,-205,o),
(246,-208,o),
(265,-208,cs)
);
}
);
};
layerId = "D2242EF2-33C7-49B0-8663-736078BD5B35";
shapes = (
{
ref = C;
},
{
pos = (29,0);
ref = cedillacomb;
}
);
width = 655;
},
{
background = {
shapes = (
{
closed = 1;
nodes = (
(357,-214,o),
(416,-171,o),
(416,-104,cs),
(416,-65,o),
(382,-40,o),
(331,-40,c),
(350,-10,l),
(358,-10,ls),
(445,-10,o),
(530,8,o),
(599,53,c),
(562,203,l),
(487,168,o),
(436,154,o),
(380,154,cs),
(283,154,o),
(229,218,o),
(229,309,cs),
(229,433,o),
(306,514,o),
(432,514,cs),
(488,514,o),
(545,500,o),
(608,465,c),
(695,594,l),
(623,650,o),
(541,678,o),
(454,678,cs),
(203,678,o),
(37,526,o),
(37,286,cs),
(37,138,o),
(128,28,o),
(276,-2,c),
(253,-40,l),
(247,-77,l),
(268,-77,ls),
(295,-77,o),
(309,-84,o),
(309,-99,cs),
(309,-119,o),
(292,-129,o),
(259,-129,cs),
(240,-129,o),
(205,-126,o),
(180,-119,c),
(165,-199,l),
(200,-210,o),
(242,-214,o),
(261,-214,cs)
);
}
);
};
layerId = "EC4B77C1-E739-4B44-9572-0CFE97DCA064";
shapes = (
{
ref = C;
},
{
pos = (27,0);
ref = cedillacomb;
}
);
width = 652;
},
{
background = {
shapes = (
{
closed = 1;
nodes = (
(346,-181,o),
(383,-150,o),
(383,-102,cs),
(383,-69,o),
(358,-49,o),
(313,-49,c),
(337,-9,l),
(344,-10,o),
(348,-10,o),
(355,-10,cs),
(451,-10,o),
(520,12,o),
(585,63,c),
(565,111,l),
(504,64,o),
(444,43,o),
(359,43,cs),
(223,43,o),
(131,131,o),
(131,275,cs),
(131,498,o),
(261,625,o),
(452,625,cs),
(532,625,o),
(595,597,o),
(643,557,c),
(676,598,l),
(616,649,o),
(540,678,o),
(456,678,cs),
(227,678,o),
(71,525,o),
(71,274,cs),
(71,119,o),
(166,16,o),
(303,-6,c),
(277,-49,l),
(273,-70,l),
(297,-70,ls),
(325,-70,o),
(339,-80,o),
(339,-100,cs),
(339,-128,o),
(318,-145,o),
(283,-145,cs),
(266,-145,o),
(240,-144,o),
(225,-141,c),
(220,-173,l),
(235,-178,o),
(266,-181,o),
(283,-181,cs)
);
}
);
};
layerId = "BA8B9BDD-FBF5-4763-A7AD-14140821EFBD";
shapes = (
{
ref = C;
},
{
pos = (36,0);
ref = cedillacomb;
}
);
width = 668;
},
{
background = {
shapes = (
{
closed = 1;
nodes = (
(348,-188,o),
(390,-154,o),
(390,-102,cs),
(390,-67,o),
(364,-47,o),
(317,-47,c),
(340,-9,l),
(345,-9,o),
(349,-10,o),
(356,-10,cs),
(444,-10,o),
(521,12,o),
(588,61,c),
(565,130,l),
(501,86,o),
(440,66,o),
(364,66,cs),
(239,66,o),
(152,146,o),
(152,279,cs),
(152,480,o),
(276,602,o),
(448,602,cs),
(524,602,o),
(585,577,o),
(636,538,c),
(680,597,l),
(619,649,o),
(540,678,o),
(456,678,cs),
(226,678,o),
(65,523,o),
(65,277,cs),
(65,124,o),
(159,19,o),
(298,-5,c),
(272,-47,l),
(268,-71,l),
(291,-71,ls),
(319,-71,o),
(333,-81,o),
(333,-100,cs),
(333,-127,o),
(313,-142,o),
(278,-142,cs),
(261,-142,o),
(233,-140,o),
(216,-136,c),
(209,-178,l),
(228,-185,o),
(260,-188,o),
(279,-188,cs)
);
}
);
};
layerId = "573A4E99-B1EA-4FCA-90B1-EE1ED57C0074";
shapes = (
{
ref = C;
},
{
pos = (34,0);
ref = cedillacomb;
}
);
width = 665;
},
{
background = {
shapes = (
{
closed = 1;
nodes = (
(353,-202,o),
(404,-163,o),
(404,-103,cs),
(404,-66,o),
(373,-43,o),
(324,-43,c),
(345,-10,l),
(357,-10,ls),
(445,-10,o),
(526,10,o),
(594,57,c),
(563,169,l),
(494,129,o),
(437,113,o),
(372,113,cs),
(261,113,o),
(193,184,o),
(193,295,cs),
(193,455,o),
(292,555,o),
(440,555,cs),
(503,555,o),
(564,536,o),
(621,499,c),
(688,595,l),
(621,651,o),
(540,678,o),
(455,678,cs),
(214,678,o),
(50,526,o),
(50,282,cs),
(50,132,o),
(143,24,o),
(287,-3,c),
(262,-43,l),
(257,-74,l),
(279,-74,ls),
(306,-74,o),
(320,-82,o),
(320,-99,cs),
(320,-123,o),
(303,-135,o),
(268,-135,cs),
(249,-135,o),
(218,-132,o),
(197,-127,c),
(186,-189,l),
(213,-197,o),
(250,-202,o),
(269,-202,cs)
);
}
);
};
layerId = "261A487E-1CB1-41FD-8732-BC3F4489D58F";
shapes = (
{
ref = C;
},
{
pos = (30,0);
ref = cedillacomb;
}
);
width = 658;
},
{
background = {
shapes = (
{
closed = 1;
nodes = (
(351,-195,o),
(397,-159,o),
(397,-103,cs),
(397,-67,o),
(368,-45,o),
(321,-45,c),
(343,-10,l),
(357,-10,ls),
(445,-10,o),
(523,11,o),
(591,59,c),
(564,150,l),
(496,109,o),
(439,91,o),
(368,91,cs),
(252,91,o),
(174,166,o),
(174,287,cs),
(174,467,o),
(285,577,o),
(444,577,cs),
(513,577,o),
(573,555,o),
(628,518,c),
(684,596,l),
(620,649,o),
(540,678,o),
(455,678,cs),
(219,678,o),
(57,524,o),
(57,280,cs),
(57,129,o),
(150,20,o),
(292,-4,c),
(267,-45,l),
(262,-73,l),
(285,-73,ls),
(312,-73,o),
(326,-82,o),
(326,-100,cs),
(326,-124,o),
(306,-138,o),
(273,-138,cs),
(254,-138,o),
(225,-136,o),
(206,-131,c),
(197,-184,l),
(220,-191,o),
(255,-195,o),
(274,-195,cs)
);
}
);
};
layerId = "ACFE83A5-3FD5-4916-9088-BF4CCAF0E845";
shapes = (
{
ref = C;
},
{
pos = (32,0);
ref = cedillacomb;
}
);
width = 661;
},
{
background = {
shapes = (
{
closed = 1;
nodes = (
(344,-174,o),
(376,-145,o),
(376,-101,cs),
(376,-70,o),
(354,-50,o),
(310,-50,c),
(335,-9,l),
(342,-10,o),
(348,-10,o),
(355,-10,cs),
(458,-10,o),
(518,14,o),
(582,65,c),
(566,92,l),
(508,44,o),
(451,20,o),
(355,20,cs),
(210,20,o),
(111,116,o),
(111,272,cs),
(111,516,o),
(246,648,o),
(457,648,cs),
(542,648,o),
(604,617,o),
(651,576,c),
(673,599,l),
(616,648,o),
(541,678,o),
(457,678,cs),
(226,678,o),
(77,528,o),
(77,272,cs),
(77,117,o),
(172,13,o),
(309,-6,c),
(282,-51,l),
(279,-68,l),
(303,-68,ls),
(332,-68,o),
(346,-79,o),
(346,-100,cs),
(346,-131,o),
(323,-148,o),
(288,-148,cs),
(271,-148,o),
(247,-148,o),
(235,-145,c),
(231,-167,l),
(242,-171,o),
(271,-174,o),
(288,-174,cs)
);
}
);
};
layerId = "EA8306D6-B852-442A-A16D-2D86AE16EEA2";
shapes = (
{
ref = C;
},
{
pos = (37,0);
ref = cedillacomb;
}
);
width = 672;
}
);
unicode = 199;
},
{
color = 6;
glyphname = D;
kernRight = _D;
lastChange = "2022-05-20 09:41:26 +0000";
layers = (
{
anchors = (
{
name = bottom;
pos = (314,0);
},
{
name = center;
pos = (372,334);
},
{
name = top;
pos = (431,668);
}
);
background = {
shapes = (
{
closed = 1;
nodes = (
(280,0,ls),
(555,0,o),
(696,135,o),
(696,382,cs),
(696,567,o),
(585,668,o),
(372,668,cs),
(137,668,l),
(20,0,l)
);
},
{
closed = 1;
nodes = (
(279,528,l),
(351,528,ls),
(479,528,o),
(527,490,o),
(527,377,cs),
(527,217,o),
(459,140,o),
(295,140,cs),
(211,140,l)
);
}
);
};
layerId = "D2242EF2-33C7-49B0-8663-736078BD5B35";
shapes = (
{
closed = 1;
nodes = (
(280,0,ls),
(555,0,o),
(696,135,o),
(696,382,cs),
(696,567,o),
(585,668,o),
(372,668,cs),
(137,668,l),
(20,0,l)
);
},
{
closed = 1;
nodes = (
(279,528,l),
(351,528,ls),
(479,528,o),
(527,490,o),
(527,377,cs),
(527,217,o),
(459,140,o),
(295,140,cs),
(211,140,l)
);
}
);
width = 710;
},
{
anchors = (
{
name = bottom;
pos = (314,0);
},
{
name = center;
pos = (372,334);
},
{
name = top;
pos = (431,668);
}
);
background = {
shapes = (
{
closed = 1;
nodes = (
(280,0,ls),
(557,0,o),
(701,137,o),
(701,380,cs),
(701,565,o),
(589,668,o),
(372,668,cs),
(131,668,l),
(14,0,l)
);
},
{
closed = 1;
nodes = (
(293,510,l),
(349,510,ls),
(470,510,o),
(509,475,o),
(509,374,cs),
(509,229,o),
(450,158,o),
(299,158,cs),
(231,158,l)
);
}
);
};
layerId = "EC4B77C1-E739-4B44-9572-0CFE97DCA064";
shapes = (
{
closed = 1;
nodes = (
(280,0,ls),
(557,0,o),
(701,137,o),
(701,380,cs),
(701,565,o),
(589,668,o),
(372,668,cs),
(131,668,l),
(14,0,l)
);
},
{
closed = 1;
nodes = (
(293,510,l),
(349,510,ls),
(470,510,o),
(509,475,o),
(509,374,cs),
(509,229,o),
(450,158,o),
(299,158,cs),
(231,158,l)
);
}
);
width = 710;
},
{
anchors = (
{
name = bottom;
pos = (314,0);
},
{
name = center;
pos = (372,334);
},
{
name = top;
pos = (431,668);
}
);
background = {
shapes = (
{
closed = 1;
nodes = (
(277,0,ls),
(532,0,o),
(671,137,o),
(671,393,cs),
(671,576,o),
(567,668,o),
(374,668,cs),
(164,668,l),
(47,0,l)
);
},
{
closed = 1;
nodes = (
(214,616,l),
(362,616,ls),
(527,616,o),
(610,555,o),
(610,392,cs),
(610,164,o),
(497,52,o),
(273,52,cs),
(115,52,l)
);
}
);
};
layerId = "BA8B9BDD-FBF5-4763-A7AD-14140821EFBD";
shapes = (
{
closed = 1;
nodes = (
(277,0,ls),
(532,0,o),
(671,137,o),
(671,393,cs),
(671,576,o),
(567,668,o),
(374,668,cs),
(164,668,l),
(47,0,l)
);
},
{
closed = 1;
nodes = (
(214,616,l),
(362,616,ls),
(527,616,o),
(610,555,o),
(610,392,cs),
(610,164,o),
(497,52,o),
(273,52,cs),
(115,52,l)
);
}
);
width = 710;
},
{
anchors = (
{
name = bottom;
pos = (314,0);
},
{
name = center;
pos = (372,334);
},
{
name = top;
pos = (431,668);
}
);
background = {
shapes = (
{
closed = 1;
nodes = (
(278,0,ls),
(538,0,o),
(677,138,o),
(677,391,cs),
(677,574,o),
(573,668,o),
(374,668,cs),
(157,668,l),
(40,0,l)
);
},
{
closed = 1;
nodes = (
(230,594,l),
(360,594,ls),
(516,594,o),
(590,538,o),
(590,389,cs),
(590,179,o),
(486,74,o),
(279,74,cs),
(139,74,l)
);
}
);
};
layerId = "573A4E99-B1EA-4FCA-90B1-EE1ED57C0074";
shapes = (
{
closed = 1;
nodes = (
(278,0,ls),
(538,0,o),
(677,138,o),
(677,391,cs),
(677,574,o),
(573,668,o),
(374,668,cs),
(157,668,l),
(40,0,l)
);
},
{
closed = 1;
nodes = (
(230,594,l),
(360,594,ls),
(516,594,o),
(590,538,o),
(590,389,cs),
(590,179,o),
(486,74,o),
(279,74,cs),
(139,74,l)
);
}
);
width = 710;
},
{
anchors = (
{
name = bottom;
pos = (314,0);
},
{
name = center;
pos = (372,334);
},
{
name = top;
pos = (431,668);
}
);
background = {
shapes = (
{
closed = 1;
nodes = (
(279,0,ls),
(550,0,o),
(690,137,o),
(690,385,cs),
(690,569,o),
(581,668,o),
(373,668,cs),
(143,668,l),
(26,0,l)
);
},
{
closed = 1;
nodes = (
(263,549,l),
(354,549,ls),
(492,549,o),
(547,506,o),
(547,381,cs),
(547,205,o),
(467,119,o),
(290,119,cs),
(188,119,l)
);
}
);
};
layerId = "261A487E-1CB1-41FD-8732-BC3F4489D58F";
shapes = (
{
closed = 1;
nodes = (
(279,0,ls),
(550,0,o),
(690,137,o),
(690,385,cs),
(690,569,o),
(581,668,o),
(373,668,cs),
(143,668,l),
(26,0,l)
);
},
{
closed = 1;
nodes = (
(263,549,l),
(354,549,ls),
(492,549,o),
(547,506,o),
(547,381,cs),
(547,205,o),
(467,119,o),
(290,119,cs),
(188,119,l)
);
}
);
width = 710;
},
{
anchors = (
{
name = bottom;
pos = (314,0);
},
{
name = center;
pos = (372,334);
},
{
name = top;
pos = (431,668);
}
);
background = {
shapes = (
{
closed = 1;
nodes = (
(279,0,ls),
(543,0,o),
(684,136,o),
(684,388,cs),
(684,571,o),
(577,668,o),
(373,668,cs),
(150,668,l),
(33,0,l)
);
},
{
closed = 1;
nodes = (
(248,570,l),
(357,570,ls),
(502,570,o),
(567,521,o),
(567,385,cs),
(567,192,o),
(477,98,o),
(285,98,cs),
(165,98,l)
);
}
);
};
layerId = "ACFE83A5-3FD5-4916-9088-BF4CCAF0E845";
shapes = (
{
closed = 1;
nodes = (
(279,0,ls),
(543,0,o),
(684,136,o),
(684,388,cs),
(684,571,o),
(577,668,o),
(373,668,cs),
(150,668,l),
(33,0,l)
);
},
{
closed = 1;
nodes = (
(248,570,l),
(357,570,ls),
(502,570,o),
(567,521,o),
(567,385,cs),
(567,192,o),
(477,98,o),
(285,98,cs),
(165,98,l)
);
}
);
width = 710;
},
{
anchors = (
{
name = bottom;
pos = (314,0);
},
{
name = center;
pos = (372,334);
},
{
name = top;
pos = (431,668);
}
);
background = {
shapes = (
{
closed = 1;
nodes = (
(277,0,ls),
(525,0,o),
(665,139,o),
(665,396,cs),
(665,579,o),
(563,668,o),
(375,668,cs),
(171,668,l),
(54,0,l)
);
},
{
closed = 1;
nodes = (
(198,638,l),
(365,638,ls),
(540,638,o),
(631,571,o),
(631,396,cs),
(631,152,o),
(507,30,o),
(268,30,cs),
(91,30,l)
);
}
);
};
layerId = "EA8306D6-B852-442A-A16D-2D86AE16EEA2";
shapes = (
{
closed = 1;
nodes = (
(277,0,ls),
(525,0,o),
(665,139,o),
(665,396,cs),
(665,579,o),
(563,668,o),
(375,668,cs),
(171,668,l),
(54,0,l)
);
},
{
closed = 1;
nodes = (
(198,638,l),
(365,638,ls),
(540,638,o),
(631,571,o),
(631,396,cs),
(631,152,o),
(507,30,o),
(268,30,cs),
(91,30,l)
);
}
);
width = 710;
}
);
unicode = 68;
},
{
color = 6;
glyphname = Eth;
kernRight = _D;
lastChange = "2022-05-20 09:41:26 +0000";
layers = (
{
background = {
shapes = (
{
closed = 1;
nodes = (
(280,0,ls),
(555,0,o),
(696,135,o),
(696,382,cs),
(696,567,o),
(585,668,o),
(372,668,cs),
(137,668,l),
(89,393,l),
(34,393,l),
(16,295,l),
(71,295,l),
(20,0,l)
);
},
{
closed = 1;
nodes = (
(238,295,l),
(361,295,l),
(379,393,l),
(255,393,l),
(279,528,l),
(351,528,ls),
(479,528,o),
(527,490,o),
(527,377,cs),
(527,217,o),
(459,140,o),
(295,140,cs),
(211,140,l)
);
}
);
};
layerId = "D2242EF2-33C7-49B0-8663-736078BD5B35";
shapes = (
{
closed = 1;
nodes = (
(280,0,ls),
(555,0,o),
(696,135,o),
(696,382,cs),
(696,567,o),
(585,668,o),
(372,668,cs),
(137,668,l),
(89,393,l),
(34,393,l),
(16,295,l),
(71,295,l),
(20,0,l)
);
},
{
closed = 1;
nodes = (
(238,295,l),
(361,295,l),
(379,393,l),
(255,393,l),
(279,528,l),
(351,528,ls),
(479,528,o),
(527,490,o),
(527,377,cs),
(527,217,o),
(459,140,o),
(295,140,cs),
(211,140,l)
);
}
);
width = 710;
},
{
background = {
shapes = (
{
closed = 1;
nodes = (
(280,0,ls),
(557,0,o),
(701,137,o),
(701,380,cs),
(701,565,o),
(589,668,o),
(372,668,cs),
(131,668,l),
(84,399,l),
(34,399,l),
(14,289,l),
(64,289,l),
(14,0,l)
);
},
{
closed = 1;
nodes = (
(254,289,l),
(360,289,l),
(380,399,l),
(273,399,l),
(293,510,l),
(349,510,ls),
(470,510,o),
(509,475,o),
(509,374,cs),
(509,229,o),
(450,158,o),
(299,158,cs),
(231,158,l)
);
}
);
};
layerId = "EC4B77C1-E739-4B44-9572-0CFE97DCA064";
shapes = (
{
closed = 1;
nodes = (
(280,0,ls),
(557,0,o),
(701,137,o),
(701,380,cs),
(701,565,o),
(589,668,o),
(372,668,cs),
(131,668,l),
(84,399,l),
(34,399,l),
(14,289,l),
(64,289,l),
(14,0,l)
);
},
{
closed = 1;
nodes = (
(254,289,l),
(360,289,l),
(380,399,l),
(273,399,l),
(293,510,l),
(349,510,ls),
(470,510,o),
(509,475,o),
(509,374,cs),
(509,229,o),
(450,158,o),
(299,158,cs),
(231,158,l)
);
}
);
width = 710;
},
{
background = {
shapes = (
{
closed = 1;
nodes = (
(277,0,ls),
(532,0,o),
(671,137,o),
(671,393,cs),
(671,576,o),
(567,668,o),
(374,668,cs),
(164,668,l),
(111,366,l),
(31,366,l),
(24,322,l),
(103,322,l),
(47,0,l)
);
},
{
closed = 1;
nodes = (
(162,322,l),
(366,322,l),
(374,366,l),
(170,366,l),
(214,616,l),
(362,616,ls),
(527,616,o),
(610,555,o),
(610,392,cs),
(610,164,o),
(497,52,o),
(273,52,cs),
(115,52,l)
);
}
);
};
layerId = "BA8B9BDD-FBF5-4763-A7AD-14140821EFBD";
shapes = (
{
closed = 1;
nodes = (
(277,0,ls),
(532,0,o),
(671,137,o),
(671,393,cs),
(671,576,o),
(567,668,o),
(374,668,cs),
(164,668,l),
(111,366,l),
(31,366,l),
(24,322,l),
(103,322,l),
(47,0,l)
);
},
{
closed = 1;
nodes = (
(162,322,l),
(366,322,l),
(374,366,l),
(170,366,l),
(214,616,l),
(362,616,ls),
(527,616,o),
(610,555,o),
(610,392,cs),
(610,164,o),
(497,52,o),
(273,52,cs),
(115,52,l)
);
}
);
width = 710;
},
{
background = {
shapes = (
{
closed = 1;
nodes = (
(278,0,ls),
(538,0,o),
(677,138,o),
(677,391,cs),
(677,574,o),
(573,668,o),
(374,668,cs),
(157,668,l),
(105,373,l),
(32,373,l),
(22,315,l),
(95,315,l),
(40,0,l)
);
},
{
closed = 1;
nodes = (
(181,315,l),
(365,315,l),
(375,373,l),
(191,373,l),
(230,594,l),
(360,594,ls),
(516,594,o),
(590,538,o),
(590,389,cs),
(590,179,o),
(486,74,o),
(279,74,cs),
(139,74,l)
);
}
);
};
layerId = "573A4E99-B1EA-4FCA-90B1-EE1ED57C0074";
shapes = (
{
closed = 1;
nodes = (
(278,0,ls),
(538,0,o),
(677,138,o),
(677,391,cs),
(677,574,o),
(573,668,o),
(374,668,cs),
(157,668,l),
(105,373,l),
(32,373,l),
(22,315,l),
(95,315,l),
(40,0,l)
);
},
{
closed = 1;
nodes = (
(181,315,l),
(365,315,l),
(375,373,l),
(191,373,l),
(230,594,l),
(360,594,ls),
(516,594,o),
(590,538,o),
(590,389,cs),
(590,179,o),
(486,74,o),
(279,74,cs),
(139,74,l)
);
}
);
width = 710;
},
{
background = {
shapes = (
{
closed = 1;
nodes = (
(279,0,ls),
(550,0,o),
(690,137,o),
(690,385,cs),
(690,569,o),
(581,668,o),
(373,668,cs),
(143,668,l),
(94,387,l),
(33,387,l),
(18,301,l),
(79,301,l),
(26,0,l)
);
},
{
closed = 1;
nodes = (
(220,301,l),
(362,301,l),
(378,387,l),
(234,387,l),
(263,549,l),
(354,549,ls),
(492,549,o),
(547,506,o),
(547,381,cs),
(547,205,o),
(467,119,o),
(290,119,cs),
(188,119,l)
);
}
);
};
layerId = "261A487E-1CB1-41FD-8732-BC3F4489D58F";
shapes = (
{
closed = 1;
nodes = (
(279,0,ls),
(550,0,o),
(690,137,o),
(690,385,cs),
(690,569,o),
(581,668,o),
(373,668,cs),
(143,668,l),
(94,387,l),
(33,387,l),
(18,301,l),
(79,301,l),
(26,0,l)
);
},
{
closed = 1;
nodes = (
(220,301,l),
(362,301,l),
(378,387,l),
(234,387,l),
(263,549,l),
(354,549,ls),
(492,549,o),
(547,506,o),
(547,381,cs),
(547,205,o),
(467,119,o),
(290,119,cs),
(188,119,l)
);
}
);
width = 710;
},
{
background = {
shapes = (
{
closed = 1;
nodes = (
(279,0,ls),
(543,0,o),
(684,136,o),
(684,388,cs),
(684,571,o),
(577,668,o),
(373,668,cs),
(150,668,l),
(99,380,l),
(33,380,l),
(20,308,l),
(86,308,l),
(33,0,l)
);
},
{
closed = 1;
nodes = (
(201,308,l),
(364,308,l),
(376,380,l),
(214,380,l),
(248,570,l),
(357,570,ls),
(502,570,o),
(567,521,o),
(567,385,cs),
(567,192,o),
(477,98,o),
(285,98,cs),
(165,98,l)
);
}
);
};
layerId = "ACFE83A5-3FD5-4916-9088-BF4CCAF0E845";
shapes = (
{
closed = 1;
nodes = (
(279,0,ls),
(543,0,o),
(684,136,o),
(684,388,cs),
(684,571,o),
(577,668,o),
(373,668,cs),
(150,668,l),
(99,380,l),
(33,380,l),
(20,308,l),
(86,308,l),
(33,0,l)
);
},
{
closed = 1;
nodes = (
(201,308,l),
(364,308,l),
(376,380,l),
(214,380,l),
(248,570,l),
(357,570,ls),
(502,570,o),
(567,521,o),
(567,385,cs),
(567,192,o),
(477,98,o),
(285,98,cs),
(165,98,l)
);
}
);
width = 710;
},
{
background = {
shapes = (
{
closed = 1;
nodes = (
(277,0,ls),
(525,0,o),
(665,139,o),
(665,396,cs),
(665,579,o),
(563,668,o),
(375,668,cs),
(171,668,l),
(117,359,l),
(31,359,l),
(26,329,l),
(111,329,l),
(54,0,l)
);
},
{
closed = 1;
nodes = (
(143,329,l),
(368,329,l),
(373,359,l),
(149,359,l),
(198,638,l),
(365,638,ls),
(540,638,o),
(631,571,o),
(631,396,cs),
(631,152,o),
(507,30,o),
(268,30,cs),
(91,30,l)
);
}
);
};
layerId = "EA8306D6-B852-442A-A16D-2D86AE16EEA2";
shapes = (
{
closed = 1;
nodes = (
(277,0,ls),
(525,0,o),
(665,139,o),
(665,396,cs),
(665,579,o),
(563,668,o),
(375,668,cs),
(171,668,l),
(117,359,l),
(31,359,l),
(26,329,l),
(111,329,l),
(54,0,l)
);
},
{
closed = 1;
nodes = (
(143,329,l),
(368,329,l),
(373,359,l),
(149,359,l),
(198,638,l),
(365,638,ls),
(540,638,o),
(631,571,o),
(631,396,cs),
(631,152,o),
(507,30,o),
(268,30,cs),
(91,30,l)
);
}
);
width = 710;
}
);
unicode = 208;
},
{
color = 6;
glyphname = E;
lastChange = "2022-05-20 09:41:26 +0000";
layers = (
{
anchors = (
{
name = bottom;
pos = (261,0);
},
{
name = ogonek;
pos = (516,0);
},
{
name = top;
pos = (378,668);
},
{
name = topleft;
pos = (96,668);
}
);
background = {
shapes = (
{
closed = 1;
nodes = (
(516,0,l),
(540,140,l),
(211,140,l),
(235,279,l),
(535,279,l),
(558,409,l),
(259,409,l),
(279,528,l),
(609,528,l),
(633,668,l),
(137,668,l),
(20,0,l)
);
}
);
};
layerId = "D2242EF2-33C7-49B0-8663-736078BD5B35";
shapes = (
{
closed = 1;
nodes = (
(516,0,l),
(540,140,l),
(211,140,l),
(235,279,l),
(535,279,l),
(558,409,l),
(259,409,l),
(279,528,l),
(609,528,l),
(633,668,l),
(137,668,l),
(20,0,l)
);
}
);
width = 603;
},
{
anchors = (
{
name = bottom;
pos = (262,0);
},
{
name = ogonek;
pos = (522,0);
},
{
name = top;
pos = (379,668);
},
{
name = topleft;
pos = (96,668);
}
);
background = {
shapes = (
{
closed = 1;
nodes = (
(522,0,l),
(549,158,l),
(231,158,l),
(251,271,l),
(539,271,l),
(565,417,l),
(277,417,l),
(293,510,l),
(611,510,l),
(639,668,l),
(131,668,l),
(14,0,l)
);
}
);
};
layerId = "EC4B77C1-E739-4B44-9572-0CFE97DCA064";
shapes = (
{
closed = 1;
nodes = (
(522,0,l),
(549,158,l),
(231,158,l),
(251,271,l),
(539,271,l),
(565,417,l),
(277,417,l),
(293,510,l),
(611,510,l),
(639,668,l),
(131,668,l),
(14,0,l)
);
}
);
width = 606;
},
{
anchors = (
{
name = bottom;
pos = (254,0);
},
{
name = ogonek;
pos = (489,0);
},
{
name = top;
pos = (371,668);
},
{
name = topleft;
pos = (96,668);
}
);
background = {
shapes = (
{
closed = 1;
nodes = (
(489,0,l),
(498,52,l),
(115,52,l),
(162,318,l),
(515,318,l),
(524,369,l),
(171,369,l),
(214,616,l),
(597,616,l),
(606,668,l),
(164,668,l),
(47,0,l)
);
}
);
};
layerId = "BA8B9BDD-FBF5-4763-A7AD-14140821EFBD";
shapes = (
{
closed = 1;
nodes = (
(489,0,l),
(498,52,l),
(115,52,l),
(162,318,l),
(515,318,l),
(524,369,l),
(171,369,l),
(214,616,l),
(597,616,l),
(606,668,l),
(164,668,l),
(47,0,l)
);
}
);
width = 589;
},
{
anchors = (
{
name = bottom;
pos = (256,0);
},
{
name = ogonek;
pos = (496,0);
},
{
name = top;
pos = (373,668);
},
{
name = topleft;
pos = (96,668);
}
);
background = {
shapes = (
{
closed = 1;
nodes = (
(496,0,l),
(509,74,l),
(139,74,l),
(180,308,l),
(520,308,l),
(533,380,l),
(193,380,l),
(230,594,l),
(600,594,l),
(613,668,l),
(157,668,l),
(40,0,l)
);
}
);
};
layerId = "573A4E99-B1EA-4FCA-90B1-EE1ED57C0074";
shapes = (
{
closed = 1;
nodes = (
(496,0,l),
(509,74,l),
(139,74,l),
(180,308,l),
(520,308,l),
(533,380,l),
(193,380,l),
(230,594,l),
(600,594,l),
(613,668,l),
(157,668,l),
(40,0,l)
);
}
);
width = 593;
},
{
anchors = (
{
name = bottom;
pos = (259,0);
},
{
name = ogonek;
pos = (510,0);
},
{
name = top;
pos = (376,668);
},
{
name = topleft;
pos = (96,668);
}
);
background = {
shapes = (
{
closed = 1;
nodes = (
(510,0,l),
(530,119,l),
(188,119,l),
(218,288,l),
(530,288,l),
(550,400,l),
(238,400,l),
(263,549,l),
(606,549,l),
(627,668,l),
(143,668,l),
(26,0,l)
);
}
);
};
layerId = "261A487E-1CB1-41FD-8732-BC3F4489D58F";
shapes = (
{
closed = 1;
nodes = (
(510,0,l),
(530,119,l),
(188,119,l),
(218,288,l),
(530,288,l),
(550,400,l),
(238,400,l),
(263,549,l),
(606,549,l),
(627,668,l),
(143,668,l),
(26,0,l)
);
}
);
width = 600;
},
{
anchors = (
{
name = bottom;
pos = (258,0);
},
{
name = ogonek;
pos = (503,0);
},
{
name = top;
pos = (375,668);
},
{
name = topleft;
pos = (96,668);
}
);
background = {
shapes = (
{
closed = 1;
nodes = (
(503,0,l),
(520,98,l),
(165,98,l),
(200,298,l),
(525,298,l),
(542,390,l),
(217,390,l),
(248,570,l),
(603,570,l),
(620,668,l),
(150,668,l),
(33,0,l)
);
}
);
};
layerId = "ACFE83A5-3FD5-4916-9088-BF4CCAF0E845";
shapes = (
{
closed = 1;
nodes = (
(503,0,l),
(520,98,l),
(165,98,l),
(200,298,l),
(525,298,l),
(542,390,l),
(217,390,l),
(248,570,l),
(603,570,l),
(620,668,l),
(150,668,l),
(33,0,l)
);
}
);
width = 597;
},
{
anchors = (
{
name = bottom;
pos = (252,0);
},
{
name = ogonek;
pos = (482,0);
},
{
name = top;
pos = (369,668);
},
{
name = topleft;
pos = (96,668);
}
);
background = {
shapes = (
{
closed = 1;
nodes = (
(482,0,l),
(487,30,l),
(91,30,l),
(144,329,l),
(510,329,l),
(515,359,l),
(149,359,l),
(198,638,l),
(594,638,l),
(599,668,l),
(171,668,l),
(54,0,l)
);
}
);
};
layerId = "EA8306D6-B852-442A-A16D-2D86AE16EEA2";
shapes = (
{
closed = 1;
nodes = (
(482,0,l),
(487,30,l),
(91,30,l),
(144,329,l),
(510,329,l),
(515,359,l),
(149,359,l),
(198,638,l),
(594,638,l),
(599,668,l),
(171,668,l),
(54,0,l)
);
}
);
width = 586;
}
);
unicode = 69;
},
{
color = 10;
glyphname = Eacute;
lastChange = "2022-05-20 09:41:26 +0000";
layers = (
{
background = {
shapes = (
{
closed = 1;
nodes = (
(516,0,l),
(540,140,l),
(211,140,l),
(235,279,l),
(535,279,l),
(558,409,l),
(259,409,l),
(279,528,l),
(609,528,l),
(633,668,l),
(137,668,l),
(20,0,l)
);
},
{
closed = 1;
nodes = (
(451,729,l),
(591,888,l),
(433,888,l),
(341,729,l)
);
}
);
};
layerId = "D2242EF2-33C7-49B0-8663-736078BD5B35";
shapes = (
{
ref = E;
},
{
pos = (23,198);
ref = acutecomb;
}
);
width = 603;
},
{
background = {
shapes = (
{
closed = 1;
nodes = (
(522,0,l),
(549,158,l),
(231,158,l),
(251,271,l),
(539,271,l),
(565,417,l),
(277,417,l),
(293,510,l),
(611,510,l),
(639,668,l),
(131,668,l),
(14,0,l)
);
},
{
closed = 1;
nodes = (
(458,726,l),
(601,888,l),
(423,888,l),
(334,726,l)
);
}
);
};
layerId = "EC4B77C1-E739-4B44-9572-0CFE97DCA064";
shapes = (
{
ref = E;
},
{
pos = (22,198);
ref = acutecomb;
}
);
width = 606;
},
{
background = {
shapes = (
{
closed = 1;
nodes = (
(489,0,l),
(498,52,l),
(115,52,l),
(162,318,l),
(515,318,l),
(524,369,l),
(171,369,l),
(214,616,l),
(597,616,l),
(606,668,l),
(164,668,l),
(47,0,l)
);
},
{
closed = 1;
nodes = (
(420,742,l),
(542,888,l),
(480,888,l),
(377,742,l)
);
}
);
};
layerId = "BA8B9BDD-FBF5-4763-A7AD-14140821EFBD";
shapes = (
{
ref = E;
},
{
pos = (23,198);
ref = acutecomb;
}
);
width = 589;
},
{
background = {
shapes = (
{
closed = 1;
nodes = (
(496,0,l),
(509,74,l),
(139,74,l),
(180,308,l),
(520,308,l),
(533,380,l),
(193,380,l),
(230,594,l),
(600,594,l),
(613,668,l),
(157,668,l),
(40,0,l)
);
},
{
closed = 1;
nodes = (
(428,739,l),
(554,888,l),
(469,888,l),
(368,739,l)
);
}
);
};
layerId = "573A4E99-B1EA-4FCA-90B1-EE1ED57C0074";
shapes = (
{
ref = E;
},
{
pos = (24,198);
ref = acutecomb;
}
);
width = 593;
},
{
background = {
shapes = (
{
closed = 1;
nodes = (
(510,0,l),
(530,119,l),
(188,119,l),
(218,288,l),
(530,288,l),
(550,400,l),
(238,400,l),
(263,549,l),
(606,549,l),
(627,668,l),
(143,668,l),
(26,0,l)
);
},
{
closed = 1;
nodes = (
(444,732,l),
(579,888,l),
(445,888,l),
(350,732,l)
);
}
);
};
layerId = "261A487E-1CB1-41FD-8732-BC3F4489D58F";
shapes = (
{
ref = E;
},
{
pos = (23,198);
ref = acutecomb;
}
);
width = 600;
},
{
background = {
shapes = (
{
closed = 1;
nodes = (
(503,0,l),
(520,98,l),
(165,98,l),
(200,298,l),
(525,298,l),
(542,390,l),
(217,390,l),
(248,570,l),
(603,570,l),
(620,668,l),
(150,668,l),
(33,0,l)
);
},
{
closed = 1;
nodes = (
(436,735,l),
(567,888,l),
(456,888,l),
(358,735,l)
);
}
);
};
layerId = "ACFE83A5-3FD5-4916-9088-BF4CCAF0E845";
shapes = (
{
ref = E;
},
{
pos = (24,198);
ref = acutecomb;
}
);
width = 597;
},
{
background = {
shapes = (
{
closed = 1;
nodes = (
(482,0,l),
(487,30,l),
(91,30,l),
(144,329,l),
(510,329,l),
(515,359,l),
(149,359,l),
(198,638,l),
(594,638,l),
(599,668,l),
(171,668,l),
(54,0,l)
);
},
{
closed = 1;
nodes = (
(412,746,l),
(530,888,l),
(492,888,l),
(386,746,l)
);
}
);
};
layerId = "EA8306D6-B852-442A-A16D-2D86AE16EEA2";
shapes = (
{
ref = E;
},
{
pos = (23,198);
ref = acutecomb;
}
);
width = 586;
}
);
unicode = 201;
},
{
color = 10;
glyphname = Ecircumflex;
lastChange = "2022-05-20 09:41:26 +0000";
layers = (
{
background = {
shapes = (
{
closed = 1;
nodes = (
(516,0,l),
(540,140,l),
(211,140,l),
(235,279,l),
(535,279,l),
(558,409,l),
(259,409,l),
(279,528,l),
(609,528,l),
(633,668,l),
(137,668,l),
(20,0,l)
);
},
{
closed = 1;
nodes = (
(354,729,l),
(419,807,l),
(456,729,l),
(563,729,l),
(496,888,l),
(354,888,l),
(230,729,l)
);
}
);
};
layerId = "D2242EF2-33C7-49B0-8663-736078BD5B35";
shapes = (
{
ref = E;
},
{
pos = (38,198);
ref = circumflexcomb;
}
);
width = 603;
},
{
background = {
shapes = (
{
closed = 1;
nodes = (
(522,0,l),
(549,158,l),
(231,158,l),
(251,271,l),
(539,271,l),
(565,417,l),
(277,417,l),
(293,510,l),
(611,510,l),
(639,668,l),
(131,668,l),
(14,0,l)
);
},
{
closed = 1;
nodes = (
(361,726,l),
(418,797,l),
(449,726,l),
(570,726,l),
(505,888,l),
(345,888,l),
(222,726,l)
);
}
);
};
layerId = "EC4B77C1-E739-4B44-9572-0CFE97DCA064";
shapes = (
{
ref = E;
},
{
pos = (39,198);
ref = circumflexcomb;
}
);
width = 606;
},
{
background = {
shapes = (
{
closed = 1;
nodes = (
(489,0,l),
(498,52,l),
(115,52,l),
(162,318,l),
(515,318,l),
(524,369,l),
(171,369,l),
(214,616,l),
(597,616,l),
(606,668,l),
(164,668,l),
(47,0,l)
);
},
{
closed = 1;
nodes = (
(318,742,l),
(422,855,l),
(486,742,l),
(531,742,l),
(452,888,l),
(395,888,l),
(266,742,l)
);
}
);
};
layerId = "BA8B9BDD-FBF5-4763-A7AD-14140821EFBD";
shapes = (
{
ref = E;
},
{
pos = (32,198);
ref = circumflexcomb;
}
);
width = 589;
},
{
background = {
shapes = (
{
closed = 1;
nodes = (
(496,0,l),
(509,74,l),
(139,74,l),
(180,308,l),
(520,308,l),
(533,380,l),
(193,380,l),
(230,594,l),
(600,594,l),
(613,668,l),
(157,668,l),
(40,0,l)
);
},
{
closed = 1;
nodes = (
(327,739,l),
(421,843,l),
(479,739,l),
(539,739,l),
(463,888,l),
(385,888,l),
(257,739,l)
);
}
);
};
layerId = "573A4E99-B1EA-4FCA-90B1-EE1ED57C0074";
shapes = (
{
ref = E;
},
{
pos = (34,198);
ref = circumflexcomb;
}
);
width = 593;
},
{
background = {
shapes = (
{
closed = 1;
nodes = (
(510,0,l),
(530,119,l),
(188,119,l),
(218,288,l),
(530,288,l),
(550,400,l),
(238,400,l),
(263,549,l),
(606,549,l),
(627,668,l),
(143,668,l),
(26,0,l)
);
},
{
closed = 1;
nodes = (
(345,732,l),
(419,819,l),
(463,732,l),
(555,732,l),
(485,888,l),
(364,888,l),
(238,732,l)
);
}
);
};
layerId = "261A487E-1CB1-41FD-8732-BC3F4489D58F";
shapes = (
{
ref = E;
},
{
pos = (37,198);
ref = circumflexcomb;
}
);
width = 600;
},
{
background = {
shapes = (
{
closed = 1;
nodes = (
(503,0,l),
(520,98,l),
(165,98,l),
(200,298,l),
(525,298,l),
(542,390,l),
(217,390,l),
(248,570,l),
(603,570,l),
(620,668,l),
(150,668,l),
(33,0,l)
);
},
{
closed = 1;
nodes = (
(337,735,l),
(420,830,l),
(471,735,l),
(548,735,l),
(475,888,l),
(374,888,l),
(247,735,l)
);
}
);
};
layerId = "ACFE83A5-3FD5-4916-9088-BF4CCAF0E845";
shapes = (
{
ref = E;
},
{
pos = (35,198);
ref = circumflexcomb;
}
);
width = 597;
},
{
background = {
shapes = (
{
closed = 1;
nodes = (
(482,0,l),
(487,30,l),
(91,30,l),
(144,329,l),
(510,329,l),
(515,359,l),
(149,359,l),
(198,638,l),
(594,638,l),
(599,668,l),
(171,668,l),
(54,0,l)
);
},
{
closed = 1;
nodes = (
(310,746,l),
(423,867,l),
(494,746,l),
(523,746,l),
(442,888,l),
(406,888,l),
(275,746,l)
);
}
);
};
layerId = "EA8306D6-B852-442A-A16D-2D86AE16EEA2";
shapes = (
{
ref = E;
},
{
pos = (30,198);
ref = circumflexcomb;
}
);
width = 586;
}
);
unicode = 202;
},
{
color = 10;
glyphname = Edieresis;
lastChange = "2022-05-20 09:41:26 +0000";
layers = (
{
background = {
shapes = (
{
closed = 1;
nodes = (
(516,0,l),
(540,140,l),
(211,140,l),
(235,279,l),
(535,279,l),
(558,409,l),
(259,409,l),
(279,528,l),
(609,528,l),
(633,668,l),
(137,668,l),
(20,0,l)
);
},
{
closed = 1;
nodes = (
(350,737,o),
(384,770,o),
(384,818,cs),
(384,853,o),
(361,880,o),
(318,880,cs),
(267,880,o),
(233,847,o),
(233,799,cs),
(233,764,o),
(256,737,o),
(299,737,cs)
);
},
{
closed = 1;
nodes = (
(555,737,o),
(589,770,o),
(589,818,cs),
(589,853,o),
(566,880,o),
(523,880,cs),
(472,880,o),
(438,847,o),
(438,799,cs),
(438,764,o),
(461,737,o),
(504,737,cs)
);
}
);
};
layerId = "D2242EF2-33C7-49B0-8663-736078BD5B35";
shapes = (
{
ref = E;
},
{
pos = (38,198);
ref = dieresiscomb;
}
);
width = 603;
},
{
background = {
shapes = (
{
closed = 1;
nodes = (
(522,0,l),
(549,158,l),
(231,158,l),
(251,271,l),
(539,271,l),
(565,417,l),
(277,417,l),
(293,510,l),
(611,510,l),
(639,668,l),
(131,668,l),
(14,0,l)
);
},
{
closed = 1;
nodes = (
(352,728,o),
(390,763,o),
(390,818,cs),
(390,857,o),
(364,886,o),
(317,886,cs),
(260,886,o),
(222,851,o),
(222,796,cs),
(222,757,o),
(248,728,o),
(295,728,cs)
);
},
{
closed = 1;
nodes = (
(562,728,o),
(600,763,o),
(600,818,cs),
(600,857,o),
(574,886,o),
(527,886,cs),
(470,886,o),
(432,851,o),
(432,796,cs),
(432,757,o),
(458,728,o),
(505,728,cs)
);
}
);
};
layerId = "EC4B77C1-E739-4B44-9572-0CFE97DCA064";
shapes = (
{
ref = E;
},
{
pos = (39,198);
ref = dieresiscomb;
}
);
width = 606;
},
{
background = {
shapes = (
{
closed = 1;
nodes = (
(489,0,l),
(498,52,l),
(115,52,l),
(162,318,l),
(515,318,l),
(524,369,l),
(171,369,l),
(214,616,l),
(597,616,l),
(606,668,l),
(164,668,l),
(47,0,l)
);
},
{
closed = 1;
nodes = (
(340,782,o),
(355,797,o),
(355,818,cs),
(355,835,o),
(344,848,o),
(323,848,cs),
(300,848,o),
(285,835,o),
(285,812,cs),
(285,795,o),
(296,782,o),
(316,782,cs)
);
},
{
closed = 1;
nodes = (
(523,782,o),
(538,797,o),
(538,818,cs),
(538,835,o),
(527,848,o),
(506,848,cs),
(483,848,o),
(468,835,o),
(468,812,cs),
(468,795,o),
(479,782,o),
(499,782,cs)
);
}
);
};
layerId = "BA8B9BDD-FBF5-4763-A7AD-14140821EFBD";
shapes = (
{
ref = E;
},
{
pos = (32,198);
ref = dieresiscomb;
}
);
width = 589;
},
{
background = {
shapes = (
{
closed = 1;
nodes = (
(496,0,l),
(509,74,l),
(139,74,l),
(180,308,l),
(520,308,l),
(533,380,l),
(193,380,l),
(230,594,l),
(600,594,l),
(613,668,l),
(157,668,l),
(40,0,l)
);
},
{
closed = 1;
nodes = (
(344,770,o),
(363,790,o),
(363,818,cs),
(363,839,o),
(349,857,o),
(322,857,cs),
(291,857,o),
(271,838,o),
(271,809,cs),
(271,786,o),
(285,770,o),
(312,770,cs)
);
},
{
closed = 1;
nodes = (
(532,770,o),
(551,790,o),
(551,818,cs),
(551,839,o),
(537,857,o),
(510,857,cs),
(479,857,o),
(459,838,o),
(459,809,cs),
(459,786,o),
(473,770,o),
(500,770,cs)
);
}
);
};
layerId = "573A4E99-B1EA-4FCA-90B1-EE1ED57C0074";
shapes = (
{
ref = E;
},
{
pos = (33,198);
ref = dieresiscomb;
}
);
width = 593;
},
{
background = {
shapes = (
{
closed = 1;
nodes = (
(510,0,l),
(530,119,l),
(188,119,l),
(218,288,l),
(530,288,l),
(550,400,l),
(238,400,l),
(263,549,l),
(606,549,l),
(627,668,l),
(143,668,l),
(26,0,l)
);
},
{
closed = 1;
nodes = (
(348,748,o),
(377,775,o),
(377,818,cs),
(377,849,o),
(358,872,o),
(319,872,cs),
(275,872,o),
(245,845,o),
(245,802,cs),
(245,771,o),
(266,748,o),
(303,748,cs)
);
},
{
closed = 1;
nodes = (
(548,748,o),
(577,775,o),
(577,818,cs),
(577,849,o),
(558,872,o),
(519,872,cs),
(474,872,o),
(445,845,o),
(445,802,cs),
(445,771,o),
(466,748,o),
(503,748,cs)
);
}
);
};
layerId = "261A487E-1CB1-41FD-8732-BC3F4489D58F";
shapes = (
{
ref = E;
},
{
pos = (36,198);
ref = dieresiscomb;
}
);
width = 600;
},
{
background = {
shapes = (
{
closed = 1;
nodes = (
(503,0,l),
(520,98,l),
(165,98,l),
(200,298,l),
(525,298,l),
(542,390,l),
(217,390,l),
(248,570,l),
(603,570,l),
(620,668,l),
(150,668,l),
(33,0,l)
);
},
{
closed = 1;
nodes = (
(346,758,o),
(371,783,o),
(371,818,cs),
(371,845,o),
(353,865,o),
(321,865,cs),
(282,865,o),
(257,841,o),
(257,805,cs),
(257,778,o),
(276,758,o),
(307,758,cs)
);
},
{
closed = 1;
nodes = (
(540,758,o),
(565,783,o),
(565,818,cs),
(565,845,o),
(547,865,o),
(515,865,cs),
(476,865,o),
(451,841,o),
(451,805,cs),
(451,778,o),
(470,758,o),
(501,758,cs)
);
}
);
};
layerId = "ACFE83A5-3FD5-4916-9088-BF4CCAF0E845";
shapes = (
{
ref = E;
},
{
pos = (35,198);
ref = dieresiscomb;
}
);
width = 597;
},
{
background = {
shapes = (
{
closed = 1;
nodes = (
(482,0,l),
(487,30,l),
(91,30,l),
(144,329,l),
(510,329,l),
(515,359,l),
(149,359,l),
(198,638,l),
(594,638,l),
(599,668,l),
(171,668,l),
(54,0,l)
);
},
{
closed = 1;
nodes = (
(338,795,o),
(347,803,o),
(347,819,cs),
(347,832,o),
(340,839,o),
(325,839,cs),
(308,839,o),
(299,831,o),
(299,815,cs),
(299,802,o),
(306,795,o),
(321,795,cs)
);
},
{
closed = 1;
nodes = (
(516,795,o),
(525,803,o),
(525,819,cs),
(525,832,o),
(518,839,o),
(503,839,cs),
(486,839,o),
(477,831,o),
(477,815,cs),
(477,802,o),
(484,795,o),
(499,795,cs)
);
}
);
};
layerId = "EA8306D6-B852-442A-A16D-2D86AE16EEA2";
shapes = (
{
ref = E;
},
{
pos = (29,198);
ref = dieresiscomb;
}
);
width = 586;
}
);
unicode = 203;
},
{
color = 10;
glyphname = Egrave;
lastChange = "2022-05-20 09:41:26 +0000";
layers = (
{
background = {
shapes = (
{
closed = 1;
nodes = (
(516,0,l),
(540,140,l),
(211,140,l),
(235,279,l),
(535,279,l),
(558,409,l),
(259,409,l),
(279,528,l),
(609,528,l),
(633,668,l),
(137,668,l),
(20,0,l)
);
},
{
closed = 1;
nodes = (
(448,729,l),
(413,888,l),
(263,888,l),
(345,729,l)
);
}
);
};
layerId = "D2242EF2-33C7-49B0-8663-736078BD5B35";
shapes = (
{
ref = E;
},
{
pos = (53,198);
ref = gravecomb;
}
);
width = 603;
},
{
background = {
shapes = (
{
closed = 1;
nodes = (
(522,0,l),
(549,158,l),
(231,158,l),
(251,271,l),
(539,271,l),
(565,417,l),
(277,417,l),
(293,510,l),
(611,510,l),
(639,668,l),
(131,668,l),
(14,0,l)
);
},
{
closed = 1;
nodes = (
(454,726,l),
(423,888,l),
(253,888,l),
(338,726,l)
);
}
);
};
layerId = "EC4B77C1-E739-4B44-9572-0CFE97DCA064";
shapes = (
{
ref = E;
},
{
pos = (56,198);
ref = gravecomb;
}
);
width = 606;
},
{
background = {
shapes = (
{
closed = 1;
nodes = (
(489,0,l),
(498,52,l),
(115,52,l),
(162,318,l),
(515,318,l),
(524,369,l),
(171,369,l),
(214,616,l),
(597,616,l),
(606,668,l),
(164,668,l),
(47,0,l)
);
},
{
closed = 1;
nodes = (
(417,742,l),
(365,888,l),
(308,888,l),
(379,742,l)
);
}
);
};
layerId = "BA8B9BDD-FBF5-4763-A7AD-14140821EFBD";
shapes = (
{
ref = E;
},
{
pos = (40,198);
ref = gravecomb;
}
);
width = 589;
},
{
background = {
shapes = (
{
closed = 1;
nodes = (
(496,0,l),
(509,74,l),
(139,74,l),
(180,308,l),
(520,308,l),
(533,380,l),
(193,380,l),
(230,594,l),
(600,594,l),
(613,668,l),
(157,668,l),
(40,0,l)
);
},
{
closed = 1;
nodes = (
(425,739,l),
(377,888,l),
(297,888,l),
(371,739,l)
);
}
);
};
layerId = "573A4E99-B1EA-4FCA-90B1-EE1ED57C0074";
shapes = (
{
ref = E;
},
{
pos = (44,198);
ref = gravecomb;
}
);
width = 593;
},
{
background = {
shapes = (
{
closed = 1;
nodes = (
(510,0,l),
(530,119,l),
(188,119,l),
(218,288,l),
(530,288,l),
(550,400,l),
(238,400,l),
(263,549,l),
(606,549,l),
(627,668,l),
(143,668,l),
(26,0,l)
);
},
{
closed = 1;
nodes = (
(440,732,l),
(401,888,l),
(274,888,l),
(354,732,l)
);
}
);
};
layerId = "261A487E-1CB1-41FD-8732-BC3F4489D58F";
shapes = (
{
ref = E;
},
{
pos = (50,198);
ref = gravecomb;
}
);
width = 600;
},
{
background = {
shapes = (
{
closed = 1;
nodes = (
(503,0,l),
(520,98,l),
(165,98,l),
(200,298,l),
(525,298,l),
(542,390,l),
(217,390,l),
(248,570,l),
(603,570,l),
(620,668,l),
(150,668,l),
(33,0,l)
);
},
{
closed = 1;
nodes = (
(433,735,l),
(390,888,l),
(285,888,l),
(362,735,l)
);
}
);
};
layerId = "ACFE83A5-3FD5-4916-9088-BF4CCAF0E845";
shapes = (
{
ref = E;
},
{
pos = (47,198);
ref = gravecomb;
}
);
width = 597;
},
{
background = {
shapes = (
{
closed = 1;
nodes = (
(482,0,l),
(487,30,l),
(91,30,l),
(144,329,l),
(510,329,l),
(515,359,l),
(149,359,l),
(198,638,l),
(594,638,l),
(599,668,l),
(171,668,l),
(54,0,l)
);
},
{
closed = 1;
nodes = (
(410,746,l),
(354,888,l),
(320,888,l),
(388,746,l)
);
}
);
};
layerId = "EA8306D6-B852-442A-A16D-2D86AE16EEA2";
shapes = (
{
ref = E;
},
{
pos = (36,198);
ref = gravecomb;
}
);
width = 586;
}
);
unicode = 200;
},
{
color = 6;
glyphname = F;
lastChange = "2022-05-20 09:41:26 +0000";
layers = (
{
anchors = (
{
name = bottom;
pos = (256,0);
},
{
name = top;
pos = (373,668);
}
);
background = {
shapes = (
{
closed = 1;
nodes = (
(187,0,l),
(235,279,l),
(535,279,l),
(558,409,l),
(259,409,l),
(279,528,l),
(609,528,l),
(633,668,l),
(137,668,l),
(20,0,l)
);
}
);
};
layerId = "D2242EF2-33C7-49B0-8663-736078BD5B35";
shapes = (
{
closed = 1;
nodes = (
(187,0,l),
(235,279,l),
(535,279,l),
(558,409,l),
(259,409,l),
(279,528,l),
(609,528,l),
(633,668,l),
(137,668,l),
(20,0,l)
);
}
);
width = 593;
},
{
anchors = (
{
name = bottom;
pos = (257,0);
},
{
name = top;
pos = (374,668);
}
);
background = {
shapes = (
{
closed = 1;
nodes = (
(204,0,l),
(251,271,l),
(539,271,l),
(565,417,l),
(277,417,l),
(293,510,l),
(611,510,l),
(639,668,l),
(131,668,l),
(14,0,l)
);
}
);
};
layerId = "EC4B77C1-E739-4B44-9572-0CFE97DCA064";
shapes = (
{
closed = 1;
nodes = (
(204,0,l),
(251,271,l),
(539,271,l),
(565,417,l),
(277,417,l),
(293,510,l),
(611,510,l),
(639,668,l),
(131,668,l),
(14,0,l)
);
}
);
width = 596;
},
{
anchors = (
{
name = bottom;
pos = (249,0);
},
{
name = top;
pos = (366,668);
}
);
background = {
shapes = (
{
closed = 1;
nodes = (
(106,0,l),
(162,318,l),
(515,318,l),
(524,369,l),
(171,369,l),
(214,616,l),
(597,616,l),
(606,668,l),
(164,668,l),
(47,0,l)
);
}
);
};
layerId = "BA8B9BDD-FBF5-4763-A7AD-14140821EFBD";
shapes = (
{
closed = 1;
nodes = (
(106,0,l),
(162,318,l),
(515,318,l),
(524,369,l),
(171,369,l),
(214,616,l),
(597,616,l),
(606,668,l),
(164,668,l),
(47,0,l)
);
}
);
width = 579;
},
{
anchors = (
{
name = bottom;
pos = (251,0);
},
{
name = top;
pos = (368,668);
}
);
background = {
shapes = (
{
closed = 1;
nodes = (
(126,0,l),
(180,308,l),
(520,308,l),
(533,380,l),
(193,380,l),
(230,594,l),
(600,594,l),
(613,668,l),
(157,668,l),
(40,0,l)
);
}
);
};
layerId = "573A4E99-B1EA-4FCA-90B1-EE1ED57C0074";
shapes = (
{
closed = 1;
nodes = (
(126,0,l),
(180,308,l),
(520,308,l),
(533,380,l),
(193,380,l),
(230,594,l),
(600,594,l),
(613,668,l),
(157,668,l),
(40,0,l)
);
}
);
width = 583;
},
{
anchors = (
{
name = bottom;
pos = (254,0);
},
{
name = top;
pos = (371,668);
}
);
background = {
shapes = (
{
closed = 1;
nodes = (
(167,0,l),
(218,288,l),
(530,288,l),
(550,400,l),
(238,400,l),
(263,549,l),
(606,549,l),
(627,668,l),
(143,668,l),
(26,0,l)
);
}
);
};
layerId = "261A487E-1CB1-41FD-8732-BC3F4489D58F";
shapes = (
{
closed = 1;
nodes = (
(167,0,l),
(218,288,l),
(530,288,l),
(550,400,l),
(238,400,l),
(263,549,l),
(606,549,l),
(627,668,l),
(143,668,l),
(26,0,l)
);
}
);
width = 590;
},
{
anchors = (
{
name = bottom;
pos = (253,0);
},
{
name = top;
pos = (370,668);
}
);
background = {
shapes = (
{
closed = 1;
nodes = (
(148,0,l),
(200,298,l),
(525,298,l),
(542,390,l),
(217,390,l),
(248,570,l),
(603,570,l),
(620,668,l),
(150,668,l),
(33,0,l)
);
}
);
};
layerId = "ACFE83A5-3FD5-4916-9088-BF4CCAF0E845";
shapes = (
{
closed = 1;
nodes = (
(148,0,l),
(200,298,l),
(525,298,l),
(542,390,l),
(217,390,l),
(248,570,l),
(603,570,l),
(620,668,l),
(150,668,l),
(33,0,l)
);
}
);
width = 587;
},
{
anchors = (
{
name = bottom;
pos = (247,0);
},
{
name = top;
pos = (364,668);
}
);
background = {
shapes = (
{
closed = 1;
nodes = (
(86,0,l),
(144,329,l),
(510,329,l),
(515,359,l),
(149,359,l),
(198,638,l),
(594,638,l),
(599,668,l),
(171,668,l),
(54,0,l)
);
}
);
};
layerId = "EA8306D6-B852-442A-A16D-2D86AE16EEA2";
shapes = (
{
closed = 1;
nodes = (
(86,0,l),
(144,329,l),
(510,329,l),
(515,359,l),
(149,359,l),
(198,638,l),
(594,638,l),
(599,668,l),
(171,668,l),
(54,0,l)
);
}
);
width = 576;
}
);
unicode = 70;
},
{
color = 6;
glyphname = G;
kernLeft = _C1;
kernRight = _G;
lastChange = "2022-05-20 09:41:26 +0000";
layers = (
{
anchors = (
{
name = bottom;
pos = (324,0);
},
{
name = top;
pos = (441,668);
}
);
background = {
shapes = (
{
closed = 1;
nodes = (
(499,-10,o),
(598,40,o),
(665,109,c),
(714,389,l),
(406,389,l),
(384,261,l),
(525,261,l),
(510,178,l),
(477,153,o),
(434,135,o),
(378,135,cs),
(281,135,o),
(215,191,o),
(215,291,cs),
(215,439,o),
(310,533,o),
(434,533,cs),
(497,533,o),
(565,517,o),
(625,481,c),
(703,594,l),
(637,649,o),
(534,678,o),
(454,678,cs),
(211,678,o),
(46,526,o),
(46,286,cs),
(46,114,o),
(175,-10,o),
(358,-10,cs)
);
}
);
};
layerId = "D2242EF2-33C7-49B0-8663-736078BD5B35";
shapes = (
{
closed = 1;
nodes = (
(499,-10,o),
(598,40,o),
(665,109,c),
(714,389,l),
(406,389,l),
(384,261,l),
(525,261,l),
(510,178,l),
(477,153,o),
(434,135,o),
(378,135,cs),
(281,135,o),
(215,191,o),
(215,291,cs),
(215,439,o),
(310,533,o),
(434,533,cs),
(497,533,o),
(565,517,o),
(625,481,c),
(703,594,l),
(637,649,o),
(534,678,o),
(454,678,cs),
(211,678,o),
(46,526,o),
(46,286,cs),
(46,114,o),
(175,-10,o),
(358,-10,cs)
);
}
);
width = 730;
},
{
anchors = (
{
name = bottom;
pos = (324,0);
},
{
name = top;
pos = (441,668);
}
);
background = {
shapes = (
{
closed = 1;
nodes = (
(504,-10,o),
(607,43,o),
(671,110,c),
(721,396,l),
(407,396,l),
(382,254,l),
(506,254,l),
(495,189,l),
(466,169,o),
(430,154,o),
(382,154,cs),
(293,154,o),
(233,205,o),
(233,294,cs),
(233,429,o),
(318,514,o),
(430,514,cs),
(486,514,o),
(555,500,o),
(618,465,c),
(705,594,l),
(637,649,o),
(530,678,o),
(454,678,cs),
(209,678,o),
(41,525,o),
(41,288,cs),
(41,116,o),
(172,-10,o),
(358,-10,cs)
);
}
);
};
layerId = "EC4B77C1-E739-4B44-9572-0CFE97DCA064";
shapes = (
{
closed = 1;
nodes = (
(504,-10,o),
(607,43,o),
(671,110,c),
(721,396,l),
(407,396,l),
(382,254,l),
(506,254,l),
(495,189,l),
(466,169,o),
(430,154,o),
(382,154,cs),
(293,154,o),
(233,205,o),
(233,294,cs),
(233,429,o),
(318,514,o),
(430,514,cs),
(486,514,o),
(555,500,o),
(618,465,c),
(705,594,l),
(637,649,o),
(530,678,o),
(454,678,cs),
(209,678,o),
(41,525,o),
(41,288,cs),
(41,116,o),
(172,-10,o),
(358,-10,cs)
);
}
);
width = 730;
},
{
anchors = (
{
name = bottom;
pos = (324,0);
},
{
name = top;
pos = (441,668);
}
);
background = {
shapes = (
{
closed = 1;
nodes = (
(470,-10,o),
(565,27,o),
(636,103,c),
(680,351,l),
(399,351,l),
(390,298,l),
(612,298,l),
(583,130,l),
(530,77,o),
(455,43,o),
(359,43,cs),
(223,43,o),
(131,131,o),
(131,275,cs),
(131,494,o),
(265,625,o),
(452,625,cs),
(541,625,o),
(613,597,o),
(661,554,c),
(695,595,l),
(640,646,o),
(556,678,o),
(456,678,cs),
(231,678,o),
(71,521,o),
(71,274,cs),
(71,102,o),
(190,-10,o),
(355,-10,cs)
);
}
);
};
layerId = "BA8B9BDD-FBF5-4763-A7AD-14140821EFBD";
shapes = (
{
closed = 1;
nodes = (
(470,-10,o),
(565,27,o),
(636,103,c),
(680,351,l),
(399,351,l),
(390,298,l),
(612,298,l),
(583,130,l),
(530,77,o),
(455,43,o),
(359,43,cs),
(223,43,o),
(131,131,o),
(131,275,cs),
(131,494,o),
(265,625,o),
(452,625,cs),
(541,625,o),
(613,597,o),
(661,554,c),
(695,595,l),
(640,646,o),
(556,678,o),
(456,678,cs),
(231,678,o),
(71,521,o),
(71,274,cs),
(71,102,o),
(190,-10,o),
(355,-10,cs)
);
}
);
width = 730;
},
{
anchors = (
{
name = bottom;
pos = (324,0);
},
{
name = top;
pos = (441,668);
}
);
background = {
shapes = (
{
closed = 1;
nodes = (
(477,-10,o),
(574,31,o),
(643,104,c),
(689,363,l),
(402,363,l),
(389,287,l),
(591,287,l),
(565,141,l),
(516,96,o),
(451,66,o),
(364,66,cs),
(239,66,o),
(152,146,o),
(152,279,cs),
(152,480,o),
(276,602,o),
(448,602,cs),
(531,602,o),
(601,577,o),
(652,536,c),
(697,595,l),
(640,647,o),
(551,678,o),
(456,678,cs),
(226,678,o),
(65,523,o),
(65,277,cs),
(65,105,o),
(187,-10,o),
(356,-10,cs)
);
}
);
};
layerId = "573A4E99-B1EA-4FCA-90B1-EE1ED57C0074";
shapes = (
{
closed = 1;
nodes = (
(477,-10,o),
(574,31,o),
(643,104,c),
(689,363,l),
(402,363,l),
(389,287,l),
(591,287,l),
(565,141,l),
(516,96,o),
(451,66,o),
(364,66,cs),
(239,66,o),
(152,146,o),
(152,279,cs),
(152,480,o),
(276,602,o),
(448,602,cs),
(531,602,o),
(601,577,o),
(652,536,c),
(697,595,l),
(640,647,o),
(551,678,o),
(456,678,cs),
(226,678,o),
(65,523,o),
(65,277,cs),
(65,105,o),
(187,-10,o),
(356,-10,cs)
);
}
);
width = 730;
},
{
anchors = (
{
name = bottom;
pos = (324,0);
},
{
name = top;
pos = (441,668);
}
);
background = {
shapes = (
{
closed = 1;
nodes = (
(492,-10,o),
(590,36,o),
(658,107,c),
(706,380,l),
(405,380,l),
(385,270,l),
(546,270,l),
(528,166,l),
(489,135,o),
(439,113,o),
(374,113,cs),
(266,113,o),
(195,176,o),
(195,287,cs),
(195,453,o),
(299,555,o),
(438,555,cs),
(507,555,o),
(578,537,o),
(634,498,c),
(701,594,l),
(638,649,o),
(539,678,o),
(455,678,cs),
(216,678,o),
(52,523,o),
(52,283,cs),
(52,111,o),
(178,-10,o),
(357,-10,cs)
);
}
);
};
layerId = "261A487E-1CB1-41FD-8732-BC3F4489D58F";
shapes = (
{
closed = 1;
nodes = (
(492,-10,o),
(590,36,o),
(658,107,c),
(706,380,l),
(405,380,l),
(385,270,l),
(546,270,l),
(528,166,l),
(489,135,o),
(439,113,o),
(374,113,cs),
(266,113,o),
(195,176,o),
(195,287,cs),
(195,453,o),
(299,555,o),
(438,555,cs),
(507,555,o),
(578,537,o),
(634,498,c),
(701,594,l),
(638,649,o),
(539,678,o),
(455,678,cs),
(216,678,o),
(52,523,o),
(52,283,cs),
(52,111,o),
(178,-10,o),
(357,-10,cs)
);
}
);
width = 730;
},
{
anchors = (
{
name = bottom;
pos = (324,0);
},
{
name = top;
pos = (441,668);
}
);
background = {
shapes = (
{
closed = 1;
nodes = (
(485,-10,o),
(583,34,o),
(651,106,c),
(698,372,l),
(403,372,l),
(387,278,l),
(567,278,l),
(545,154,l),
(502,115,o),
(445,91,o),
(369,91,cs),
(253,91,o),
(175,163,o),
(175,283,cs),
(175,467,o),
(288,577,o),
(443,577,cs),
(519,577,o),
(589,555,o),
(642,516,c),
(699,595,l),
(639,648,o),
(544,678,o),
(455,678,cs),
(220,678,o),
(58,524,o),
(58,280,cs),
(58,108,o),
(183,-10,o),
(357,-10,cs)
);
}
);
};
layerId = "ACFE83A5-3FD5-4916-9088-BF4CCAF0E845";
shapes = (
{
closed = 1;
nodes = (
(485,-10,o),
(583,34,o),
(651,106,c),
(698,372,l),
(403,372,l),
(387,278,l),
(567,278,l),
(545,154,l),
(502,115,o),
(445,91,o),
(369,91,cs),
(253,91,o),
(175,163,o),
(175,283,cs),
(175,467,o),
(288,577,o),
(443,577,cs),
(519,577,o),
(589,555,o),
(642,516,c),
(699,595,l),
(639,648,o),
(544,678,o),
(455,678,cs),
(220,678,o),
(58,524,o),
(58,280,cs),
(58,108,o),
(183,-10,o),
(357,-10,cs)
);
}
);
width = 730;
},
{
anchors = (
{
name = bottom;
pos = (324,0);
},
{
name = top;
pos = (441,668);
}
);
background = {
shapes = (
{
closed = 1;
nodes = (
(463,-10,o),
(557,26,o),
(629,102,c),
(671,340,l),
(397,340,l),
(392,310,l),
(634,310,l),
(601,119,l),
(544,58,o),
(460,20,o),
(355,20,cs),
(210,20,o),
(111,116,o),
(111,272,cs),
(111,508,o),
(257,648,o),
(457,648,cs),
(553,648,o),
(625,616,o),
(670,572,c),
(693,595,l),
(642,646,o),
(561,678,o),
(457,678,cs),
(237,678,o),
(77,522,o),
(77,272,cs),
(77,100,o),
(195,-10,o),
(355,-10,cs)
);
}
);
};
layerId = "EA8306D6-B852-442A-A16D-2D86AE16EEA2";
shapes = (
{
closed = 1;
nodes = (
(463,-10,o),
(557,26,o),
(629,102,c),
(671,340,l),
(397,340,l),
(392,310,l),
(634,310,l),
(601,119,l),
(544,58,o),
(460,20,o),
(355,20,cs),
(210,20,o),
(111,116,o),
(111,272,cs),
(111,508,o),
(257,648,o),
(457,648,cs),
(553,648,o),
(625,616,o),
(670,572,c),
(693,595,l),
(642,646,o),
(561,678,o),
(457,678,cs),
(237,678,o),
(77,522,o),
(77,272,cs),
(77,100,o),
(195,-10,o),
(355,-10,cs)
);
}
);
width = 730;
}
);
unicode = 71;
},
{
color = 6;
glyphname = H;
lastChange = "2022-05-20 09:41:26 +0000";
layers = (
{
anchors = (
{
name = bottom;
pos = (319,0);
},
{
name = center;
pos = (377,334);
},
{
name = top;
pos = (436,668);
},
{
name = topleft;
pos = (96,668);
}
);
background = {
shapes = (
{
closed = 1;
nodes = (
(187,0,l),
(235,272,l),
(497,272,l),
(449,0,l),
(616,0,l),
(733,668,l),
(566,668,l),
(522,416,l),
(260,416,l),
(304,668,l),
(137,668,l),
(20,0,l)
);
}
);
};
layerId = "D2242EF2-33C7-49B0-8663-736078BD5B35";
shapes = (
{
closed = 1;
nodes = (
(187,0,l),
(235,272,l),
(497,272,l),
(449,0,l),
(616,0,l),
(733,668,l),
(566,668,l),
(522,416,l),
(260,416,l),
(304,668,l),
(137,668,l),
(20,0,l)
);
}
);
width = 720;
},
{
anchors = (
{
name = bottom;
pos = (319,0);
},
{
name = center;
pos = (377,334);
},
{
name = top;
pos = (436,668);
},
{
name = topleft;
pos = (96,668);
}
);
background = {
shapes = (
{
closed = 1;
nodes = (
(204,0,l),
(250,262,l),
(478,262,l),
(432,0,l),
(622,0,l),
(739,668,l),
(549,668,l),
(507,426,l),
(279,426,l),
(321,668,l),
(131,668,l),
(14,0,l)
);
}
);
};
layerId = "EC4B77C1-E739-4B44-9572-0CFE97DCA064";
shapes = (
{
closed = 1;
nodes = (
(204,0,l),
(250,262,l),
(478,262,l),
(432,0,l),
(622,0,l),
(739,668,l),
(549,668,l),
(507,426,l),
(279,426,l),
(321,668,l),
(131,668,l),
(14,0,l)
);
}
);
width = 720;
},
{
anchors = (
{
name = bottom;
pos = (319,0);
},
{
name = center;
pos = (377,334);
},
{
name = top;
pos = (436,668);
},
{
name = topleft;
pos = (96,668);
}
);
background = {
shapes = (
{
closed = 1;
nodes = (
(106,0,l),
(162,317,l),
(586,317,l),
(530,0,l),
(589,0,l),
(706,668,l),
(647,668,l),
(595,370,l),
(171,370,l),
(223,668,l),
(164,668,l),
(47,0,l)
);
}
);
};
layerId = "BA8B9BDD-FBF5-4763-A7AD-14140821EFBD";
shapes = (
{
closed = 1;
nodes = (
(106,0,l),
(162,317,l),
(586,317,l),
(530,0,l),
(589,0,l),
(706,668,l),
(647,668,l),
(595,370,l),
(171,370,l),
(223,668,l),
(164,668,l),
(47,0,l)
);
}
);
width = 720;
},
{
anchors = (
{
name = bottom;
pos = (319,0);
},
{
name = center;
pos = (377,334);
},
{
name = top;
pos = (436,668);
},
{
name = topleft;
pos = (96,668);
}
);
background = {
shapes = (
{
closed = 1;
nodes = (
(126,0,l),
(180,306,l),
(564,306,l),
(510,0,l),
(596,0,l),
(713,668,l),
(627,668,l),
(577,382,l),
(193,382,l),
(243,668,l),
(157,668,l),
(40,0,l)
);
}
);
};
layerId = "573A4E99-B1EA-4FCA-90B1-EE1ED57C0074";
shapes = (
{
closed = 1;
nodes = (
(126,0,l),
(180,306,l),
(564,306,l),
(510,0,l),
(596,0,l),
(713,668,l),
(627,668,l),
(577,382,l),
(193,382,l),
(243,668,l),
(157,668,l),
(40,0,l)
);
}
);
width = 720;
},
{
anchors = (
{
name = bottom;
pos = (319,0);
},
{
name = center;
pos = (377,334);
},
{
name = top;
pos = (436,668);
},
{
name = topleft;
pos = (96,668);
}
);
background = {
shapes = (
{
closed = 1;
nodes = (
(167,0,l),
(217,283,l),
(518,283,l),
(469,0,l),
(610,0,l),
(727,668,l),
(586,668,l),
(540,405,l),
(239,405,l),
(284,668,l),
(143,668,l),
(26,0,l)
);
}
);
};
layerId = "261A487E-1CB1-41FD-8732-BC3F4489D58F";
shapes = (
{
closed = 1;
nodes = (
(167,0,l),
(217,283,l),
(518,283,l),
(469,0,l),
(610,0,l),
(727,668,l),
(586,668,l),
(540,405,l),
(239,405,l),
(284,668,l),
(143,668,l),
(26,0,l)
);
}
);
width = 720;
},
{
anchors = (
{
name = bottom;
pos = (319,0);
},
{
name = center;
pos = (377,334);
},
{
name = top;
pos = (436,668);
},
{
name = topleft;
pos = (96,668);
}
);
background = {
shapes = (
{
closed = 1;
nodes = (
(148,0,l),
(200,294,l),
(540,294,l),
(488,0,l),
(603,0,l),
(720,668,l),
(605,668,l),
(557,394,l),
(217,394,l),
(265,668,l),
(150,668,l),
(33,0,l)
);
}
);
};
layerId = "ACFE83A5-3FD5-4916-9088-BF4CCAF0E845";
shapes = (
{
closed = 1;
nodes = (
(148,0,l),
(200,294,l),
(540,294,l),
(488,0,l),
(603,0,l),
(720,668,l),
(605,668,l),
(557,394,l),
(217,394,l),
(265,668,l),
(150,668,l),
(33,0,l)
);
}
);
width = 720;
},
{
anchors = (
{
name = bottom;
pos = (319,0);
},
{
name = center;
pos = (377,334);
},
{
name = top;
pos = (436,668);
},
{
name = topleft;
pos = (96,668);
}
);
background = {
shapes = (
{
closed = 1;
nodes = (
(86,0,l),
(144,329,l),
(608,329,l),
(550,0,l),
(582,0,l),
(699,668,l),
(667,668,l),
(613,359,l),
(149,359,l),
(203,668,l),
(171,668,l),
(54,0,l)
);
}
);
};
layerId = "EA8306D6-B852-442A-A16D-2D86AE16EEA2";
shapes = (
{
closed = 1;
nodes = (
(86,0,l),
(144,329,l),
(608,329,l),
(550,0,l),
(582,0,l),
(699,668,l),
(667,668,l),
(613,359,l),
(149,359,l),
(203,668,l),
(171,668,l),
(54,0,l)
);
}
);
width = 720;
}
);
unicode = 72;
},
{
color = 6;
glyphname = Hbar;
lastChange = "2022-05-20 09:41:26 +0000";
layers = (
{
anchors = (
{
name = bottom;
pos = (319,0);
},
{
name = center;
pos = (377,334);
},
{
name = top;
pos = (436,668);
},
{
name = topleft;
pos = (96,668);
}
);
layerId = "EA8306D6-B852-442A-A16D-2D86AE16EEA2";
shapes = (
{
closed = 1;
nodes = (
(86,0,l),
(144,329,l),
(608,329,l),
(550,0,l),
(582,0,l),
(699,668,l),
(667,668,l),
(613,359,l),
(149,359,l),
(203,668,l),
(171,668,l),
(54,0,l)
);
},
{
closed = 1;
nodes = (
(743,529,l),
(79,529,l),
(74,499,l),
(738,499,l)
);
}
);
width = 720;
},
{
anchors = (
{
name = bottom;
pos = (319,0);
},
{
name = center;
pos = (377,334);
},
{
name = top;
pos = (436,668);
},
{
name = topleft;
pos = (96,668);
}
);
layerId = "BA8B9BDD-FBF5-4763-A7AD-14140821EFBD";
shapes = (
{
closed = 1;
nodes = (
(106,0,l),
(162,317,l),
(586,317,l),
(530,0,l),
(589,0,l),
(706,668,l),
(647,668,l),
(595,370,l),
(171,370,l),
(223,668,l),
(164,668,l),
(47,0,l)
);
},
{
closed = 1;
nodes = (
(81,487,l),
(725,487,l),
(734,540,l),
(90,540,l)
);
}
);
width = 720;
},
{
anchors = (
{
name = bottom;
pos = (319,0);
},
{
name = center;
pos = (377,334);
},
{
name = top;
pos = (436,668);
},
{
name = topleft;
pos = (96,668);
}
);
layerId = "573A4E99-B1EA-4FCA-90B1-EE1ED57C0074";
shapes = (
{
closed = 1;
nodes = (
(126,0,l),
(180,306,l),
(564,306,l),
(510,0,l),
(596,0,l),
(713,668,l),
(627,668,l),
(577,382,l),
(193,382,l),
(243,668,l),
(157,668,l),
(40,0,l)
);
},
{
closed = 1;
nodes = (
(68,486,l),
(732,486,l),
(745,562,l),
(81,562,l)
);
}
);
width = 720;
},
{
anchors = (
{
name = bottom;
pos = (319,0);
},
{
name = center;
pos = (377,334);
},
{
name = top;
pos = (436,668);
},
{
name = topleft;
pos = (96,668);
}
);
layerId = "ACFE83A5-3FD5-4916-9088-BF4CCAF0E845";
shapes = (
{
closed = 1;
nodes = (
(148,0,l),
(200,294,l),
(540,294,l),
(488,0,l),
(603,0,l),
(720,668,l),
(605,668,l),
(557,394,l),
(217,394,l),
(265,668,l),
(150,668,l),
(33,0,l)
);
},
{
closed = 1;
nodes = (
(61,474,l),
(741,474,l),
(759,574,l),
(79,574,l)
);
}
);
width = 720;
},
{
anchors = (
{
name = bottom;
pos = (319,0);
},
{
name = center;
pos = (377,334);
},
{
name = top;
pos = (436,668);
},
{
name = topleft;
pos = (96,668);
}
);
layerId = "261A487E-1CB1-41FD-8732-BC3F4489D58F";
shapes = (
{
closed = 1;
nodes = (
(167,0,l),
(217,283,l),
(518,283,l),
(469,0,l),
(610,0,l),
(727,668,l),
(586,668,l),
(540,405,l),
(239,405,l),
(284,668,l),
(143,668,l),
(26,0,l)
);
},
{
closed = 1;
nodes = (
(772,595,l),
(70,595,l),
(49,473,l),
(751,473,l)
);
}
);
width = 720;
},
{
anchors = (
{
name = bottom;
pos = (319,0);
},
{
name = center;
pos = (377,334);
},
{
name = top;
pos = (436,668);
},
{
name = topleft;
pos = (96,668);
}
);
layerId = "D2242EF2-33C7-49B0-8663-736078BD5B35";
shapes = (
{
closed = 1;
nodes = (
(187,0,l),
(235,272,l),
(497,272,l),
(449,0,l),
(616,0,l),
(733,668,l),
(566,668,l),
(522,416,l),
(260,416,l),
(304,668,l),
(137,668,l),
(20,0,l)
);
},
{
closed = 1;
nodes = (
(42,472,l),
(764,472,l),
(789,616,l),
(67,616,l)
);
}
);
width = 720;
},
{
anchors = (
{
name = bottom;
pos = (319,0);
},
{
name = center;
pos = (377,334);
},
{
name = top;
pos = (436,668);
},
{
name = topleft;
pos = (96,668);
}
);
layerId = "EC4B77C1-E739-4B44-9572-0CFE97DCA064";
shapes = (
{
closed = 1;
nodes = (
(204,0,l),
(250,262,l),
(478,262,l),
(432,0,l),
(622,0,l),
(739,668,l),
(549,668,l),
(507,426,l),
(279,426,l),
(321,668,l),
(131,668,l),
(14,0,l)
);
},
{
closed = 1;
nodes = (
(12,480,l),
(780,480,l),
(804,624,l),
(36,624,l)
);
}
);
width = 754;
}
);
unicode = 294;
},
{
color = 6;
glyphname = I;
lastChange = "2022-05-20 09:41:26 +0000";
layers = (
{
anchors = (
{
name = bottom;
pos = (105,0);
},
{
name = ogonek;
pos = (187,0);
},
{
name = top;
pos = (222,668);
},
{
name = topleft;
pos = (96,668);
}
);
background = {
shapes = (
{
closed = 1;
nodes = (
(187,0,l),
(304,668,l),
(137,668,l),
(20,0,l)
);
}
);
};
layerId = "D2242EF2-33C7-49B0-8663-736078BD5B35";
shapes = (
{
closed = 1;
nodes = (
(187,0,l),
(304,668,l),
(137,668,l),
(20,0,l)
);
}
);
width = 291;
},
{
anchors = (
{
name = bottom;
pos = (110,0);
},
{
name = ogonek;
pos = (204,0);
},
{
name = top;
pos = (227,668);
},
{
name = topleft;
pos = (96,668);
}
);
background = {
shapes = (
{
closed = 1;
nodes = (
(204,0,l),
(321,668,l),
(131,668,l),
(14,0,l)
);
}
);
};
layerId = "EC4B77C1-E739-4B44-9572-0CFE97DCA064";
shapes = (
{
closed = 1;
nodes = (
(204,0,l),
(321,668,l),
(131,668,l),
(14,0,l)
);
}
);
width = 302;
},
{
anchors = (
{
name = bottom;
pos = (78,0);
},
{
name = ogonek;
pos = (106,0);
},
{
name = top;
pos = (195,668);
},
{
name = topleft;
pos = (96,668);
}
);
background = {
shapes = (
{
closed = 1;
nodes = (
(106,0,l),
(223,668,l),
(164,668,l),
(47,0,l)
);
}
);
};
layerId = "BA8B9BDD-FBF5-4763-A7AD-14140821EFBD";
shapes = (
{
closed = 1;
nodes = (
(106,0,l),
(223,668,l),
(164,668,l),
(47,0,l)
);
}
);
width = 237;
},
{
anchors = (
{
name = bottom;
pos = (85,0);
},
{
name = ogonek;
pos = (126,0);
},
{
name = top;
pos = (202,668);
},
{
name = topleft;
pos = (96,668);
}
);
background = {
shapes = (
{
closed = 1;
nodes = (
(126,0,l),
(243,668,l),
(157,668,l),
(40,0,l)
);
}
);
};
layerId = "573A4E99-B1EA-4FCA-90B1-EE1ED57C0074";
shapes = (
{
closed = 1;
nodes = (
(126,0,l),
(243,668,l),
(157,668,l),
(40,0,l)
);
}
);
width = 251;
},
{
anchors = (
{
name = bottom;
pos = (98,0);
},
{
name = ogonek;
pos = (167,0);
},
{
name = top;
pos = (215,668);
},
{
name = topleft;
pos = (96,668);
}
);
background = {
shapes = (
{
closed = 1;
nodes = (
(167,0,l),
(284,668,l),
(143,668,l),
(26,0,l)
);
}
);
};
layerId = "261A487E-1CB1-41FD-8732-BC3F4489D58F";
shapes = (
{
closed = 1;
nodes = (
(167,0,l),
(284,668,l),
(143,668,l),
(26,0,l)
);
}
);
width = 278;
},
{
anchors = (
{
name = bottom;
pos = (92,0);
},
{
name = ogonek;
pos = (148,0);
},
{
name = top;
pos = (209,668);
},
{
name = topleft;
pos = (96,668);
}
);
background = {
shapes = (
{
closed = 1;
nodes = (
(148,0,l),
(265,668,l),
(150,668,l),
(33,0,l)
);
}
);
};
layerId = "ACFE83A5-3FD5-4916-9088-BF4CCAF0E845";
shapes = (
{
closed = 1;
nodes = (
(148,0,l),
(265,668,l),
(150,668,l),
(33,0,l)
);
}
);
width = 265;
},
{
anchors = (
{
name = bottom;
pos = (71,0);
},
{
name = ogonek;
pos = (86,0);
},
{
name = top;
pos = (188,668);
},
{
name = topleft;
pos = (96,668);
}
);
background = {
shapes = (
{
closed = 1;
nodes = (
(86,0,l),
(203,668,l),
(171,668,l),
(54,0,l)
);
}
);
};
layerId = "EA8306D6-B852-442A-A16D-2D86AE16EEA2";
shapes = (
{
closed = 1;
nodes = (
(86,0,l),
(203,668,l),
(171,668,l),
(54,0,l)
);
}
);
width = 224;
}
);
unicode = 73;
},
{
color = 10;
glyphname = Iacute;
lastChange = "2022-05-20 09:41:26 +0000";
layers = (
{
background = {
shapes = (
{
closed = 1;
nodes = (
(187,0,l),
(304,668,l),
(137,668,l),
(20,0,l)
);
},
{
closed = 1;
nodes = (
(287,729,l),
(426,888,l),
(268,888,l),
(177,729,l)
);
}
);
};
layerId = "D2242EF2-33C7-49B0-8663-736078BD5B35";
shapes = (
{
ref = I;
},
{
pos = (-133,198);
ref = acutecomb;
}
);
width = 291;
},
{
background = {
shapes = (
{
closed = 1;
nodes = (
(204,0,l),
(321,668,l),
(131,668,l),
(14,0,l)
);
},
{
closed = 1;
nodes = (
(299,726,l),
(442,888,l),
(264,888,l),
(175,726,l)
);
}
);
};
layerId = "EC4B77C1-E739-4B44-9572-0CFE97DCA064";
shapes = (
{
ref = I;
},
{
pos = (-130,198);
ref = acutecomb;
}
);
width = 302;
},
{
background = {
shapes = (
{
closed = 1;
nodes = (
(106,0,l),
(223,668,l),
(164,668,l),
(47,0,l)
);
},
{
closed = 1;
nodes = (
(228,742,l),
(350,888,l),
(289,888,l),
(186,742,l)
);
}
);
};
layerId = "BA8B9BDD-FBF5-4763-A7AD-14140821EFBD";
shapes = (
{
ref = I;
},
{
pos = (-153,198);
ref = acutecomb;
}
);
width = 237;
},
{
background = {
shapes = (
{
closed = 1;
nodes = (
(126,0,l),
(243,668,l),
(157,668,l),
(40,0,l)
);
},
{
closed = 1;
nodes = (
(243,739,l),
(369,888,l),
(284,888,l),
(184,739,l)
);
}
);
};
layerId = "573A4E99-B1EA-4FCA-90B1-EE1ED57C0074";
shapes = (
{
ref = I;
},
{
pos = (-147,198);
ref = acutecomb;
}
);
width = 251;
},
{
background = {
shapes = (
{
closed = 1;
nodes = (
(167,0,l),
(284,668,l),
(143,668,l),
(26,0,l)
);
},
{
closed = 1;
nodes = (
(273,732,l),
(408,888,l),
(273,888,l),
(179,732,l)
);
}
);
};
layerId = "261A487E-1CB1-41FD-8732-BC3F4489D58F";
shapes = (
{
ref = I;
},
{
pos = (-138,198);
ref = acutecomb;
}
);
width = 278;
},
{
background = {
shapes = (
{
closed = 1;
nodes = (
(148,0,l),
(265,668,l),
(150,668,l),
(33,0,l)
);
},
{
closed = 1;
nodes = (
(259,735,l),
(389,888,l),
(278,888,l),
(181,735,l)
);
}
);
};
layerId = "ACFE83A5-3FD5-4916-9088-BF4CCAF0E845";
shapes = (
{
ref = I;
},
{
pos = (-142,198);
ref = acutecomb;
}
);
width = 265;
},
{
background = {
shapes = (
{
closed = 1;
nodes = (
(86,0,l),
(203,668,l),
(171,668,l),
(54,0,l)
);
},
{
closed = 1;
nodes = (
(214,746,l),
(332,888,l),
(294,888,l),
(188,746,l)
);
}
);
};
layerId = "EA8306D6-B852-442A-A16D-2D86AE16EEA2";
shapes = (
{
ref = I;
},
{
pos = (-158,198);
ref = acutecomb;
}
);
width = 224;
}
);
unicode = 205;
},
{
color = 10;
glyphname = Icircumflex;
lastChange = "2022-05-20 09:41:26 +0000";
layers = (
{
background = {
shapes = (
{
closed = 1;
nodes = (
(187,0,l),
(304,668,l),
(137,668,l),
(20,0,l)
);
},
{
closed = 1;
nodes = (
(189,729,l),
(254,807,l),
(291,729,l),
(398,729,l),
(331,888,l),
(189,888,l),
(65,729,l)
);
}
);
};
layerId = "D2242EF2-33C7-49B0-8663-736078BD5B35";
shapes = (
{
ref = I;
},
{
pos = (-118,198);
ref = circumflexcomb;
}
);
width = 291;
},
{
background = {
shapes = (
{
closed = 1;
nodes = (
(204,0,l),
(321,668,l),
(131,668,l),
(14,0,l)
);
},
{
closed = 1;
nodes = (
(202,726,l),
(259,797,l),
(290,726,l),
(411,726,l),
(346,888,l),
(186,888,l),
(63,726,l)
);
}
);
};
layerId = "EC4B77C1-E739-4B44-9572-0CFE97DCA064";
shapes = (
{
ref = I;
},
{
pos = (-113,198);
ref = circumflexcomb;
}
);
width = 302;
},
{
background = {
shapes = (
{
closed = 1;
nodes = (
(106,0,l),
(223,668,l),
(164,668,l),
(47,0,l)
);
},
{
closed = 1;
nodes = (
(127,742,l),
(231,855,l),
(295,742,l),
(339,742,l),
(261,888,l),
(204,888,l),
(74,742,l)
);
}
);
};
layerId = "BA8B9BDD-FBF5-4763-A7AD-14140821EFBD";
shapes = (
{
ref = I;
},
{
pos = (-144,198);
ref = circumflexcomb;
}
);
width = 237;
},
{
background = {
shapes = (
{
closed = 1;
nodes = (
(126,0,l),
(243,668,l),
(157,668,l),
(40,0,l)
);
},
{
closed = 1;
nodes = (
(143,739,l),
(237,843,l),
(294,739,l),
(354,739,l),
(279,888,l),
(201,888,l),
(72,739,l)
);
}
);
};
layerId = "573A4E99-B1EA-4FCA-90B1-EE1ED57C0074";
shapes = (
{
ref = I;
},
{
pos = (-137,198);
ref = circumflexcomb;
}
);
width = 251;
},
{
background = {
shapes = (
{
closed = 1;
nodes = (
(167,0,l),
(284,668,l),
(143,668,l),
(26,0,l)
);
},
{
closed = 1;
nodes = (
(174,732,l),
(249,819,l),
(292,732,l),
(384,732,l),
(315,888,l),
(193,888,l),
(67,732,l)
);
}
);
};
layerId = "261A487E-1CB1-41FD-8732-BC3F4489D58F";
shapes = (
{
ref = I;
},
{
pos = (-124,198);
ref = circumflexcomb;
}
);
width = 278;
},
{
background = {
shapes = (
{
closed = 1;
nodes = (
(148,0,l),
(265,668,l),
(150,668,l),
(33,0,l)
);
},
{
closed = 1;
nodes = (
(160,735,l),
(243,830,l),
(293,735,l),
(370,735,l),
(298,888,l),
(197,888,l),
(69,735,l)
);
}
);
};
layerId = "ACFE83A5-3FD5-4916-9088-BF4CCAF0E845";
shapes = (
{
ref = I;
},
{
pos = (-131,198);
ref = circumflexcomb;
}
);
width = 265;
},
{
background = {
shapes = (
{
closed = 1;
nodes = (
(86,0,l),
(203,668,l),
(171,668,l),
(54,0,l)
);
},
{
closed = 1;
nodes = (
(112,746,l),
(225,867,l),
(296,746,l),
(325,746,l),
(244,888,l),
(208,888,l),
(77,746,l)
);
}
);
};
layerId = "EA8306D6-B852-442A-A16D-2D86AE16EEA2";
shapes = (
{
ref = I;
},
{
pos = (-151,198);
ref = circumflexcomb;
}
);
width = 224;
}
);
unicode = 206;
},
{
color = 10;
glyphname = Idieresis;
lastChange = "2022-05-20 09:41:26 +0000";
layers = (
{
background = {
shapes = (
{
closed = 1;
nodes = (
(187,0,l),
(304,668,l),
(137,668,l),
(20,0,l)
);
},
{
closed = 1;
nodes = (
(186,737,o),
(220,770,o),
(220,818,cs),
(220,853,o),
(197,880,o),
(154,880,cs),
(102,880,o),
(68,847,o),
(68,799,cs),
(68,764,o),
(93,737,o),
(134,737,cs)
);
},
{
closed = 1;
nodes = (
(391,737,o),
(425,770,o),
(425,818,cs),
(425,853,o),
(402,880,o),
(359,880,cs),
(307,880,o),
(273,847,o),
(273,799,cs),
(273,764,o),
(298,737,o),
(339,737,cs)
);
}
);
};
layerId = "D2242EF2-33C7-49B0-8663-736078BD5B35";
shapes = (
{
ref = I;
},
{
pos = (-118,198);
ref = dieresiscomb;
}
);
width = 291;
},
{
background = {
shapes = (
{
closed = 1;
nodes = (
(204,0,l),
(321,668,l),
(131,668,l),
(14,0,l)
);
},
{
closed = 1;
nodes = (
(193,728,o),
(231,763,o),
(231,818,cs),
(231,857,o),
(205,886,o),
(158,886,cs),
(101,886,o),
(63,851,o),
(63,796,cs),
(63,757,o),
(89,728,o),
(136,728,cs)
);
},
{
closed = 1;
nodes = (
(403,728,o),
(441,763,o),
(441,818,cs),
(441,857,o),
(415,886,o),
(368,886,cs),
(311,886,o),
(273,851,o),
(273,796,cs),
(273,757,o),
(299,728,o),
(346,728,cs)
);
}
);
};
layerId = "EC4B77C1-E739-4B44-9572-0CFE97DCA064";
shapes = (
{
ref = I;
},
{
pos = (-113,198);
ref = dieresiscomb;
}
);
width = 302;
},
{
background = {
shapes = (
{
closed = 1;
nodes = (
(106,0,l),
(223,668,l),
(164,668,l),
(47,0,l)
);
},
{
closed = 1;
nodes = (
(149,782,o),
(164,797,o),
(164,818,cs),
(164,835,o),
(153,848,o),
(132,848,cs),
(109,848,o),
(94,835,o),
(94,812,cs),
(94,795,o),
(105,782,o),
(125,782,cs)
);
},
{
closed = 1;
nodes = (
(332,782,o),
(347,797,o),
(347,818,cs),
(347,835,o),
(336,848,o),
(315,848,cs),
(292,848,o),
(277,835,o),
(277,812,cs),
(277,795,o),
(288,782,o),
(308,782,cs)
);
}
);
};
layerId = "BA8B9BDD-FBF5-4763-A7AD-14140821EFBD";
shapes = (
{
ref = I;
},
{
pos = (-144,198);
ref = dieresiscomb;
}
);
width = 237;
},
{
background = {
shapes = (
{
closed = 1;
nodes = (
(126,0,l),
(243,668,l),
(157,668,l),
(40,0,l)
);
},
{
closed = 1;
nodes = (
(160,770,o),
(179,790,o),
(179,818,cs),
(179,839,o),
(165,857,o),
(138,857,cs),
(107,857,o),
(87,838,o),
(87,809,cs),
(87,786,o),
(101,770,o),
(128,770,cs)
);
},
{
closed = 1;
nodes = (
(348,770,o),
(367,790,o),
(367,818,cs),
(367,839,o),
(353,857,o),
(326,857,cs),
(295,857,o),
(275,838,o),
(275,809,cs),
(275,786,o),
(289,770,o),
(316,770,cs)
);
}
);
};
layerId = "573A4E99-B1EA-4FCA-90B1-EE1ED57C0074";
shapes = (
{
ref = I;
},
{
pos = (-138,198);
ref = dieresiscomb;
}
);
width = 251;
},
{
background = {
shapes = (
{
closed = 1;
nodes = (
(167,0,l),
(284,668,l),
(143,668,l),
(26,0,l)
);
},
{
closed = 1;
nodes = (
(177,748,o),
(207,775,o),
(207,818,cs),
(207,849,o),
(186,872,o),
(149,872,cs),
(104,872,o),
(74,845,o),
(74,802,cs),
(74,771,o),
(96,748,o),
(132,748,cs)
);
},
{
closed = 1;
nodes = (
(377,748,o),
(406,775,o),
(406,818,cs),
(406,849,o),
(387,872,o),
(348,872,cs),
(303,872,o),
(274,845,o),
(274,802,cs),
(274,771,o),
(295,748,o),
(332,748,cs)
);
}
);
};
layerId = "261A487E-1CB1-41FD-8732-BC3F4489D58F";
shapes = (
{
ref = I;
},
{
pos = (-125,198);
ref = dieresiscomb;
}
);
width = 278;
},
{
background = {
shapes = (
{
closed = 1;
nodes = (
(148,0,l),
(265,668,l),
(150,668,l),
(33,0,l)
);
},
{
closed = 1;
nodes = (
(169,758,o),
(194,783,o),
(194,818,cs),
(194,845,o),
(176,865,o),
(144,865,cs),
(105,865,o),
(80,841,o),
(80,805,cs),
(80,778,o),
(99,758,o),
(130,758,cs)
);
},
{
closed = 1;
nodes = (
(363,758,o),
(388,783,o),
(388,818,cs),
(388,845,o),
(370,865,o),
(338,865,cs),
(299,865,o),
(274,841,o),
(274,805,cs),
(274,778,o),
(293,758,o),
(324,758,cs)
);
}
);
};
layerId = "ACFE83A5-3FD5-4916-9088-BF4CCAF0E845";
shapes = (
{
ref = I;
},
{
pos = (-131,198);
ref = dieresiscomb;
}
);
width = 265;
},
{
background = {
shapes = (
{
closed = 1;
nodes = (
(86,0,l),
(203,668,l),
(171,668,l),
(54,0,l)
);
},
{
closed = 1;
nodes = (
(140,795,o),
(149,803,o),
(149,819,cs),
(149,832,o),
(142,839,o),
(127,839,cs),
(110,839,o),
(101,831,o),
(101,815,cs),
(101,802,o),
(108,795,o),
(123,795,cs)
);
},
{
closed = 1;
nodes = (
(318,795,o),
(327,803,o),
(327,819,cs),
(327,832,o),
(320,839,o),
(305,839,cs),
(288,839,o),
(279,831,o),
(279,815,cs),
(279,802,o),
(286,795,o),
(301,795,cs)
);
}
);
};
layerId = "EA8306D6-B852-442A-A16D-2D86AE16EEA2";
shapes = (
{
ref = I;
},
{
pos = (-152,198);
ref = dieresiscomb;
}
);
width = 224;
}
);
unicode = 207;
},
{
color = 10;
glyphname = Igrave;
lastChange = "2022-05-20 09:41:26 +0000";
layers = (
{
background = {
shapes = (
{
closed = 1;
nodes = (
(187,0,l),
(304,668,l),
(137,668,l),
(20,0,l)
);
},
{
closed = 1;
nodes = (
(283,729,l),
(248,888,l),
(98,888,l),
(181,729,l)
);
}
);
};
layerId = "D2242EF2-33C7-49B0-8663-736078BD5B35";
shapes = (
{
ref = I;
},
{
pos = (-103,198);
ref = gravecomb;
}
);
width = 291;
},
{
background = {
shapes = (
{
closed = 1;
nodes = (
(204,0,l),
(321,668,l),
(131,668,l),
(14,0,l)
);
},
{
closed = 1;
nodes = (
(295,726,l),
(264,888,l),
(94,888,l),
(179,726,l)
);
}
);
};
layerId = "EC4B77C1-E739-4B44-9572-0CFE97DCA064";
shapes = (
{
ref = I;
},
{
pos = (-96,198);
ref = gravecomb;
}
);
width = 302;
},
{
background = {
shapes = (
{
closed = 1;
nodes = (
(106,0,l),
(223,668,l),
(164,668,l),
(47,0,l)
);
},
{
closed = 1;
nodes = (
(226,742,l),
(174,888,l),
(117,888,l),
(188,742,l)
);
}
);
};
layerId = "BA8B9BDD-FBF5-4763-A7AD-14140821EFBD";
shapes = (
{
ref = I;
},
{
pos = (-136,198);
ref = gravecomb;
}
);
width = 237;
},
{
background = {
shapes = (
{
closed = 1;
nodes = (
(126,0,l),
(243,668,l),
(157,668,l),
(40,0,l)
);
},
{
closed = 1;
nodes = (
(240,739,l),
(193,888,l),
(112,888,l),
(186,739,l)
);
}
);
};
layerId = "573A4E99-B1EA-4FCA-90B1-EE1ED57C0074";
shapes = (
{
ref = I;
},
{
pos = (-127,198);
ref = gravecomb;
}
);
width = 251;
},
{
background = {
shapes = (
{
closed = 1;
nodes = (
(167,0,l),
(284,668,l),
(143,668,l),
(26,0,l)
);
},
{
closed = 1;
nodes = (
(269,732,l),
(231,888,l),
(102,888,l),
(182,732,l)
);
}
);
};
layerId = "261A487E-1CB1-41FD-8732-BC3F4489D58F";
shapes = (
{
ref = I;
},
{
pos = (-111,198);
ref = gravecomb;
}
);
width = 278;
},
{
background = {
shapes = (
{
closed = 1;
nodes = (
(148,0,l),
(265,668,l),
(150,668,l),
(33,0,l)
);
},
{
closed = 1;
nodes = (
(255,735,l),
(213,888,l),
(107,888,l),
(184,735,l)
);
}
);
};
layerId = "ACFE83A5-3FD5-4916-9088-BF4CCAF0E845";
shapes = (
{
ref = I;
},
{
pos = (-119,198);
ref = gravecomb;
}
);
width = 265;
},
{
background = {
shapes = (
{
closed = 1;
nodes = (
(86,0,l),
(203,668,l),
(171,668,l),
(54,0,l)
);
},
{
closed = 1;
nodes = (
(212,746,l),
(156,888,l),
(122,888,l),
(190,746,l)
);
}
);
};
layerId = "EA8306D6-B852-442A-A16D-2D86AE16EEA2";
shapes = (
{
ref = I;
},
{
pos = (-145,198);
ref = gravecomb;
}
);
width = 224;
}
);
unicode = 204;
},
{
color = 6;
glyphname = J;
kernLeft = _J1;
kernRight = _J;
lastChange = "2022-05-20 09:41:26 +0000";
layers = (
{
anchors = (
{
name = bottom;
pos = (222,0);
},
{
name = top;
pos = (339,668);
}
);
background = {
shapes = (
{
closed = 1;
nodes = (
(353,-10,o),
(435,78,o),
(466,249,c),
(539,668,l),
(372,668,l),
(299,249,ls),
(284,165,o),
(245,135,o),
(182,135,cs),
(145,135,o),
(100,153,o),
(65,177,c),
(-5,66,l),
(46,11,o),
(104,-10,o),
(184,-10,cs)
);
}
);
};
layerId = "D2242EF2-33C7-49B0-8663-736078BD5B35";
shapes = (
{
closed = 1;
nodes = (
(353,-10,o),
(435,78,o),
(466,249,c),
(539,668,l),
(372,668,l),
(299,249,ls),
(284,165,o),
(245,135,o),
(182,135,cs),
(145,135,o),
(100,153,o),
(65,177,c),
(-5,66,l),
(46,11,o),
(104,-10,o),
(184,-10,cs)
);
}
);
width = 526;
},
{
anchors = (
{
name = bottom;
pos = (222,0);
},
{
name = top;
pos = (339,668);
}
);
background = {
shapes = (
{
closed = 1;
nodes = (
(358,-10,o),
(442,82,o),
(473,258,cs),
(545,668,l),
(355,668,l),
(283,258,ls),
(270,182,o),
(236,154,o),
(180,154,cs),
(145,154,o),
(99,171,o),
(67,192,c),
(-10,66,l),
(41,10,o),
(99,-10,o),
(182,-10,cs)
);
}
);
};
layerId = "EC4B77C1-E739-4B44-9572-0CFE97DCA064";
shapes = (
{
closed = 1;
nodes = (
(358,-10,o),
(442,82,o),
(473,258,cs),
(545,668,l),
(355,668,l),
(283,258,ls),
(270,182,o),
(236,154,o),
(180,154,cs),
(145,154,o),
(99,171,o),
(67,192,c),
(-10,66,l),
(41,10,o),
(99,-10,o),
(182,-10,cs)
);
}
);
width = 526;
},
{
anchors = (
{
name = bottom;
pos = (222,0);
},
{
name = top;
pos = (339,668);
}
);
background = {
shapes = (
{
closed = 1;
nodes = (
(324,-10,o),
(403,55,o),
(430,207,cs),
(512,668,l),
(453,668,l),
(372,207,ls),
(351,91,o),
(286,43,o),
(191,43,cs),
(140,43,o),
(94,64,o),
(53,109,c),
(20,68,l),
(64,16,o),
(121,-10,o),
(191,-10,cs)
);
}
);
};
layerId = "BA8B9BDD-FBF5-4763-A7AD-14140821EFBD";
shapes = (
{
closed = 1;
nodes = (
(324,-10,o),
(403,55,o),
(430,207,cs),
(512,668,l),
(453,668,l),
(372,207,ls),
(351,91,o),
(286,43,o),
(191,43,cs),
(140,43,o),
(94,64,o),
(53,109,c),
(20,68,l),
(64,16,o),
(121,-10,o),
(191,-10,cs)
);
}
);
width = 526;
},
{
anchors = (
{
name = bottom;
pos = (222,0);
},
{
name = top;
pos = (339,668);
}
);
background = {
shapes = (
{
closed = 1;
nodes = (
(338,-10,o),
(412,61,o),
(439,218,c),
(519,668,l),
(433,668,l),
(354,218,ls),
(335,110,o),
(277,66,o),
(189,66,cs),
(142,66,o),
(99,87,o),
(56,126,c),
(14,68,l),
(61,13,o),
(118,-10,o),
(189,-10,cs)
);
}
);
};
layerId = "573A4E99-B1EA-4FCA-90B1-EE1ED57C0074";
shapes = (
{
closed = 1;
nodes = (
(338,-10,o),
(412,61,o),
(439,218,c),
(519,668,l),
(433,668,l),
(354,218,ls),
(335,110,o),
(277,66,o),
(189,66,cs),
(142,66,o),
(99,87,o),
(56,126,c),
(14,68,l),
(61,13,o),
(118,-10,o),
(189,-10,cs)
);
}
);
width = 526;
},
{
anchors = (
{
name = bottom;
pos = (222,0);
},
{
name = top;
pos = (339,668);
}
);
background = {
shapes = (
{
closed = 1;
nodes = (
(349,-10,o),
(428,72,o),
(457,239,cs),
(533,668,l),
(392,668,l),
(316,239,l),
(301,147,o),
(255,113,o),
(184,113,cs),
(144,113,o),
(99,132,o),
(62,161,c),
(1,67,l),
(50,11,o),
(109,-10,o),
(185,-10,cs)
);
}
);
};
layerId = "261A487E-1CB1-41FD-8732-BC3F4489D58F";
shapes = (
{
closed = 1;
nodes = (
(349,-10,o),
(428,72,o),
(457,239,cs),
(533,668,l),
(392,668,l),
(316,239,l),
(301,147,o),
(255,113,o),
(184,113,cs),
(144,113,o),
(99,132,o),
(62,161,c),
(1,67,l),
(50,11,o),
(109,-10,o),
(185,-10,cs)
);
}
);
width = 526;
},
{
anchors = (
{
name = bottom;
pos = (222,0);
},
{
name = top;
pos = (339,668);
}
);
background = {
shapes = (
{
closed = 1;
nodes = (
(344,-10,o),
(420,68,o),
(449,229,cs),
(526,668,l),
(411,668,l),
(334,229,ls),
(317,129,o),
(266,91,o),
(186,91,cs),
(143,91,o),
(98,111,o),
(59,144,c),
(7,67,l),
(55,12,o),
(114,-10,o),
(187,-10,cs)
);
}
);
};
layerId = "ACFE83A5-3FD5-4916-9088-BF4CCAF0E845";
shapes = (
{
closed = 1;
nodes = (
(344,-10,o),
(420,68,o),
(449,229,cs),
(526,668,l),
(411,668,l),
(334,229,ls),
(317,129,o),
(266,91,o),
(186,91,cs),
(143,91,o),
(98,111,o),
(59,144,c),
(7,67,l),
(55,12,o),
(114,-10,o),
(187,-10,cs)
);
}
);
width = 526;
},
{
anchors = (
{
name = bottom;
pos = (222,0);
},
{
name = top;
pos = (339,668);
}
);
background = {
shapes = (
{
closed = 1;
nodes = (
(312,-10,o),
(395,50,o),
(422,197,c),
(505,668,l),
(473,668,l),
(390,197,l),
(367,72,o),
(297,20,o),
(193,20,cs),
(140,20,o),
(91,41,o),
(50,92,c),
(27,69,l),
(70,16,o),
(121,-10,o),
(193,-10,cs)
);
}
);
};
layerId = "EA8306D6-B852-442A-A16D-2D86AE16EEA2";
shapes = (
{
closed = 1;
nodes = (
(312,-10,o),
(395,50,o),
(422,197,c),
(505,668,l),
(473,668,l),
(390,197,l),
(367,72,o),
(297,20,o),
(193,20,cs),
(140,20,o),
(91,41,o),
(50,92,c),
(27,69,l),
(70,16,o),
(121,-10,o),
(193,-10,cs)
);
}
);
width = 526;
}
);
unicode = 74;
},
{
color = 6;
glyphname = K;
kernRight = _K;
lastChange = "2022-05-20 09:41:26 +0000";
layers = (
{
anchors = (
{
name = bottom;
pos = (293,0);
},
{
name = top;
pos = (410,668);
}
);
background = {
shapes = (
{
closed = 1;
nodes = (
(187,0,l),
(217,173,l),
(309,263,l),
(431,0,l),
(618,0,l),
(429,379,l),
(725,668,l),
(519,668,l),
(258,407,l),
(304,668,l),
(137,668,l),
(20,0,l)
);
}
);
};
layerId = "D2242EF2-33C7-49B0-8663-736078BD5B35";
shapes = (
{
closed = 1;
nodes = (
(187,0,l),
(217,173,l),
(309,263,l),
(431,0,l),
(618,0,l),
(429,379,l),
(725,668,l),
(519,668,l),
(258,407,l),
(304,668,l),
(137,668,l),
(20,0,l)
);
}
);
width = 668;
},
{
anchors = (
{
name = bottom;
pos = (298,0);
},
{
name = top;
pos = (415,668);
}
);
background = {
shapes = (
{
closed = 1;
nodes = (
(204,0,l),
(232,163,l),
(316,246,l),
(422,0,l),
(634,0,l),
(451,380,l),
(741,668,l),
(509,668,l),
(279,432,l),
(321,668,l),
(131,668,l),
(14,0,l)
);
}
);
};
layerId = "EC4B77C1-E739-4B44-9572-0CFE97DCA064";
shapes = (
{
closed = 1;
nodes = (
(204,0,l),
(232,163,l),
(316,246,l),
(422,0,l),
(634,0,l),
(451,380,l),
(741,668,l),
(509,668,l),
(279,432,l),
(321,668,l),
(131,668,l),
(14,0,l)
);
}
);
width = 678;
},
{
anchors = (
{
name = bottom;
pos = (269,0);
},
{
name = top;
pos = (386,668);
}
);
background = {
shapes = (
{
closed = 1;
nodes = (
(106,0,l),
(144,217,l),
(276,335,l),
(475,0,l),
(542,0,l),
(319,374,l),
(649,668,l),
(570,668,l),
(158,299,l),
(223,668,l),
(164,668,l),
(47,0,l)
);
}
);
};
layerId = "BA8B9BDD-FBF5-4763-A7AD-14140821EFBD";
shapes = (
{
closed = 1;
nodes = (
(106,0,l),
(144,217,l),
(276,335,l),
(475,0,l),
(542,0,l),
(319,374,l),
(649,668,l),
(570,668,l),
(158,299,l),
(223,668,l),
(164,668,l),
(47,0,l)
);
}
);
width = 620;
},
{
anchors = (
{
name = bottom;
pos = (275,0);
},
{
name = top;
pos = (392,668);
}
);
background = {
shapes = (
{
closed = 1;
nodes = (
(126,0,l),
(162,205,l),
(285,318,l),
(464,0,l),
(561,0,l),
(347,375,l),
(668,668,l),
(553,668,l),
(183,327,l),
(243,668,l),
(157,668,l),
(40,0,l)
);
}
);
};
layerId = "573A4E99-B1EA-4FCA-90B1-EE1ED57C0074";
shapes = (
{
closed = 1;
nodes = (
(126,0,l),
(162,205,l),
(285,318,l),
(464,0,l),
(561,0,l),
(347,375,l),
(668,668,l),
(553,668,l),
(183,327,l),
(243,668,l),
(157,668,l),
(40,0,l)
);
}
);
width = 632;
},
{
anchors = (
{
name = bottom;
pos = (287,0);
},
{
name = top;
pos = (404,668);
}
);
background = {
shapes = (
{
closed = 1;
nodes = (
(167,0,l),
(199,182,l),
(302,281,l),
(442,0,l),
(600,0,l),
(403,377,l),
(707,668,l),
(530,668,l),
(233,379,l),
(284,668,l),
(143,668,l),
(26,0,l)
);
}
);
};
layerId = "261A487E-1CB1-41FD-8732-BC3F4489D58F";
shapes = (
{
closed = 1;
nodes = (
(167,0,l),
(199,182,l),
(302,281,l),
(442,0,l),
(600,0,l),
(403,377,l),
(707,668,l),
(530,668,l),
(233,379,l),
(284,668,l),
(143,668,l),
(26,0,l)
);
}
);
width = 656;
},
{
anchors = (
{
name = bottom;
pos = (282,0);
},
{
name = top;
pos = (399,668);
}
);
background = {
shapes = (
{
closed = 1;
nodes = (
(148,0,l),
(182,193,l),
(294,299,l),
(452,0,l),
(581,0,l),
(377,376,l),
(688,668,l),
(541,668,l),
(210,354,l),
(265,668,l),
(150,668,l),
(33,0,l)
);
}
);
};
layerId = "ACFE83A5-3FD5-4916-9088-BF4CCAF0E845";
shapes = (
{
closed = 1;
nodes = (
(148,0,l),
(182,193,l),
(294,299,l),
(452,0,l),
(581,0,l),
(377,376,l),
(688,668,l),
(541,668,l),
(210,354,l),
(265,668,l),
(150,668,l),
(33,0,l)
);
}
);
width = 645;
},
{
anchors = (
{
name = bottom;
pos = (263,0);
},
{
name = top;
pos = (380,668);
}
);
background = {
shapes = (
{
closed = 1;
nodes = (
(86,0,l),
(126,228,l),
(268,352,l),
(487,0,l),
(524,0,l),
(292,373,l),
(631,668,l),
(588,668,l),
(133,272,l),
(203,668,l),
(171,668,l),
(54,0,l)
);
}
);
};
layerId = "EA8306D6-B852-442A-A16D-2D86AE16EEA2";
shapes = (
{
closed = 1;
nodes = (
(86,0,l),
(126,228,l),
(268,352,l),
(487,0,l),
(524,0,l),
(292,373,l),
(631,668,l),
(588,668,l),
(133,272,l),
(203,668,l),
(171,668,l),
(54,0,l)
);
}
);
width = 608;
}
);
unicode = 75;
},
{
color = 6;
glyphname = L;
kernRight = _L;
lastChange = "2022-05-20 09:59:16 +0000";
layers = (
{
anchors = (
{
name = bottom;
pos = (231,0);
},
{
name = center;
pos = (289,334);
},
{
name = top;
pos = (348,668);
},
{
name = topright;
pos = (361,750);
}
);
background = {
shapes = (
{
closed = 1;
nodes = (
(466,0,l),
(491,145,l),
(212,145,l),
(304,668,l),
(137,668,l),
(20,0,l)
);
}
);
};
layerId = "D2242EF2-33C7-49B0-8663-736078BD5B35";
shapes = (
{
closed = 1;
nodes = (
(466,0,l),
(491,145,l),
(212,145,l),
(304,668,l),
(137,668,l),
(20,0,l)
);
}
);
width = 543;
},
{
anchors = (
{
name = bottom;
pos = (232,0);
},
{
name = center;
pos = (290,334);
},
{
name = top;
pos = (349,668);
},
{
name = topright;
pos = (382,751);
}
);
background = {
shapes = (
{
closed = 1;
nodes = (
(472,0,l),
(500,164,l),
(232,164,l),
(321,668,l),
(131,668,l),
(14,0,l)
);
}
);
};
layerId = "EC4B77C1-E739-4B44-9572-0CFE97DCA064";
shapes = (
{
closed = 1;
nodes = (
(472,0,l),
(500,164,l),
(232,164,l),
(321,668,l),
(131,668,l),
(14,0,l)
);
}
);
width = 546;
},
{
anchors = (
{
name = bottom;
pos = (224,0);
},
{
name = center;
pos = (282,334);
},
{
name = top;
pos = (341,668);
},
{
name = topright;
pos = (355,750);
}
);
background = {
shapes = (
{
closed = 1;
nodes = (
(439,0,l),
(447,53,l),
(115,53,l),
(223,668,l),
(164,668,l),
(47,0,l)
);
}
);
};
layerId = "BA8B9BDD-FBF5-4763-A7AD-14140821EFBD";
shapes = (
{
closed = 1;
nodes = (
(439,0,l),
(447,53,l),
(115,53,l),
(223,668,l),
(164,668,l),
(47,0,l)
);
}
);
width = 529;
},
{
anchors = (
{
name = bottom;
pos = (226,0);
},
{
name = center;
pos = (284,334);
},
{
name = top;
pos = (343,668);
},
{
name = topright;
pos = (378,750);
}
);
background = {
shapes = (
{
closed = 1;
nodes = (
(446,0,l),
(458,76,l),
(139,76,l),
(243,668,l),
(157,668,l),
(40,0,l)
);
}
);
};
layerId = "573A4E99-B1EA-4FCA-90B1-EE1ED57C0074";
shapes = (
{
closed = 1;
nodes = (
(446,0,l),
(458,76,l),
(139,76,l),
(243,668,l),
(157,668,l),
(40,0,l)
);
}
);
width = 533;
},
{
anchors = (
{
name = bottom;
pos = (229,0);
},
{
name = center;
pos = (287,334);
},
{
name = top;
pos = (346,668);
},
{
name = topright;
pos = (376,750);
}
);
background = {
shapes = (
{
closed = 1;
nodes = (
(460,0,l),
(480,123,l),
(188,123,l),
(284,668,l),
(143,668,l),
(26,0,l)
);
}
);
};
layerId = "261A487E-1CB1-41FD-8732-BC3F4489D58F";
shapes = (
{
closed = 1;
nodes = (
(460,0,l),
(480,123,l),
(188,123,l),
(284,668,l),
(143,668,l),
(26,0,l)
);
}
);
width = 540;
},
{
anchors = (
{
name = bottom;
pos = (228,0);
},
{
name = center;
pos = (286,334);
},
{
name = top;
pos = (345,668);
},
{
name = topright;
pos = (378,750);
}
);
background = {
shapes = (
{
closed = 1;
nodes = (
(453,0,l),
(470,101,l),
(165,101,l),
(265,668,l),
(150,668,l),
(33,0,l)
);
}
);
};
layerId = "ACFE83A5-3FD5-4916-9088-BF4CCAF0E845";
shapes = (
{
closed = 1;
nodes = (
(453,0,l),
(470,101,l),
(165,101,l),
(265,668,l),
(150,668,l),
(33,0,l)
);
}
);
width = 537;
},
{
anchors = (
{
name = bottom;
pos = (222,0);
},
{
name = center;
pos = (280,334);
},
{
name = top;
pos = (339,668);
},
{
name = topright;
pos = (360,750);
}
);
background = {
shapes = (
{
closed = 1;
nodes = (
(432,0,l),
(437,30,l),
(91,30,l),
(203,668,l),
(171,668,l),
(54,0,l)
);
}
);
};
layerId = "EA8306D6-B852-442A-A16D-2D86AE16EEA2";
shapes = (
{
closed = 1;
nodes = (
(432,0,l),
(437,30,l),
(91,30,l),
(203,668,l),
(171,668,l),
(54,0,l)
);
}
);
width = 526;
}
);
unicode = 76;
},
{
color = 6;
glyphname = Lslash;
kernRight = _L;
lastChange = "2022-05-20 09:41:26 +0000";
layers = (
{
background = {
shapes = (
{
closed = 1;
nodes = (
(466,0,l),
(491,145,l),
(212,145,l),
(243,324,l),
(420,388,l),
(436,477,l),
(259,413,l),
(304,668,l),
(137,668,l),
(81,348,l),
(22,327,l),
(6,237,l),
(64,258,l),
(20,0,l)
);
}
);
};
layerId = "D2242EF2-33C7-49B0-8663-736078BD5B35";
shapes = (
{
closed = 1;
nodes = (
(466,0,l),
(491,145,l),
(212,145,l),
(243,324,l),
(420,388,l),
(436,477,l),
(259,413,l),
(304,668,l),
(137,668,l),
(81,348,l),
(22,327,l),
(6,237,l),
(64,258,l),
(20,0,l)
);
}
);
width = 543;
},
{
background = {
shapes = (
{
closed = 1;
nodes = (
(472,0,l),
(500,164,l),
(232,164,l),
(260,323,l),
(431,385,l),
(449,485,l),
(278,423,l),
(321,668,l),
(131,668,l),
(75,349,l),
(22,330,l),
(4,230,l),
(57,249,l),
(14,0,l)
);
}
);
};
layerId = "EC4B77C1-E739-4B44-9572-0CFE97DCA064";
shapes = (
{
closed = 1;
nodes = (
(472,0,l),
(500,164,l),
(232,164,l),
(260,323,l),
(431,385,l),
(449,485,l),
(278,423,l),
(321,668,l),
(131,668,l),
(75,349,l),
(22,330,l),
(4,230,l),
(57,249,l),
(14,0,l)
);
}
);
width = 546;
},
{
background = {
shapes = (
{
closed = 1;
nodes = (
(439,0,l),
(447,53,l),
(115,53,l),
(163,326,l),
(369,401,l),
(377,441,l),
(170,365,l),
(223,668,l),
(164,668,l),
(107,343,l),
(22,312,l),
(15,272,l),
(100,303,l),
(47,0,l)
);
}
);
};
layerId = "BA8B9BDD-FBF5-4763-A7AD-14140821EFBD";
shapes = (
{
closed = 1;
nodes = (
(439,0,l),
(447,53,l),
(115,53,l),
(163,326,l),
(369,401,l),
(377,441,l),
(170,365,l),
(223,668,l),
(164,668,l),
(107,343,l),
(22,312,l),
(15,272,l),
(100,303,l),
(47,0,l)
);
}
);
width = 529;
},
{
background = {
shapes = (
{
closed = 1;
nodes = (
(446,0,l),
(458,76,l),
(139,76,l),
(183,326,l),
(382,398,l),
(392,450,l),
(192,377,l),
(243,668,l),
(157,668,l),
(101,344,l),
(22,316,l),
(13,264,l),
(91,292,l),
(40,0,l)
);
}
);
};
layerId = "573A4E99-B1EA-4FCA-90B1-EE1ED57C0074";
shapes = (
{
closed = 1;
nodes = (
(446,0,l),
(458,76,l),
(139,76,l),
(183,326,l),
(382,398,l),
(392,450,l),
(192,377,l),
(243,668,l),
(157,668,l),
(101,344,l),
(22,316,l),
(13,264,l),
(91,292,l),
(40,0,l)
);
}
);
width = 533;
},
{
background = {
shapes = (
{
closed = 1;
nodes = (
(460,0,l),
(480,123,l),
(188,123,l),
(224,324,l),
(408,391,l),
(422,469,l),
(238,401,l),
(284,668,l),
(143,668,l),
(87,347,l),
(22,323,l),
(8,246,l),
(73,269,l),
(26,0,l)
);
}
);
};
layerId = "261A487E-1CB1-41FD-8732-BC3F4489D58F";
shapes = (
{
closed = 1;
nodes = (
(460,0,l),
(480,123,l),
(188,123,l),
(224,324,l),
(408,391,l),
(422,469,l),
(238,401,l),
(284,668,l),
(143,668,l),
(87,347,l),
(22,323,l),
(8,246,l),
(73,269,l),
(26,0,l)
);
}
);
width = 540;
},
{
background = {
shapes = (
{
closed = 1;
nodes = (
(453,0,l),
(470,101,l),
(165,101,l),
(205,325,l),
(396,394,l),
(408,460,l),
(216,390,l),
(265,668,l),
(150,668,l),
(94,345,l),
(22,320,l),
(10,254,l),
(81,280,l),
(33,0,l)
);
}
);
};
layerId = "ACFE83A5-3FD5-4916-9088-BF4CCAF0E845";
shapes = (
{
closed = 1;
nodes = (
(453,0,l),
(470,101,l),
(165,101,l),
(205,325,l),
(396,394,l),
(408,460,l),
(216,390,l),
(265,668,l),
(150,668,l),
(94,345,l),
(22,320,l),
(10,254,l),
(81,280,l),
(33,0,l)
);
}
);
width = 537;
},
{
background = {
shapes = (
{
closed = 1;
nodes = (
(432,0,l),
(437,30,l),
(91,30,l),
(143,327,l),
(357,404,l),
(362,432,l),
(148,354,l),
(203,668,l),
(171,668,l),
(114,342,l),
(22,309,l),
(17,281,l),
(109,314,l),
(54,0,l)
);
}
);
};
layerId = "EA8306D6-B852-442A-A16D-2D86AE16EEA2";
shapes = (
{
closed = 1;
nodes = (
(432,0,l),
(437,30,l),
(91,30,l),
(143,327,l),
(357,404,l),
(362,432,l),
(148,354,l),
(203,668,l),
(171,668,l),
(114,342,l),
(22,309,l),
(17,281,l),
(109,314,l),
(54,0,l)
);
}
);
width = 526;
}
);
unicode = 321;
},
{
color = 6;
glyphname = M;
lastChange = "2022-05-20 09:41:26 +0000";
layers = (
{
anchors = (
{
name = bottom;
pos = (416,0);
},
{
name = top;
pos = (533,668);
}
);
background = {
shapes = (
{
closed = 1;
nodes = (
(187,0,l),
(276,509,l),
(343,0,l),
(486,0,l),
(731,509,l),
(642,0,l),
(809,0,l),
(926,668,l),
(655,668,l),
(446,225,l),
(393,668,l),
(137,668,l),
(20,0,l)
);
}
);
};
layerId = "D2242EF2-33C7-49B0-8663-736078BD5B35";
shapes = (
{
closed = 1;
nodes = (
(187,0,l),
(276,509,l),
(343,0,l),
(486,0,l),
(731,509,l),
(642,0,l),
(809,0,l),
(926,668,l),
(655,668,l),
(446,225,l),
(393,668,l),
(137,668,l),
(20,0,l)
);
}
);
width = 913;
},
{
anchors = (
{
name = bottom;
pos = (417,0);
},
{
name = top;
pos = (534,668);
}
);
background = {
shapes = (
{
closed = 1;
nodes = (
(204,0,l),
(288,478,l),
(335,0,l),
(497,0,l),
(712,478,l),
(628,0,l),
(818,0,l),
(935,668,l),
(627,668,l),
(456,278,l),
(423,668,l),
(131,668,l),
(14,0,l)
);
}
);
};
layerId = "EC4B77C1-E739-4B44-9572-0CFE97DCA064";
shapes = (
{
closed = 1;
nodes = (
(204,0,l),
(288,478,l),
(335,0,l),
(497,0,l),
(712,478,l),
(628,0,l),
(818,0,l),
(935,668,l),
(627,668,l),
(456,278,l),
(423,668,l),
(131,668,l),
(14,0,l)
);
}
);
width = 916;
},
{
anchors = (
{
name = bottom;
pos = (409,0);
},
{
name = top;
pos = (526,668);
}
);
background = {
shapes = (
{
closed = 1;
nodes = (
(106,0,l),
(212,608,l),
(380,0,l),
(434,0,l),
(815,606,l),
(709,0,l),
(768,0,l),
(885,668,l),
(790,668,l),
(416,70,l),
(253,668,l),
(164,668,l),
(47,0,l)
);
}
);
};
layerId = "BA8B9BDD-FBF5-4763-A7AD-14140821EFBD";
shapes = (
{
closed = 1;
nodes = (
(106,0,l),
(212,608,l),
(380,0,l),
(434,0,l),
(815,606,l),
(709,0,l),
(768,0,l),
(885,668,l),
(790,668,l),
(416,70,l),
(253,668,l),
(164,668,l),
(47,0,l)
);
}
);
width = 899;
},
{
anchors = (
{
name = bottom;
pos = (411,0);
},
{
name = top;
pos = (528,668);
}
);
background = {
shapes = (
{
closed = 1;
nodes = (
(126,0,l),
(228,580,l),
(371,0,l),
(447,0,l),
(794,580,l),
(692,0,l),
(778,0,l),
(895,668,l),
(756,668,l),
(423,106,l),
(288,668,l),
(157,668,l),
(40,0,l)
);
}
);
};
layerId = "573A4E99-B1EA-4FCA-90B1-EE1ED57C0074";
shapes = (
{
closed = 1;
nodes = (
(126,0,l),
(228,580,l),
(371,0,l),
(447,0,l),
(794,580,l),
(692,0,l),
(778,0,l),
(895,668,l),
(756,668,l),
(423,106,l),
(288,668,l),
(157,668,l),
(40,0,l)
);
}
);
width = 903;
},
{
anchors = (
{
name = bottom;
pos = (414,0);
},
{
name = top;
pos = (531,668);
}
);
background = {
shapes = (
{
closed = 1;
nodes = (
(167,0,l),
(261,536,l),
(352,0,l),
(473,0,l),
(752,536,l),
(658,0,l),
(799,0,l),
(916,668,l),
(688,668,l),
(438,178,l),
(360,668,l),
(143,668,l),
(26,0,l)
);
}
);
};
layerId = "261A487E-1CB1-41FD-8732-BC3F4489D58F";
shapes = (
{
closed = 1;
nodes = (
(167,0,l),
(261,536,l),
(352,0,l),
(473,0,l),
(752,536,l),
(658,0,l),
(799,0,l),
(916,668,l),
(688,668,l),
(438,178,l),
(360,668,l),
(143,668,l),
(26,0,l)
);
}
);
width = 910;
},
{
anchors = (
{
name = bottom;
pos = (413,0);
},
{
name = top;
pos = (530,668);
}
);
background = {
shapes = (
{
closed = 1;
nodes = (
(148,0,l),
(246,560,l),
(361,0,l),
(461,0,l),
(773,560,l),
(674,0,l),
(789,0,l),
(906,668,l),
(720,668,l),
(430,141,l),
(326,668,l),
(150,668,l),
(33,0,l)
);
}
);
};
layerId = "ACFE83A5-3FD5-4916-9088-BF4CCAF0E845";
shapes = (
{
closed = 1;
nodes = (
(148,0,l),
(246,560,l),
(361,0,l),
(461,0,l),
(773,560,l),
(674,0,l),
(789,0,l),
(906,668,l),
(720,668,l),
(430,141,l),
(326,668,l),
(150,668,l),
(33,0,l)
);
}
);
width = 907;
},
{
anchors = (
{
name = bottom;
pos = (407,0);
},
{
name = top;
pos = (524,668);
}
);
background = {
shapes = (
{
closed = 1;
nodes = (
(86,0,l),
(197,632,l),
(390,0,l),
(422,0,l),
(837,632,l),
(726,0,l),
(758,0,l),
(875,668,l),
(825,668,l),
(411,39,l),
(219,668,l),
(171,668,l),
(54,0,l)
);
}
);
};
layerId = "EA8306D6-B852-442A-A16D-2D86AE16EEA2";
shapes = (
{
closed = 1;
nodes = (
(86,0,l),
(197,632,l),
(390,0,l),
(422,0,l),
(837,632,l),
(726,0,l),
(758,0,l),
(875,668,l),
(825,668,l),
(411,39,l),
(219,668,l),
(171,668,l),
(54,0,l)
);
}
);
width = 896;
}
);
unicode = 77;
},
{
color = 6;
glyphname = N;
lastChange = "2022-05-20 09:41:26 +0000";
layers = (
{
anchors = (
{
name = bottom;
pos = (319,0);
},
{
name = top;
pos = (436,668);
}
);
background = {
shapes = (
{
closed = 1;
nodes = (
(187,0,l),
(261,427,l),
(439,0,l),
(616,0,l),
(733,668,l),
(566,668,l),
(492,241,l),
(314,668,l),
(137,668,l),
(20,0,l)
);
}
);
};
layerId = "D2242EF2-33C7-49B0-8663-736078BD5B35";
shapes = (
{
closed = 1;
nodes = (
(187,0,l),
(261,427,l),
(439,0,l),
(616,0,l),
(733,668,l),
(566,668,l),
(492,241,l),
(314,668,l),
(137,668,l),
(20,0,l)
);
}
);
width = 720;
},
{
anchors = (
{
name = bottom;
pos = (319,0);
},
{
name = top;
pos = (436,668);
}
);
background = {
shapes = (
{
closed = 1;
nodes = (
(204,0,l),
(272,391,l),
(422,0,l),
(622,0,l),
(739,668,l),
(549,668,l),
(481,277,l),
(331,668,l),
(131,668,l),
(14,0,l)
);
}
);
};
layerId = "EC4B77C1-E739-4B44-9572-0CFE97DCA064";
shapes = (
{
closed = 1;
nodes = (
(204,0,l),
(272,391,l),
(422,0,l),
(622,0,l),
(739,668,l),
(549,668,l),
(481,277,l),
(331,668,l),
(131,668,l),
(14,0,l)
);
}
);
width = 720;
},
{
anchors = (
{
name = bottom;
pos = (319,0);
},
{
name = top;
pos = (436,668);
}
);
background = {
shapes = (
{
closed = 1;
nodes = (
(106,0,l),
(210,593,l),
(521,0,l),
(589,0,l),
(706,668,l),
(647,668,l),
(543,75,l),
(231,668,l),
(164,668,l),
(47,0,l)
);
}
);
};
layerId = "BA8B9BDD-FBF5-4763-A7AD-14140821EFBD";
shapes = (
{
closed = 1;
nodes = (
(106,0,l),
(210,593,l),
(521,0,l),
(589,0,l),
(706,668,l),
(647,668,l),
(543,75,l),
(231,668,l),
(164,668,l),
(47,0,l)
);
}
);
width = 720;
},
{
anchors = (
{
name = bottom;
pos = (319,0);
},
{
name = top;
pos = (436,668);
}
);
background = {
shapes = (
{
closed = 1;
nodes = (
(126,0,l),
(223,554,l),
(501,0,l),
(596,0,l),
(713,668,l),
(627,668,l),
(530,114,l),
(252,668,l),
(157,668,l),
(40,0,l)
);
}
);
};
layerId = "573A4E99-B1EA-4FCA-90B1-EE1ED57C0074";
shapes = (
{
closed = 1;
nodes = (
(126,0,l),
(223,554,l),
(501,0,l),
(596,0,l),
(713,668,l),
(627,668,l),
(530,114,l),
(252,668,l),
(157,668,l),
(40,0,l)
);
}
);
width = 720;
},
{
anchors = (
{
name = bottom;
pos = (319,0);
},
{
name = top;
pos = (436,668);
}
);
background = {
shapes = (
{
closed = 1;
nodes = (
(167,0,l),
(249,468,l),
(459,0,l),
(610,0,l),
(727,668,l),
(586,668,l),
(504,200,l),
(294,668,l),
(143,668,l),
(26,0,l)
);
}
);
};
layerId = "261A487E-1CB1-41FD-8732-BC3F4489D58F";
shapes = (
{
closed = 1;
nodes = (
(167,0,l),
(249,468,l),
(459,0,l),
(610,0,l),
(727,668,l),
(586,668,l),
(504,200,l),
(294,668,l),
(143,668,l),
(26,0,l)
);
}
);
width = 720;
},
{
anchors = (
{
name = bottom;
pos = (319,0);
},
{
name = top;
pos = (436,668);
}
);
background = {
shapes = (
{
closed = 1;
nodes = (
(148,0,l),
(237,508,l),
(479,0,l),
(603,0,l),
(720,668,l),
(605,668,l),
(516,160,l),
(274,668,l),
(150,668,l),
(33,0,l)
);
}
);
};
layerId = "ACFE83A5-3FD5-4916-9088-BF4CCAF0E845";
shapes = (
{
closed = 1;
nodes = (
(148,0,l),
(237,508,l),
(479,0,l),
(603,0,l),
(720,668,l),
(605,668,l),
(516,160,l),
(274,668,l),
(150,668,l),
(33,0,l)
);
}
);
width = 720;
},
{
anchors = (
{
name = bottom;
pos = (319,0);
},
{
name = top;
pos = (436,668);
}
);
background = {
shapes = (
{
closed = 1;
nodes = (
(86,0,l),
(197,632,l),
(542,0,l),
(582,0,l),
(699,668,l),
(667,668,l),
(556,36,l),
(211,668,l),
(171,668,l),
(54,0,l)
);
}
);
};
layerId = "EA8306D6-B852-442A-A16D-2D86AE16EEA2";
shapes = (
{
closed = 1;
nodes = (
(86,0,l),
(197,632,l),
(542,0,l),
(582,0,l),
(699,668,l),
(667,668,l),
(556,36,l),
(211,668,l),
(171,668,l),
(54,0,l)
);
}
);
width = 720;
}
);
unicode = 78;
},
{
color = 10;
glyphname = Ntilde;
lastChange = "2022-05-20 09:41:26 +0000";
layers = (
{
background = {
shapes = (
{
closed = 1;
nodes = (
(187,0,l),
(261,427,l),
(439,0,l),
(616,0,l),
(733,668,l),
(566,668,l),
(492,241,l),
(314,668,l),
(137,668,l),
(20,0,l)
);
},
{
closed = 1;
nodes = (
(356,732,l),
(365,769,o),
(378,787,o),
(396,787,cs),
(424,787,o),
(469,732,o),
(531,732,cs),
(603,732,o),
(644,786,o),
(651,885,c),
(565,885,l),
(556,848,o),
(543,830,o),
(525,830,cs),
(496,830,o),
(452,885,o),
(391,885,cs),
(318,885,o),
(277,831,o),
(270,732,c)
);
}
);
};
layerId = "D2242EF2-33C7-49B0-8663-736078BD5B35";
shapes = (
{
ref = N;
},
{
pos = (96,198);
ref = tildecomb;
}
);
width = 720;
},
{
background = {
shapes = (
{
closed = 1;
nodes = (
(204,0,l),
(272,391,l),
(422,0,l),
(622,0,l),
(739,668,l),
(549,668,l),
(481,277,l),
(331,668,l),
(131,668,l),
(14,0,l)
);
},
{
closed = 1;
nodes = (
(358,726,l),
(365,757,o),
(379,778,o),
(395,778,cs),
(422,778,o),
(471,726,o),
(532,726,cs),
(611,726,o),
(652,787,o),
(659,888,c),
(563,888,l),
(556,857,o),
(542,836,o),
(526,836,cs),
(499,836,o),
(450,888,o),
(389,888,cs),
(310,888,o),
(269,827,o),
(262,726,c)
);
}
);
};
layerId = "EC4B77C1-E739-4B44-9572-0CFE97DCA064";
shapes = (
{
ref = N;
},
{
pos = (96,198);
ref = tildecomb;
}
);
width = 720;
},
{
background = {
shapes = (
{
closed = 1;
nodes = (
(106,0,l),
(210,593,l),
(521,0,l),
(589,0,l),
(706,668,l),
(647,668,l),
(543,75,l),
(231,668,l),
(164,668,l),
(47,0,l)
);
},
{
closed = 1;
nodes = (
(346,759,l),
(359,816,o),
(376,831,o),
(399,831,cs),
(438,831,o),
(462,759,o),
(524,759,cs),
(571,759,o),
(602,787,o),
(613,871,c),
(576,871,l),
(561,814,o),
(546,799,o),
(522,799,cs),
(483,799,o),
(458,871,o),
(398,871,cs),
(351,871,o),
(320,843,o),
(308,759,c)
);
}
);
};
layerId = "BA8B9BDD-FBF5-4763-A7AD-14140821EFBD";
shapes = (
{
ref = N;
},
{
pos = (97,198);
ref = tildecomb;
}
);
width = 720;
},
{
background = {
shapes = (
{
closed = 1;
nodes = (
(126,0,l),
(223,554,l),
(501,0,l),
(596,0,l),
(713,668,l),
(627,668,l),
(530,114,l),
(252,668,l),
(157,668,l),
(40,0,l)
);
},
{
closed = 1;
nodes = (
(350,752,l),
(363,804,o),
(376,820,o),
(399,820,cs),
(435,820,o),
(463,752,o),
(526,752,cs),
(579,752,o),
(612,787,o),
(623,875,c),
(572,875,l),
(559,823,o),
(546,807,o),
(523,807,cs),
(486,807,o),
(460,875,o),
(396,875,cs),
(343,875,o),
(310,840,o),
(299,752,c)
);
}
);
};
layerId = "573A4E99-B1EA-4FCA-90B1-EE1ED57C0074";
shapes = (
{
ref = N;
},
{
pos = (97,198);
ref = tildecomb;
}
);
width = 720;
},
{
background = {
shapes = (
{
closed = 1;
nodes = (
(167,0,l),
(249,468,l),
(459,0,l),
(610,0,l),
(727,668,l),
(586,668,l),
(504,200,l),
(294,668,l),
(143,668,l),
(26,0,l)
);
},
{
closed = 1;
nodes = (
(354,738,l),
(364,778,o),
(378,798,o),
(397,798,cs),
(428,798,o),
(467,738,o),
(529,738,cs),
(596,738,o),
(634,786,o),
(642,882,c),
(567,882,l),
(558,842,o),
(544,822,o),
(525,822,cs),
(493,822,o),
(454,882,o),
(392,882,cs),
(326,882,o),
(288,834,o),
(279,738,c)
);
}
);
};
layerId = "261A487E-1CB1-41FD-8732-BC3F4489D58F";
shapes = (
{
ref = N;
},
{
pos = (96,198);
ref = tildecomb;
}
);
width = 720;
},
{
background = {
shapes = (
{
closed = 1;
nodes = (
(148,0,l),
(237,508,l),
(479,0,l),
(603,0,l),
(720,668,l),
(605,668,l),
(516,160,l),
(274,668,l),
(150,668,l),
(33,0,l)
);
},
{
closed = 1;
nodes = (
(352,745,l),
(363,792,o),
(377,808,o),
(398,808,cs),
(430,808,o),
(465,745,o),
(528,745,cs),
(588,745,o),
(622,787,o),
(633,879,c),
(569,879,l),
(558,832,o),
(545,815,o),
(524,815,cs),
(490,815,o),
(456,879,o),
(394,879,cs),
(333,879,o),
(298,834,o),
(289,745,c)
);
}
);
};
layerId = "ACFE83A5-3FD5-4916-9088-BF4CCAF0E845";
shapes = (
{
ref = N;
},
{
pos = (97,198);
ref = tildecomb;
}
);
width = 720;
},
{
background = {
shapes = (
{
closed = 1;
nodes = (
(86,0,l),
(197,632,l),
(542,0,l),
(582,0,l),
(699,668,l),
(667,668,l),
(556,36,l),
(211,668,l),
(171,668,l),
(54,0,l)
);
},
{
closed = 1;
nodes = (
(342,766,l),
(355,829,o),
(376,842,o),
(400,842,cs),
(442,842,o),
(463,766,o),
(522,766,cs),
(562,766,o),
(592,788,o),
(604,868,c),
(580,868,l),
(565,805,o),
(546,792,o),
(522,792,cs),
(479,792,o),
(458,868,o),
(400,868,cs),
(360,868,o),
(330,846,o),
(318,766,c)
);
}
);
};
layerId = "EA8306D6-B852-442A-A16D-2D86AE16EEA2";
shapes = (
{
ref = N;
},
{
pos = (97,198);
ref = tildecomb;
}
);
width = 720;
}
);
unicode = 209;
},
{
color = 6;
glyphname = Eng;
lastChange = "2022-05-20 09:44:22 +0000";
layers = (
{
anchors = (
{
name = bottom;
pos = (259,0);
},
{
name = top;
pos = (376,668);
}
);
layerId = "EA8306D6-B852-442A-A16D-2D86AE16EEA2";
shapes = (
{
closed = 1;
nodes = (
(86,0,l),
(197,632,l),
(550,-13,l),
(540,-66,ls),
(528,-131,o),
(497,-160,o),
(437,-160,cs),
(421,-160,o),
(402,-159,o),
(391,-156,c),
(387,-182,l),
(396,-186,o),
(421,-188,o),
(437,-188,cs),
(513,-188,o),
(555,-153,o),
(570,-66,cs),
(699,668,l),
(667,668,l),
(556,36,l),
(211,668,l),
(171,668,l),
(54,0,l)
);
}
);
width = 720;
},
{
anchors = (
{
name = bottom;
pos = (259,0);
},
{
name = top;
pos = (376,668);
}
);
layerId = "BA8B9BDD-FBF5-4763-A7AD-14140821EFBD";
shapes = (
{
closed = 1;
nodes = (
(106,0,l),
(210,593,l),
(530,-17,l),
(523,-56,ls),
(512,-115,o),
(485,-139,o),
(429,-139,cs),
(413,-139,o),
(395,-138,o),
(383,-135,c),
(376,-182,l),
(388,-186,o),
(413,-188,o),
(432,-188,cs),
(517,-188,o),
(562,-150,o),
(578,-59,cs),
(706,668,l),
(647,668,l),
(543,75,l),
(231,668,l),
(164,668,l),
(47,0,l)
);
}
);
width = 720;
},
{
anchors = (
{
name = bottom;
pos = (259,0);
},
{
name = top;
pos = (376,668);
}
);
layerId = "573A4E99-B1EA-4FCA-90B1-EE1ED57C0074";
shapes = (
{
closed = 1;
nodes = (
(126,0,l),
(223,554,l),
(511,-20,l),
(507,-45,ls),
(499,-96,o),
(472,-118,o),
(421,-118,cs),
(406,-118,o),
(389,-117,o),
(376,-114,c),
(366,-181,l),
(381,-185,o),
(407,-188,o),
(427,-188,cs),
(522,-188,o),
(570,-147,o),
(587,-51,cs),
(713,668,l),
(627,668,l),
(530,114,l),
(252,668,l),
(157,668,l),
(40,0,l)
);
}
);
width = 720;
},
{
anchors = (
{
name = bottom;
pos = (259,0);
},
{
name = top;
pos = (376,668);
}
);
layerId = "ACFE83A5-3FD5-4916-9088-BF4CCAF0E845";
shapes = (
{
closed = 1;
nodes = (
(148,0,l),
(237,508,l),
(478,-7,l),
(489,-33,l),
(481,-77,o),
(459,-97,o),
(412,-97,cs),
(397,-97,o),
(382,-96,o),
(368,-94,c),
(354,-180,l),
(371,-185,o),
(398,-188,o),
(421,-188,cs),
(525,-188,o),
(578,-143,o),
(596,-43,cs),
(720,668,l),
(605,668,l),
(516,160,l),
(274,668,l),
(150,668,l),
(33,0,l)
);
}
);
width = 720;
},
{
anchors = (
{
name = bottom;
pos = (259,0);
},
{
name = top;
pos = (376,668);
}
);
layerId = "261A487E-1CB1-41FD-8732-BC3F4489D58F";
shapes = (
{
closed = 1;
nodes = (
(167,0,l),
(249,468,l),
(461,0,l),
(472,-23,l),
(466,-60,o),
(443,-79,o),
(404,-79,cs),
(390,-79,o),
(376,-78,o),
(361,-76,c),
(343,-179,l),
(363,-184,o),
(392,-188,o),
(416,-188,cs),
(529,-188,o),
(586,-139,o),
(604,-35,cs),
(727,668,l),
(586,668,l),
(504,200,l),
(294,668,l),
(143,668,l),
(26,0,l)
);
}
);
width = 720;
},
{
anchors = (
{
name = bottom;
pos = (259,0);
},
{
name = top;
pos = (376,668);
}
);
layerId = "D2242EF2-33C7-49B0-8663-736078BD5B35";
shapes = (
{
closed = 1;
nodes = (
(187,0,l),
(261,427,l),
(432,46,l),
(456,-12,l),
(451,-43,o),
(432,-60,o),
(395,-60,cs),
(382,-60,o),
(370,-61,o),
(354,-58,c),
(333,-179,l),
(356,-184,o),
(384,-188,o),
(411,-188,cs),
(532,-188,o),
(592,-136,o),
(611,-28,cs),
(733,668,l),
(566,668,l),
(492,241,l),
(314,668,l),
(137,668,l),
(20,0,l)
);
}
);
width = 720;
},
{
anchors = (
{
name = bottom;
pos = (259,0);
},
{
name = top;
pos = (376,668);
}
);
layerId = "EC4B77C1-E739-4B44-9572-0CFE97DCA064";
shapes = (
{
closed = 1;
nodes = (
(204,0,l),
(272,391,l),
(435,11,l),
(441,-3,l),
(437,-27,o),
(421,-44,o),
(388,-44,cs),
(375,-44,o),
(364,-45,o),
(347,-42,c),
(323,-178,l),
(348,-185,o),
(378,-188,o),
(406,-188,cs),
(535,-188,o),
(598,-134,o),
(618,-21,cs),
(739,668,l),
(549,668,l),
(481,277,l),
(331,668,l),
(131,668,l),
(14,0,l)
);
}
);
width = 720;
}
);
unicode = 330;
},
{
color = 6;
glyphname = O;
kernLeft = _C1;
kernRight = _D;
lastChange = "2022-05-20 09:41:26 +0000";
layers = (
{
anchors = (
{
name = bottom;
pos = (349,0);
},
{
name = center;
pos = (407,334);
},
{
name = ogonek;
pos = (662,10);
},
{
name = top;
pos = (466,668);
},
{
name = topleft;
pos = (96,668);
},
{
name = topright;
pos = (836,668);
}
);
background = {
shapes = (
{
closed = 1;
nodes = (
(601,-10,o),
(766,142,o),
(766,382,cs),
(766,554,o),
(637,678,o),
(454,678,cs),
(211,678,o),
(46,526,o),
(46,286,cs),
(46,114,o),
(175,-10,o),
(358,-10,cs)
);
},
{
closed = 1;
nodes = (
(281,135,o),
(215,191,o),
(215,291,cs),
(215,439,o),
(310,533,o),
(434,533,cs),
(531,533,o),
(597,477,o),
(597,377,cs),
(597,229,o),
(502,135,o),
(378,135,cs)
);
}
);
};
layerId = "D2242EF2-33C7-49B0-8663-736078BD5B35";
shapes = (
{
closed = 1;
nodes = (
(601,-10,o),
(766,142,o),
(766,382,cs),
(766,554,o),
(637,678,o),
(454,678,cs),
(211,678,o),
(46,526,o),
(46,286,cs),
(46,114,o),
(175,-10,o),
(358,-10,cs)
);
},
{
closed = 1;
nodes = (
(281,135,o),
(215,191,o),
(215,291,cs),
(215,439,o),
(310,533,o),
(434,533,cs),
(531,533,o),
(597,477,o),
(597,377,cs),
(597,229,o),
(502,135,o),
(378,135,cs)
);
}
);
width = 780;
},
{
anchors = (
{
name = bottom;
pos = (349,0);
},
{
name = center;
pos = (407,334);
},
{
name = ogonek;
pos = (662,10);
},
{
name = top;
pos = (466,668);
},
{
name = topleft;
pos = (96,668);
},
{
name = topright;
pos = (836,668);
}
);
background = {
shapes = (
{
closed = 1;
nodes = (
(603,-10,o),
(771,143,o),
(771,380,cs),
(771,552,o),
(640,678,o),
(454,678,cs),
(209,678,o),
(41,525,o),
(41,288,cs),
(41,116,o),
(172,-10,o),
(358,-10,cs)
);
},
{
closed = 1;
nodes = (
(293,154,o),
(233,205,o),
(233,294,cs),
(233,429,o),
(318,514,o),
(430,514,cs),
(519,514,o),
(579,463,o),
(579,374,cs),
(579,239,o),
(494,154,o),
(382,154,cs)
);
}
);
};
layerId = "EC4B77C1-E739-4B44-9572-0CFE97DCA064";
shapes = (
{
closed = 1;
nodes = (
(603,-10,o),
(771,143,o),
(771,380,cs),
(771,552,o),
(640,678,o),
(454,678,cs),
(209,678,o),
(41,525,o),
(41,288,cs),
(41,116,o),
(172,-10,o),
(358,-10,cs)
);
},
{
closed = 1;
nodes = (
(293,154,o),
(233,205,o),
(233,294,cs),
(233,429,o),
(318,514,o),
(430,514,cs),
(519,514,o),
(579,463,o),
(579,374,cs),
(579,239,o),
(494,154,o),
(382,154,cs)
);
}
);
width = 780;
},
{
anchors = (
{
name = bottom;
pos = (349,0);
},
{
name = center;
pos = (407,334);
},
{
name = ogonek;
pos = (662,10);
},
{
name = top;
pos = (466,668);
},
{
name = topleft;
pos = (96,668);
},
{
name = topright;
pos = (836,668);
}
);
background = {
shapes = (
{
closed = 1;
nodes = (
(582,-10,o),
(741,145,o),
(741,393,cs),
(741,565,o),
(620,678,o),
(456,678,cs),
(231,678,o),
(71,521,o),
(71,274,cs),
(71,102,o),
(190,-10,o),
(355,-10,cs)
);
},
{
closed = 1;
nodes = (
(223,43,o),
(131,131,o),
(131,275,cs),
(131,494,o),
(265,625,o),
(452,625,cs),
(588,625,o),
(680,537,o),
(680,392,cs),
(680,174,o),
(545,43,o),
(359,43,cs)
);
}
);
};
layerId = "BA8B9BDD-FBF5-4763-A7AD-14140821EFBD";
shapes = (
{
closed = 1;
nodes = (
(582,-10,o),
(741,145,o),
(741,393,cs),
(741,565,o),
(620,678,o),
(456,678,cs),
(231,678,o),
(71,521,o),
(71,274,cs),
(71,102,o),
(190,-10,o),
(355,-10,cs)
);
},
{
closed = 1;
nodes = (
(223,43,o),
(131,131,o),
(131,275,cs),
(131,494,o),
(265,625,o),
(452,625,cs),
(588,625,o),
(680,537,o),
(680,392,cs),
(680,174,o),
(545,43,o),
(359,43,cs)
);
}
);
width = 780;
},
{
anchors = (
{
name = bottom;
pos = (349,0);
},
{
name = center;
pos = (407,334);
},
{
name = ogonek;
pos = (662,10);
},
{
name = top;
pos = (466,668);
},
{
name = topleft;
pos = (96,668);
},
{
name = topright;
pos = (836,668);
}
);
background = {
shapes = (
{
closed = 1;
nodes = (
(585,-10,o),
(747,145,o),
(747,391,cs),
(747,563,o),
(625,678,o),
(456,678,cs),
(226,678,o),
(65,523,o),
(65,277,cs),
(65,105,o),
(187,-10,o),
(356,-10,cs)
);
},
{
closed = 1;
nodes = (
(239,66,o),
(152,146,o),
(152,279,cs),
(152,480,o),
(276,602,o),
(448,602,cs),
(573,602,o),
(660,522,o),
(660,389,cs),
(660,188,o),
(536,66,o),
(364,66,cs)
);
}
);
};
layerId = "573A4E99-B1EA-4FCA-90B1-EE1ED57C0074";
shapes = (
{
closed = 1;
nodes = (
(585,-10,o),
(747,145,o),
(747,391,cs),
(747,563,o),
(625,678,o),
(456,678,cs),
(226,678,o),
(65,523,o),
(65,277,cs),
(65,105,o),
(187,-10,o),
(356,-10,cs)
);
},
{
closed = 1;
nodes = (
(239,66,o),
(152,146,o),
(152,279,cs),
(152,480,o),
(276,602,o),
(448,602,cs),
(573,602,o),
(660,522,o),
(660,389,cs),
(660,188,o),
(536,66,o),
(364,66,cs)
);
}
);
width = 780;
},
{
anchors = (
{
name = bottom;
pos = (349,0);
},
{
name = center;
pos = (407,334);
},
{
name = ogonek;
pos = (662,10);
},
{
name = top;
pos = (466,668);
},
{
name = topleft;
pos = (96,668);
},
{
name = topright;
pos = (836,668);
}
);
background = {
shapes = (
{
closed = 1;
nodes = (
(596,-10,o),
(760,145,o),
(760,385,cs),
(760,557,o),
(634,678,o),
(455,678,cs),
(216,678,o),
(52,523,o),
(52,283,cs),
(52,111,o),
(178,-10,o),
(357,-10,cs)
);
},
{
closed = 1;
nodes = (
(266,113,o),
(195,176,o),
(195,287,cs),
(195,453,o),
(299,555,o),
(438,555,cs),
(546,555,o),
(617,492,o),
(617,381,cs),
(617,215,o),
(513,113,o),
(374,113,cs)
);
}
);
};
layerId = "261A487E-1CB1-41FD-8732-BC3F4489D58F";
shapes = (
{
closed = 1;
nodes = (
(596,-10,o),
(760,145,o),
(760,385,cs),
(760,557,o),
(634,678,o),
(455,678,cs),
(216,678,o),
(52,523,o),
(52,283,cs),
(52,111,o),
(178,-10,o),
(357,-10,cs)
);
},
{
closed = 1;
nodes = (
(266,113,o),
(195,176,o),
(195,287,cs),
(195,453,o),
(299,555,o),
(438,555,cs),
(546,555,o),
(617,492,o),
(617,381,cs),
(617,215,o),
(513,113,o),
(374,113,cs)
);
}
);
width = 780;
},
{
anchors = (
{
name = bottom;
pos = (349,0);
},
{
name = center;
pos = (407,334);
},
{
name = ogonek;
pos = (662,10);
},
{
name = top;
pos = (466,668);
},
{
name = topleft;
pos = (96,668);
},
{
name = topright;
pos = (836,668);
}
);
background = {
shapes = (
{
closed = 1;
nodes = (
(592,-10,o),
(754,144,o),
(754,388,cs),
(754,560,o),
(628,678,o),
(455,678,cs),
(220,678,o),
(58,524,o),
(58,280,cs),
(58,108,o),
(183,-10,o),
(357,-10,cs)
);
},
{
closed = 1;
nodes = (
(253,91,o),
(175,163,o),
(175,283,cs),
(175,467,o),
(288,577,o),
(443,577,cs),
(559,577,o),
(637,505,o),
(637,385,cs),
(637,201,o),
(524,91,o),
(369,91,cs)
);
}
);
};
layerId = "ACFE83A5-3FD5-4916-9088-BF4CCAF0E845";
shapes = (
{
closed = 1;
nodes = (
(592,-10,o),
(754,144,o),
(754,388,cs),
(754,560,o),
(628,678,o),
(455,678,cs),
(220,678,o),
(58,524,o),
(58,280,cs),
(58,108,o),
(183,-10,o),
(357,-10,cs)
);
},
{
closed = 1;
nodes = (
(253,91,o),
(175,163,o),
(175,283,cs),
(175,467,o),
(288,577,o),
(443,577,cs),
(559,577,o),
(637,505,o),
(637,385,cs),
(637,201,o),
(524,91,o),
(369,91,cs)
);
}
);
width = 780;
},
{
anchors = (
{
name = bottom;
pos = (349,0);
},
{
name = center;
pos = (407,334);
},
{
name = ogonek;
pos = (662,10);
},
{
name = top;
pos = (466,668);
},
{
name = topleft;
pos = (96,668);
},
{
name = topright;
pos = (836,668);
}
);
background = {
shapes = (
{
closed = 1;
nodes = (
(575,-10,o),
(735,146,o),
(735,396,cs),
(735,568,o),
(617,678,o),
(457,678,cs),
(237,678,o),
(77,522,o),
(77,272,cs),
(77,100,o),
(195,-10,o),
(355,-10,cs)
);
},
{
closed = 1;
nodes = (
(210,20,o),
(111,116,o),
(111,272,cs),
(111,508,o),
(257,648,o),
(457,648,cs),
(602,648,o),
(701,552,o),
(701,396,cs),
(701,160,o),
(555,20,o),
(355,20,cs)
);
}
);
};
layerId = "EA8306D6-B852-442A-A16D-2D86AE16EEA2";
shapes = (
{
closed = 1;
nodes = (
(575,-10,o),
(735,146,o),
(735,396,cs),
(735,568,o),
(617,678,o),
(457,678,cs),
(237,678,o),
(77,522,o),
(77,272,cs),
(77,100,o),
(195,-10,o),
(355,-10,cs)
);
},
{
closed = 1;
nodes = (
(210,20,o),
(111,116,o),
(111,272,cs),
(111,508,o),
(257,648,o),
(457,648,cs),
(602,648,o),
(701,552,o),
(701,396,cs),
(701,160,o),
(555,20,o),
(355,20,cs)
);
}
);
width = 780;
}
);
unicode = 79;
},
{
color = 10;
glyphname = Oacute;
kernLeft = _C1;
kernRight = _D;
lastChange = "2022-05-20 09:41:26 +0000";
layers = (
{
background = {
shapes = (
{
closed = 1;
nodes = (
(601,-10,o),
(766,142,o),
(766,382,cs),
(766,554,o),
(637,678,o),
(454,678,cs),
(211,678,o),
(46,526,o),
(46,286,cs),
(46,114,o),
(175,-10,o),
(358,-10,cs)
);
},
{
closed = 1;
nodes = (
(281,135,o),
(215,191,o),
(215,291,cs),
(215,439,o),
(310,533,o),
(434,533,cs),
(531,533,o),
(597,477,o),
(597,377,cs),
(597,229,o),
(502,135,o),
(378,135,cs)
);
},
{
closed = 1;
nodes = (
(531,729,l),
(671,888,l),
(513,888,l),
(421,729,l)
);
}
);
};
layerId = "D2242EF2-33C7-49B0-8663-736078BD5B35";
shapes = (
{
ref = O;
},
{
pos = (111,198);
ref = acutecomb;
}
);
width = 780;
},
{
background = {
shapes = (
{
closed = 1;
nodes = (
(603,-10,o),
(771,143,o),
(771,380,cs),
(771,552,o),
(640,678,o),
(454,678,cs),
(209,678,o),
(41,525,o),
(41,288,cs),
(41,116,o),
(172,-10,o),
(358,-10,cs)
);
},
{
closed = 1;
nodes = (
(293,154,o),
(233,205,o),
(233,294,cs),
(233,429,o),
(318,514,o),
(430,514,cs),
(519,514,o),
(579,463,o),
(579,374,cs),
(579,239,o),
(494,154,o),
(382,154,cs)
);
},
{
closed = 1;
nodes = (
(538,726,l),
(681,888,l),
(503,888,l),
(414,726,l)
);
}
);
};
layerId = "EC4B77C1-E739-4B44-9572-0CFE97DCA064";
shapes = (
{
ref = O;
},
{
pos = (109,198);
ref = acutecomb;
}
);
width = 780;
},
{
background = {
shapes = (
{
closed = 1;
nodes = (
(582,-10,o),
(741,145,o),
(741,393,cs),
(741,565,o),
(620,678,o),
(456,678,cs),
(231,678,o),
(71,521,o),
(71,274,cs),
(71,102,o),
(190,-10,o),
(355,-10,cs)
);
},
{
closed = 1;
nodes = (
(223,43,o),
(131,131,o),
(131,275,cs),
(131,494,o),
(265,625,o),
(452,625,cs),
(588,625,o),
(680,537,o),
(680,392,cs),
(680,174,o),
(545,43,o),
(359,43,cs)
);
},
{
closed = 1;
nodes = (
(500,742,l),
(622,888,l),
(560,888,l),
(457,742,l)
);
}
);
};
layerId = "BA8B9BDD-FBF5-4763-A7AD-14140821EFBD";
shapes = (
{
ref = O;
},
{
pos = (118,198);
ref = acutecomb;
}
);
width = 780;
},
{
background = {
shapes = (
{
closed = 1;
nodes = (
(585,-10,o),
(747,145,o),
(747,391,cs),
(747,563,o),
(625,678,o),
(456,678,cs),
(226,678,o),
(65,523,o),
(65,277,cs),
(65,105,o),
(187,-10,o),
(356,-10,cs)
);
},
{
closed = 1;
nodes = (
(239,66,o),
(152,146,o),
(152,279,cs),
(152,480,o),
(276,602,o),
(448,602,cs),
(573,602,o),
(660,522,o),
(660,389,cs),
(660,188,o),
(536,66,o),
(364,66,cs)
);
},
{
closed = 1;
nodes = (
(508,739,l),
(634,888,l),
(549,888,l),
(448,739,l)
);
}
);
};
layerId = "573A4E99-B1EA-4FCA-90B1-EE1ED57C0074";
shapes = (
{
ref = O;
},
{
pos = (117,198);
ref = acutecomb;
}
);
width = 780;
},
{
background = {
shapes = (
{
closed = 1;
nodes = (
(596,-10,o),
(760,145,o),
(760,385,cs),
(760,557,o),
(634,678,o),
(455,678,cs),
(216,678,o),
(52,523,o),
(52,283,cs),
(52,111,o),
(178,-10,o),
(357,-10,cs)
);
},
{
closed = 1;
nodes = (
(266,113,o),
(195,176,o),
(195,287,cs),
(195,453,o),
(299,555,o),
(438,555,cs),
(546,555,o),
(617,492,o),
(617,381,cs),
(617,215,o),
(513,113,o),
(374,113,cs)
);
},
{
closed = 1;
nodes = (
(524,732,l),
(659,888,l),
(525,888,l),
(430,732,l)
);
}
);
};
layerId = "261A487E-1CB1-41FD-8732-BC3F4489D58F";
shapes = (
{
ref = O;
},
{
pos = (113,198);
ref = acutecomb;
}
);
width = 780;
},
{
background = {
shapes = (
{
closed = 1;
nodes = (
(592,-10,o),
(754,144,o),
(754,388,cs),
(754,560,o),
(628,678,o),
(455,678,cs),
(220,678,o),
(58,524,o),
(58,280,cs),
(58,108,o),
(183,-10,o),
(357,-10,cs)
);
},
{
closed = 1;
nodes = (
(253,91,o),
(175,163,o),
(175,283,cs),
(175,467,o),
(288,577,o),
(443,577,cs),
(559,577,o),
(637,505,o),
(637,385,cs),
(637,201,o),
(524,91,o),
(369,91,cs)
);
},
{
closed = 1;
nodes = (
(516,735,l),
(647,888,l),
(536,888,l),
(438,735,l)
);
}
);
};
layerId = "ACFE83A5-3FD5-4916-9088-BF4CCAF0E845";
shapes = (
{
ref = O;
},
{
pos = (115,198);
ref = acutecomb;
}
);
width = 780;
},
{
background = {
shapes = (
{
closed = 1;
nodes = (
(575,-10,o),
(735,146,o),
(735,396,cs),
(735,568,o),
(617,678,o),
(457,678,cs),
(237,678,o),
(77,522,o),
(77,272,cs),
(77,100,o),
(195,-10,o),
(355,-10,cs)
);
},
{
closed = 1;
nodes = (
(210,20,o),
(111,116,o),
(111,272,cs),
(111,508,o),
(257,648,o),
(457,648,cs),
(602,648,o),
(701,552,o),
(701,396,cs),
(701,160,o),
(555,20,o),
(355,20,cs)
);
},
{
closed = 1;
nodes = (
(492,746,l),
(610,888,l),
(572,888,l),
(466,746,l)
);
}
);
};
layerId = "EA8306D6-B852-442A-A16D-2D86AE16EEA2";
shapes = (
{
ref = O;
},
{
pos = (120,198);
ref = acutecomb;
}
);
width = 780;
}
);
unicode = 211;
},
{
color = 10;
glyphname = Ocircumflex;
kernLeft = _C1;
kernRight = _D;
lastChange = "2022-05-20 09:41:26 +0000";
layers = (
{
background = {
shapes = (
{
closed = 1;
nodes = (
(601,-10,o),
(766,142,o),
(766,382,cs),
(766,554,o),
(637,678,o),
(454,678,cs),
(211,678,o),
(46,526,o),
(46,286,cs),
(46,114,o),
(175,-10,o),
(358,-10,cs)
);
},
{
closed = 1;
nodes = (
(281,135,o),
(215,191,o),
(215,291,cs),
(215,439,o),
(310,533,o),
(434,533,cs),
(531,533,o),
(597,477,o),
(597,377,cs),
(597,229,o),
(502,135,o),
(378,135,cs)
);
},
{
closed = 1;
nodes = (
(434,729,l),
(499,807,l),
(536,729,l),
(643,729,l),
(576,888,l),
(434,888,l),
(310,729,l)
);
}
);
};
layerId = "D2242EF2-33C7-49B0-8663-736078BD5B35";
shapes = (
{
ref = O;
},
{
pos = (126,198);
ref = circumflexcomb;
}
);
width = 780;
},
{
background = {
shapes = (
{
closed = 1;
nodes = (
(603,-10,o),
(771,143,o),
(771,380,cs),
(771,552,o),
(640,678,o),
(454,678,cs),
(209,678,o),
(41,525,o),
(41,288,cs),
(41,116,o),
(172,-10,o),
(358,-10,cs)
);
},
{
closed = 1;
nodes = (
(293,154,o),
(233,205,o),
(233,294,cs),
(233,429,o),
(318,514,o),
(430,514,cs),
(519,514,o),
(579,463,o),
(579,374,cs),
(579,239,o),
(494,154,o),
(382,154,cs)
);
},
{
closed = 1;
nodes = (
(441,726,l),
(498,797,l),
(529,726,l),
(650,726,l),
(585,888,l),
(425,888,l),
(302,726,l)
);
}
);
};
layerId = "EC4B77C1-E739-4B44-9572-0CFE97DCA064";
shapes = (
{
ref = O;
},
{
pos = (126,198);
ref = circumflexcomb;
}
);
width = 780;
},
{
background = {
shapes = (
{
closed = 1;
nodes = (
(582,-10,o),
(741,145,o),
(741,393,cs),
(741,565,o),
(620,678,o),
(456,678,cs),
(231,678,o),
(71,521,o),
(71,274,cs),
(71,102,o),
(190,-10,o),
(355,-10,cs)
);
},
{
closed = 1;
nodes = (
(223,43,o),
(131,131,o),
(131,275,cs),
(131,494,o),
(265,625,o),
(452,625,cs),
(588,625,o),
(680,537,o),
(680,392,cs),
(680,174,o),
(545,43,o),
(359,43,cs)
);
},
{
closed = 1;
nodes = (
(398,742,l),
(502,855,l),
(566,742,l),
(611,742,l),
(532,888,l),
(475,888,l),
(346,742,l)
);
}
);
};
layerId = "BA8B9BDD-FBF5-4763-A7AD-14140821EFBD";
shapes = (
{
ref = O;
},
{
pos = (127,198);
ref = circumflexcomb;
}
);
width = 780;
},
{
background = {
shapes = (
{
closed = 1;
nodes = (
(585,-10,o),
(747,145,o),
(747,391,cs),
(747,563,o),
(625,678,o),
(456,678,cs),
(226,678,o),
(65,523,o),
(65,277,cs),
(65,105,o),
(187,-10,o),
(356,-10,cs)
);
},
{
closed = 1;
nodes = (
(239,66,o),
(152,146,o),
(152,279,cs),
(152,480,o),
(276,602,o),
(448,602,cs),
(573,602,o),
(660,522,o),
(660,389,cs),
(660,188,o),
(536,66,o),
(364,66,cs)
);
},
{
closed = 1;
nodes = (
(407,739,l),
(501,843,l),
(559,739,l),
(619,739,l),
(543,888,l),
(465,888,l),
(337,739,l)
);
}
);
};
layerId = "573A4E99-B1EA-4FCA-90B1-EE1ED57C0074";
shapes = (
{
ref = O;
},
{
pos = (127,198);
ref = circumflexcomb;
}
);
width = 780;
},
{
background = {
shapes = (
{
closed = 1;
nodes = (
(596,-10,o),
(760,145,o),
(760,385,cs),
(760,557,o),
(634,678,o),
(455,678,cs),
(216,678,o),
(52,523,o),
(52,283,cs),
(52,111,o),
(178,-10,o),
(357,-10,cs)
);
},
{
closed = 1;
nodes = (
(266,113,o),
(195,176,o),
(195,287,cs),
(195,453,o),
(299,555,o),
(438,555,cs),
(546,555,o),
(617,492,o),
(617,381,cs),
(617,215,o),
(513,113,o),
(374,113,cs)
);
},
{
closed = 1;
nodes = (
(425,732,l),
(499,819,l),
(543,732,l),
(635,732,l),
(565,888,l),
(444,888,l),
(318,732,l)
);
}
);
};
layerId = "261A487E-1CB1-41FD-8732-BC3F4489D58F";
shapes = (
{
ref = O;
},
{
pos = (127,198);
ref = circumflexcomb;
}
);
width = 780;
},
{
background = {
shapes = (
{
closed = 1;
nodes = (
(592,-10,o),
(754,144,o),
(754,388,cs),
(754,560,o),
(628,678,o),
(455,678,cs),
(220,678,o),
(58,524,o),
(58,280,cs),
(58,108,o),
(183,-10,o),
(357,-10,cs)
);
},
{
closed = 1;
nodes = (
(253,91,o),
(175,163,o),
(175,283,cs),
(175,467,o),
(288,577,o),
(443,577,cs),
(559,577,o),
(637,505,o),
(637,385,cs),
(637,201,o),
(524,91,o),
(369,91,cs)
);
},
{
closed = 1;
nodes = (
(417,735,l),
(500,830,l),
(551,735,l),
(628,735,l),
(555,888,l),
(454,888,l),
(327,735,l)
);
}
);
};
layerId = "ACFE83A5-3FD5-4916-9088-BF4CCAF0E845";
shapes = (
{
ref = O;
},
{
pos = (126,198);
ref = circumflexcomb;
}
);
width = 780;
},
{
background = {
shapes = (
{
closed = 1;
nodes = (
(575,-10,o),
(735,146,o),
(735,396,cs),
(735,568,o),
(617,678,o),
(457,678,cs),
(237,678,o),
(77,522,o),
(77,272,cs),
(77,100,o),
(195,-10,o),
(355,-10,cs)
);
},
{
closed = 1;
nodes = (
(210,20,o),
(111,116,o),
(111,272,cs),
(111,508,o),
(257,648,o),
(457,648,cs),
(602,648,o),
(701,552,o),
(701,396,cs),
(701,160,o),
(555,20,o),
(355,20,cs)
);
},
{
closed = 1;
nodes = (
(390,746,l),
(503,867,l),
(574,746,l),
(603,746,l),
(522,888,l),
(486,888,l),
(355,746,l)
);
}
);
};
layerId = "EA8306D6-B852-442A-A16D-2D86AE16EEA2";
shapes = (
{
ref = O;
},
{
pos = (127,198);
ref = circumflexcomb;
}
);
width = 780;
}
);
unicode = 212;
},
{
color = 10;
glyphname = Odieresis;
kernLeft = _C1;
kernRight = _D;
lastChange = "2022-05-20 09:41:26 +0000";
layers = (
{
background = {
shapes = (
{
closed = 1;
nodes = (
(601,-10,o),
(766,142,o),
(766,382,cs),
(766,554,o),
(637,678,o),
(454,678,cs),
(211,678,o),
(46,526,o),
(46,286,cs),
(46,114,o),
(175,-10,o),
(358,-10,cs)
);
},
{
closed = 1;
nodes = (
(281,135,o),
(215,191,o),
(215,291,cs),
(215,439,o),
(310,533,o),
(434,533,cs),
(531,533,o),
(597,477,o),
(597,377,cs),
(597,229,o),
(502,135,o),
(378,135,cs)
);
},
{
closed = 1;
nodes = (
(430,737,o),
(464,770,o),
(464,818,cs),
(464,853,o),
(441,880,o),
(398,880,cs),
(347,880,o),
(313,847,o),
(313,799,cs),
(313,764,o),
(336,737,o),
(379,737,cs)
);
},
{
closed = 1;
nodes = (
(635,737,o),
(669,770,o),
(669,818,cs),
(669,853,o),
(646,880,o),
(603,880,cs),
(552,880,o),
(518,847,o),
(518,799,cs),
(518,764,o),
(541,737,o),
(584,737,cs)
);
}
);
};
layerId = "D2242EF2-33C7-49B0-8663-736078BD5B35";
shapes = (
{
ref = O;
},
{
pos = (126,198);
ref = dieresiscomb;
}
);
width = 780;
},
{
background = {
shapes = (
{
closed = 1;
nodes = (
(603,-10,o),
(771,143,o),
(771,380,cs),
(771,552,o),
(640,678,o),
(454,678,cs),
(209,678,o),
(41,525,o),
(41,288,cs),
(41,116,o),
(172,-10,o),
(358,-10,cs)
);
},
{
closed = 1;
nodes = (
(293,154,o),
(233,205,o),
(233,294,cs),
(233,429,o),
(318,514,o),
(430,514,cs),
(519,514,o),
(579,463,o),
(579,374,cs),
(579,239,o),
(494,154,o),
(382,154,cs)
);
},
{
closed = 1;
nodes = (
(432,728,o),
(470,763,o),
(470,818,cs),
(470,857,o),
(444,886,o),
(397,886,cs),
(340,886,o),
(302,851,o),
(302,796,cs),
(302,757,o),
(328,728,o),
(375,728,cs)
);
},
{
closed = 1;
nodes = (
(642,728,o),
(680,763,o),
(680,818,cs),
(680,857,o),
(654,886,o),
(607,886,cs),
(550,886,o),
(512,851,o),
(512,796,cs),
(512,757,o),
(538,728,o),
(585,728,cs)
);
}
);
};
layerId = "EC4B77C1-E739-4B44-9572-0CFE97DCA064";
shapes = (
{
ref = O;
},
{
pos = (126,198);
ref = dieresiscomb;
}
);
width = 780;
},
{
background = {
shapes = (
{
closed = 1;
nodes = (
(582,-10,o),
(741,145,o),
(741,393,cs),
(741,565,o),
(620,678,o),
(456,678,cs),
(231,678,o),
(71,521,o),
(71,274,cs),
(71,102,o),
(190,-10,o),
(355,-10,cs)
);
},
{
closed = 1;
nodes = (
(223,43,o),
(131,131,o),
(131,275,cs),
(131,494,o),
(265,625,o),
(452,625,cs),
(588,625,o),
(680,537,o),
(680,392,cs),
(680,174,o),
(545,43,o),
(359,43,cs)
);
},
{
closed = 1;
nodes = (
(420,782,o),
(435,797,o),
(435,818,cs),
(435,835,o),
(424,848,o),
(403,848,cs),
(380,848,o),
(365,835,o),
(365,812,cs),
(365,795,o),
(376,782,o),
(396,782,cs)
);
},
{
closed = 1;
nodes = (
(603,782,o),
(618,797,o),
(618,818,cs),
(618,835,o),
(607,848,o),
(586,848,cs),
(563,848,o),
(548,835,o),
(548,812,cs),
(548,795,o),
(559,782,o),
(579,782,cs)
);
}
);
};
layerId = "BA8B9BDD-FBF5-4763-A7AD-14140821EFBD";
shapes = (
{
ref = O;
},
{
pos = (127,198);
ref = dieresiscomb;
}
);
width = 780;
},
{
background = {
shapes = (
{
closed = 1;
nodes = (
(585,-10,o),
(747,145,o),
(747,391,cs),
(747,563,o),
(625,678,o),
(456,678,cs),
(226,678,o),
(65,523,o),
(65,277,cs),
(65,105,o),
(187,-10,o),
(356,-10,cs)
);
},
{
closed = 1;
nodes = (
(239,66,o),
(152,146,o),
(152,279,cs),
(152,480,o),
(276,602,o),
(448,602,cs),
(573,602,o),
(660,522,o),
(660,389,cs),
(660,188,o),
(536,66,o),
(364,66,cs)
);
},
{
closed = 1;
nodes = (
(424,770,o),
(443,790,o),
(443,818,cs),
(443,839,o),
(429,857,o),
(402,857,cs),
(371,857,o),
(351,838,o),
(351,809,cs),
(351,786,o),
(365,770,o),
(392,770,cs)
);
},
{
closed = 1;
nodes = (
(612,770,o),
(631,790,o),
(631,818,cs),
(631,839,o),
(617,857,o),
(590,857,cs),
(559,857,o),
(539,838,o),
(539,809,cs),
(539,786,o),
(553,770,o),
(580,770,cs)
);
}
);
};
layerId = "573A4E99-B1EA-4FCA-90B1-EE1ED57C0074";
shapes = (
{
ref = O;
},
{
pos = (126,198);
ref = dieresiscomb;
}
);
width = 780;
},
{
background = {
shapes = (
{
closed = 1;
nodes = (
(596,-10,o),
(760,145,o),
(760,385,cs),
(760,557,o),
(634,678,o),
(455,678,cs),
(216,678,o),
(52,523,o),
(52,283,cs),
(52,111,o),
(178,-10,o),
(357,-10,cs)
);
},
{
closed = 1;
nodes = (
(266,113,o),
(195,176,o),
(195,287,cs),
(195,453,o),
(299,555,o),
(438,555,cs),
(546,555,o),
(617,492,o),
(617,381,cs),
(617,215,o),
(513,113,o),
(374,113,cs)
);
},
{
closed = 1;
nodes = (
(428,748,o),
(457,775,o),
(457,818,cs),
(457,849,o),
(438,872,o),
(399,872,cs),
(355,872,o),
(325,845,o),
(325,802,cs),
(325,771,o),
(346,748,o),
(383,748,cs)
);
},
{
closed = 1;
nodes = (
(628,748,o),
(657,775,o),
(657,818,cs),
(657,849,o),
(638,872,o),
(599,872,cs),
(554,872,o),
(525,845,o),
(525,802,cs),
(525,771,o),
(546,748,o),
(583,748,cs)
);
}
);
};
layerId = "261A487E-1CB1-41FD-8732-BC3F4489D58F";
shapes = (
{
ref = O;
},
{
pos = (126,198);
ref = dieresiscomb;
}
);
width = 780;
},
{
background = {
shapes = (
{
closed = 1;
nodes = (
(592,-10,o),
(754,144,o),
(754,388,cs),
(754,560,o),
(628,678,o),
(455,678,cs),
(220,678,o),
(58,524,o),
(58,280,cs),
(58,108,o),
(183,-10,o),
(357,-10,cs)
);
},
{
closed = 1;
nodes = (
(253,91,o),
(175,163,o),
(175,283,cs),
(175,467,o),
(288,577,o),
(443,577,cs),
(559,577,o),
(637,505,o),
(637,385,cs),
(637,201,o),
(524,91,o),
(369,91,cs)
);
},
{
closed = 1;
nodes = (
(426,758,o),
(451,783,o),
(451,818,cs),
(451,845,o),
(433,865,o),
(401,865,cs),
(362,865,o),
(337,841,o),
(337,805,cs),
(337,778,o),
(356,758,o),
(387,758,cs)
);
},
{
closed = 1;
nodes = (
(620,758,o),
(645,783,o),
(645,818,cs),
(645,845,o),
(627,865,o),
(595,865,cs),
(556,865,o),
(531,841,o),
(531,805,cs),
(531,778,o),
(550,758,o),
(581,758,cs)
);
}
);
};
layerId = "ACFE83A5-3FD5-4916-9088-BF4CCAF0E845";
shapes = (
{
ref = O;
},
{
pos = (126,198);
ref = dieresiscomb;
}
);
width = 780;
},
{
background = {
shapes = (
{
closed = 1;
nodes = (
(575,-10,o),
(735,146,o),
(735,396,cs),
(735,568,o),
(617,678,o),
(457,678,cs),
(237,678,o),
(77,522,o),
(77,272,cs),
(77,100,o),
(195,-10,o),
(355,-10,cs)
);
},
{
closed = 1;
nodes = (
(210,20,o),
(111,116,o),
(111,272,cs),
(111,508,o),
(257,648,o),
(457,648,cs),
(602,648,o),
(701,552,o),
(701,396,cs),
(701,160,o),
(555,20,o),
(355,20,cs)
);
},
{
closed = 1;
nodes = (
(418,795,o),
(427,803,o),
(427,819,cs),
(427,832,o),
(420,839,o),
(405,839,cs),
(388,839,o),
(379,831,o),
(379,815,cs),
(379,802,o),
(386,795,o),
(401,795,cs)
);
},
{
closed = 1;
nodes = (
(596,795,o),
(605,803,o),
(605,819,cs),
(605,832,o),
(598,839,o),
(583,839,cs),
(566,839,o),
(557,831,o),
(557,815,cs),
(557,802,o),
(564,795,o),
(579,795,cs)
);
}
);
};
layerId = "EA8306D6-B852-442A-A16D-2D86AE16EEA2";
shapes = (
{
ref = O;
},
{
pos = (126,198);
ref = dieresiscomb;
}
);
width = 780;
}
);
unicode = 214;
},
{
color = 10;
glyphname = Ograve;
kernLeft = _C1;
kernRight = _D;
lastChange = "2022-05-20 09:41:26 +0000";
layers = (
{
background = {
shapes = (
{
closed = 1;
nodes = (
(601,-10,o),
(766,142,o),
(766,382,cs),
(766,554,o),
(637,678,o),
(454,678,cs),
(211,678,o),
(46,526,o),
(46,286,cs),
(46,114,o),
(175,-10,o),
(358,-10,cs)
);
},
{
closed = 1;
nodes = (
(281,135,o),
(215,191,o),
(215,291,cs),
(215,439,o),
(310,533,o),
(434,533,cs),
(531,533,o),
(597,477,o),
(597,377,cs),
(597,229,o),
(502,135,o),
(378,135,cs)
);
},
{
closed = 1;
nodes = (
(528,729,l),
(493,888,l),
(343,888,l),
(425,729,l)
);
}
);
};
layerId = "D2242EF2-33C7-49B0-8663-736078BD5B35";
shapes = (
{
ref = O;
},
{
pos = (141,198);
ref = gravecomb;
}
);
width = 780;
},
{
background = {
shapes = (
{
closed = 1;
nodes = (
(603,-10,o),
(771,143,o),
(771,380,cs),
(771,552,o),
(640,678,o),
(454,678,cs),
(209,678,o),
(41,525,o),
(41,288,cs),
(41,116,o),
(172,-10,o),
(358,-10,cs)
);
},
{
closed = 1;
nodes = (
(293,154,o),
(233,205,o),
(233,294,cs),
(233,429,o),
(318,514,o),
(430,514,cs),
(519,514,o),
(579,463,o),
(579,374,cs),
(579,239,o),
(494,154,o),
(382,154,cs)
);
},
{
closed = 1;
nodes = (
(534,726,l),
(503,888,l),
(333,888,l),
(418,726,l)
);
}
);
};
layerId = "EC4B77C1-E739-4B44-9572-0CFE97DCA064";
shapes = (
{
ref = O;
},
{
pos = (143,198);
ref = gravecomb;
}
);
width = 780;
},
{
background = {
shapes = (
{
closed = 1;
nodes = (
(582,-10,o),
(741,145,o),
(741,393,cs),
(741,565,o),
(620,678,o),
(456,678,cs),
(231,678,o),
(71,521,o),
(71,274,cs),
(71,102,o),
(190,-10,o),
(355,-10,cs)
);
},
{
closed = 1;
nodes = (
(223,43,o),
(131,131,o),
(131,275,cs),
(131,494,o),
(265,625,o),
(452,625,cs),
(588,625,o),
(680,537,o),
(680,392,cs),
(680,174,o),
(545,43,o),
(359,43,cs)
);
},
{
closed = 1;
nodes = (
(497,742,l),
(445,888,l),
(388,888,l),
(459,742,l)
);
}
);
};
layerId = "BA8B9BDD-FBF5-4763-A7AD-14140821EFBD";
shapes = (
{
ref = O;
},
{
pos = (135,198);
ref = gravecomb;
}
);
width = 780;
},
{
background = {
shapes = (
{
closed = 1;
nodes = (
(585,-10,o),
(747,145,o),
(747,391,cs),
(747,563,o),
(625,678,o),
(456,678,cs),
(226,678,o),
(65,523,o),
(65,277,cs),
(65,105,o),
(187,-10,o),
(356,-10,cs)
);
},
{
closed = 1;
nodes = (
(239,66,o),
(152,146,o),
(152,279,cs),
(152,480,o),
(276,602,o),
(448,602,cs),
(573,602,o),
(660,522,o),
(660,389,cs),
(660,188,o),
(536,66,o),
(364,66,cs)
);
},
{
closed = 1;
nodes = (
(505,739,l),
(457,888,l),
(377,888,l),
(451,739,l)
);
}
);
};
layerId = "573A4E99-B1EA-4FCA-90B1-EE1ED57C0074";
shapes = (
{
ref = O;
},
{
pos = (137,198);
ref = gravecomb;
}
);
width = 780;
},
{
background = {
shapes = (
{
closed = 1;
nodes = (
(596,-10,o),
(760,145,o),
(760,385,cs),
(760,557,o),
(634,678,o),
(455,678,cs),
(216,678,o),
(52,523,o),
(52,283,cs),
(52,111,o),
(178,-10,o),
(357,-10,cs)
);
},
{
closed = 1;
nodes = (
(266,113,o),
(195,176,o),
(195,287,cs),
(195,453,o),
(299,555,o),
(438,555,cs),
(546,555,o),
(617,492,o),
(617,381,cs),
(617,215,o),
(513,113,o),
(374,113,cs)
);
},
{
closed = 1;
nodes = (
(520,732,l),
(481,888,l),
(354,888,l),
(434,732,l)
);
}
);
};
layerId = "261A487E-1CB1-41FD-8732-BC3F4489D58F";
shapes = (
{
ref = O;
},
{
pos = (140,198);
ref = gravecomb;
}
);
width = 780;
},
{
background = {
shapes = (
{
closed = 1;
nodes = (
(592,-10,o),
(754,144,o),
(754,388,cs),
(754,560,o),
(628,678,o),
(455,678,cs),
(220,678,o),
(58,524,o),
(58,280,cs),
(58,108,o),
(183,-10,o),
(357,-10,cs)
);
},
{
closed = 1;
nodes = (
(253,91,o),
(175,163,o),
(175,283,cs),
(175,467,o),
(288,577,o),
(443,577,cs),
(559,577,o),
(637,505,o),
(637,385,cs),
(637,201,o),
(524,91,o),
(369,91,cs)
);
},
{
closed = 1;
nodes = (
(513,735,l),
(470,888,l),
(365,888,l),
(442,735,l)
);
}
);
};
layerId = "ACFE83A5-3FD5-4916-9088-BF4CCAF0E845";
shapes = (
{
ref = O;
},
{
pos = (138,198);
ref = gravecomb;
}
);
width = 780;
},
{
background = {
shapes = (
{
closed = 1;
nodes = (
(575,-10,o),
(735,146,o),
(735,396,cs),
(735,568,o),
(617,678,o),
(457,678,cs),
(237,678,o),
(77,522,o),
(77,272,cs),
(77,100,o),
(195,-10,o),
(355,-10,cs)
);
},
{
closed = 1;
nodes = (
(210,20,o),
(111,116,o),
(111,272,cs),
(111,508,o),
(257,648,o),
(457,648,cs),
(602,648,o),
(701,552,o),
(701,396,cs),
(701,160,o),
(555,20,o),
(355,20,cs)
);
},
{
closed = 1;
nodes = (
(490,746,l),
(434,888,l),
(400,888,l),
(468,746,l)
);
}
);
};
layerId = "EA8306D6-B852-442A-A16D-2D86AE16EEA2";
shapes = (
{
ref = O;
},
{
pos = (133,198);
ref = gravecomb;
}
);
width = 780;
}
);
unicode = 210;
},
{
color = 6;
glyphname = Oslash;
kernLeft = _C1;
kernRight = _D;
lastChange = "2022-05-20 09:41:26 +0000";
layers = (
{
anchors = (
{
name = bottom;
pos = (349,0);
},
{
name = top;
pos = (466,668);
}
);
background = {
shapes = (
{
closed = 1;
nodes = (
(140,67,l),
(195,18,o),
(270,-10,o),
(358,-10,cs),
(601,-10,o),
(766,142,o),
(766,382,cs),
(766,442,o),
(750,494,o),
(723,539,c),
(814,613,l),
(769,678,l),
(672,600,l),
(617,649,o),
(542,678,o),
(454,678,cs),
(211,678,o),
(46,526,o),
(46,286,cs),
(46,227,o),
(60,174,o),
(89,128,c),
(-1,55,l),
(44,-10,l)
);
},
{
closed = 1;
nodes = (
(333,135,o),
(296,147,o),
(267,170,c),
(589,431,l),
(594,414,o),
(597,397,o),
(597,377,cs),
(597,229,o),
(502,135,o),
(378,135,cs)
);
},
{
closed = 1;
nodes = (
(218,253,o),
(215,272,o),
(215,291,cs),
(215,439,o),
(310,533,o),
(434,533,cs),
(481,533,o),
(518,521,o),
(546,497,c),
(223,236,l)
);
}
);
};
layerId = "D2242EF2-33C7-49B0-8663-736078BD5B35";
shapes = (
{
closed = 1;
nodes = (
(140,67,l),
(195,18,o),
(270,-10,o),
(358,-10,cs),
(601,-10,o),
(766,142,o),
(766,382,cs),
(766,442,o),
(750,494,o),
(723,539,c),
(814,613,l),
(769,678,l),
(672,600,l),
(617,649,o),
(542,678,o),
(454,678,cs),
(211,678,o),
(46,526,o),
(46,286,cs),
(46,227,o),
(60,174,o),
(89,128,c),
(-1,55,l),
(44,-10,l)
);
},
{
closed = 1;
nodes = (
(333,135,o),
(296,147,o),
(267,170,c),
(589,431,l),
(594,414,o),
(597,397,o),
(597,377,cs),
(597,229,o),
(502,135,o),
(378,135,cs)
);
},
{
closed = 1;
nodes = (
(218,253,o),
(215,272,o),
(215,291,cs),
(215,439,o),
(310,533,o),
(434,533,cs),
(481,533,o),
(518,521,o),
(546,497,c),
(223,236,l)
);
}
);
width = 780;
},
{
anchors = (
{
name = bottom;
pos = (349,0);
},
{
name = top;
pos = (466,668);
}
);
background = {
shapes = (
{
closed = 1;
nodes = (
(139,66,l),
(195,18,o),
(270,-10,o),
(358,-10,cs),
(603,-10,o),
(771,143,o),
(771,380,cs),
(771,437,o),
(757,489,o),
(729,534,c),
(818,605,l),
(769,678,l),
(673,602,l),
(617,650,o),
(542,678,o),
(454,678,cs),
(209,678,o),
(41,525,o),
(41,288,cs),
(41,230,o),
(55,178,o),
(83,133,c),
(-5,63,l),
(44,-10,l)
);
},
{
closed = 1;
nodes = (
(342,154,o),
(310,163,o),
(285,181,c),
(575,412,l),
(578,400,o),
(579,387,o),
(579,374,cs),
(579,239,o),
(494,154,o),
(382,154,cs)
);
},
{
closed = 1;
nodes = (
(234,266,o),
(233,279,o),
(233,294,cs),
(233,429,o),
(318,514,o),
(430,514,cs),
(469,514,o),
(501,505,o),
(527,486,c),
(237,255,l)
);
}
);
};
layerId = "EC4B77C1-E739-4B44-9572-0CFE97DCA064";
shapes = (
{
closed = 1;
nodes = (
(139,66,l),
(195,18,o),
(270,-10,o),
(358,-10,cs),
(603,-10,o),
(771,143,o),
(771,380,cs),
(771,437,o),
(757,489,o),
(729,534,c),
(818,605,l),
(769,678,l),
(673,602,l),
(617,650,o),
(542,678,o),
(454,678,cs),
(209,678,o),
(41,525,o),
(41,288,cs),
(41,230,o),
(55,178,o),
(83,133,c),
(-5,63,l),
(44,-10,l)
);
},
{
closed = 1;
nodes = (
(342,154,o),
(310,163,o),
(285,181,c),
(575,412,l),
(578,400,o),
(579,387,o),
(579,374,cs),
(579,239,o),
(494,154,o),
(382,154,cs)
);
},
{
closed = 1;
nodes = (
(234,266,o),
(233,279,o),
(233,294,cs),
(233,429,o),
(318,514,o),
(430,514,cs),
(469,514,o),
(501,505,o),
(527,486,c),
(237,255,l)
);
}
);
width = 780;
},
{
anchors = (
{
name = bottom;
pos = (349,0);
},
{
name = top;
pos = (466,668);
}
);
background = {
shapes = (
{
closed = 1;
nodes = (
(142,76,l),
(193,20,o),
(267,-10,o),
(355,-10,cs),
(582,-10,o),
(741,145,o),
(741,393,cs),
(741,458,o),
(724,514,o),
(693,561,c),
(793,649,l),
(769,678,l),
(669,590,l),
(618,646,o),
(544,678,o),
(456,678,cs),
(231,678,o),
(71,521,o),
(71,274,cs),
(71,207,o),
(88,151,o),
(119,106,c),
(20,19,l),
(44,-10,l)
);
},
{
closed = 1;
nodes = (
(284,43,o),
(226,67,o),
(185,114,c),
(648,521,l),
(668,486,o),
(680,443,o),
(680,392,cs),
(680,174,o),
(545,43,o),
(359,43,cs)
);
},
{
closed = 1;
nodes = (
(142,180,o),
(131,224,o),
(131,275,cs),
(131,494,o),
(265,625,o),
(452,625,cs),
(525,625,o),
(586,599,o),
(626,552,c),
(163,145,l)
);
}
);
};
layerId = "BA8B9BDD-FBF5-4763-A7AD-14140821EFBD";
shapes = (
{
closed = 1;
nodes = (
(142,76,l),
(193,20,o),
(267,-10,o),
(355,-10,cs),
(582,-10,o),
(741,145,o),
(741,393,cs),
(741,458,o),
(724,514,o),
(693,561,c),
(793,649,l),
(769,678,l),
(669,590,l),
(618,646,o),
(544,678,o),
(456,678,cs),
(231,678,o),
(71,521,o),
(71,274,cs),
(71,207,o),
(88,151,o),
(119,106,c),
(20,19,l),
(44,-10,l)
);
},
{
closed = 1;
nodes = (
(284,43,o),
(226,67,o),
(185,114,c),
(648,521,l),
(668,486,o),
(680,443,o),
(680,392,cs),
(680,174,o),
(545,43,o),
(359,43,cs)
);
},
{
closed = 1;
nodes = (
(142,180,o),
(131,224,o),
(131,275,cs),
(131,494,o),
(265,625,o),
(452,625,cs),
(525,625,o),
(586,599,o),
(626,552,c),
(163,145,l)
);
}
);
width = 780;
},
{
anchors = (
{
name = bottom;
pos = (349,0);
},
{
name = top;
pos = (466,668);
}
);
background = {
shapes = (
{
closed = 1;
nodes = (
(141,74,l),
(193,21,o),
(268,-10,o),
(356,-10,cs),
(585,-10,o),
(747,145,o),
(747,391,cs),
(747,455,o),
(731,511,o),
(700,556,c),
(798,640,l),
(769,678,l),
(670,593,l),
(618,648,o),
(544,678,o),
(456,678,cs),
(226,678,o),
(65,523,o),
(65,277,cs),
(65,213,o),
(81,158,o),
(112,111,c),
(15,28,l),
(44,-10,l)
);
},
{
closed = 1;
nodes = (
(296,66,o),
(243,87,o),
(204,129,c),
(635,499,l),
(652,467,o),
(660,430,o),
(660,389,cs),
(660,188,o),
(536,66,o),
(364,66,cs)
);
},
{
closed = 1;
nodes = (
(160,198,o),
(152,235,o),
(152,279,cs),
(152,480,o),
(276,602,o),
(448,602,cs),
(515,602,o),
(570,579,o),
(607,539,c),
(177,167,l)
);
}
);
};
layerId = "573A4E99-B1EA-4FCA-90B1-EE1ED57C0074";
shapes = (
{
closed = 1;
nodes = (
(141,74,l),
(193,21,o),
(268,-10,o),
(356,-10,cs),
(585,-10,o),
(747,145,o),
(747,391,cs),
(747,455,o),
(731,511,o),
(700,556,c),
(798,640,l),
(769,678,l),
(670,593,l),
(618,648,o),
(544,678,o),
(456,678,cs),
(226,678,o),
(65,523,o),
(65,277,cs),
(65,213,o),
(81,158,o),
(112,111,c),
(15,28,l),
(44,-10,l)
);
},
{
closed = 1;
nodes = (
(296,66,o),
(243,87,o),
(204,129,c),
(635,499,l),
(652,467,o),
(660,430,o),
(660,389,cs),
(660,188,o),
(536,66,o),
(364,66,cs)
);
},
{
closed = 1;
nodes = (
(160,198,o),
(152,235,o),
(152,279,cs),
(152,480,o),
(276,602,o),
(448,602,cs),
(515,602,o),
(570,579,o),
(607,539,c),
(177,167,l)
);
}
);
width = 780;
},
{
anchors = (
{
name = bottom;
pos = (349,0);
},
{
name = top;
pos = (466,668);
}
);
background = {
shapes = (
{
closed = 1;
nodes = (
(140,69,l),
(195,18,o),
(269,-10,o),
(357,-10,cs),
(596,-10,o),
(760,145,o),
(760,385,cs),
(760,445,o),
(744,499,o),
(716,544,c),
(809,621,l),
(769,678,l),
(672,598,l),
(617,649,o),
(543,678,o),
(455,678,cs),
(216,678,o),
(52,523,o),
(52,283,cs),
(52,222,o),
(68,168,o),
(96,123,c),
(4,47,l),
(44,-10,l)
);
},
{
closed = 1;
nodes = (
(321,113,o),
(279,128,o),
(246,157,c),
(605,452,l),
(613,431,o),
(617,407,o),
(617,381,cs),
(617,215,o),
(513,113,o),
(374,113,cs)
);
},
{
closed = 1;
nodes = (
(199,236,o),
(195,260,o),
(195,287,cs),
(195,453,o),
(299,555,o),
(438,555,cs),
(490,555,o),
(533,540,o),
(566,510,c),
(207,215,l)
);
}
);
};
layerId = "261A487E-1CB1-41FD-8732-BC3F4489D58F";
shapes = (
{
closed = 1;
nodes = (
(140,69,l),
(195,18,o),
(269,-10,o),
(357,-10,cs),
(596,-10,o),
(760,145,o),
(760,385,cs),
(760,445,o),
(744,499,o),
(716,544,c),
(809,621,l),
(769,678,l),
(672,598,l),
(617,649,o),
(543,678,o),
(455,678,cs),
(216,678,o),
(52,523,o),
(52,283,cs),
(52,222,o),
(68,168,o),
(96,123,c),
(4,47,l),
(44,-10,l)
);
},
{
closed = 1;
nodes = (
(321,113,o),
(279,128,o),
(246,157,c),
(605,452,l),
(613,431,o),
(617,407,o),
(617,381,cs),
(617,215,o),
(513,113,o),
(374,113,cs)
);
},
{
closed = 1;
nodes = (
(199,236,o),
(195,260,o),
(195,287,cs),
(195,453,o),
(299,555,o),
(438,555,cs),
(490,555,o),
(533,540,o),
(566,510,c),
(207,215,l)
);
}
);
width = 780;
},
{
anchors = (
{
name = bottom;
pos = (349,0);
},
{
name = top;
pos = (466,668);
}
);
background = {
shapes = (
{
closed = 1;
nodes = (
(141,72,l),
(194,20,o),
(269,-10,o),
(357,-10,cs),
(592,-10,o),
(754,144,o),
(754,388,cs),
(754,451,o),
(738,505,o),
(709,550,c),
(804,630,l),
(769,678,l),
(671,596,l),
(618,648,o),
(543,678,o),
(455,678,cs),
(220,678,o),
(58,524,o),
(58,280,cs),
(58,216,o),
(74,162,o),
(103,117,c),
(9,38,l),
(44,-10,l)
);
},
{
closed = 1;
nodes = (
(309,91,o),
(261,109,o),
(226,144,c),
(619,474,l),
(630,449,o),
(637,420,o),
(637,385,cs),
(637,201,o),
(524,91,o),
(369,91,cs)
);
},
{
closed = 1;
nodes = (
(181,219,o),
(175,249,o),
(175,283,cs),
(175,467,o),
(288,577,o),
(443,577,cs),
(504,577,o),
(551,559,o),
(586,523,c),
(193,193,l)
);
}
);
};
layerId = "ACFE83A5-3FD5-4916-9088-BF4CCAF0E845";
shapes = (
{
closed = 1;
nodes = (
(141,72,l),
(194,20,o),
(269,-10,o),
(357,-10,cs),
(592,-10,o),
(754,144,o),
(754,388,cs),
(754,451,o),
(738,505,o),
(709,550,c),
(804,630,l),
(769,678,l),
(671,596,l),
(618,648,o),
(543,678,o),
(455,678,cs),
(220,678,o),
(58,524,o),
(58,280,cs),
(58,216,o),
(74,162,o),
(103,117,c),
(9,38,l),
(44,-10,l)
);
},
{
closed = 1;
nodes = (
(309,91,o),
(261,109,o),
(226,144,c),
(619,474,l),
(630,449,o),
(637,420,o),
(637,385,cs),
(637,201,o),
(524,91,o),
(369,91,cs)
);
},
{
closed = 1;
nodes = (
(181,219,o),
(175,249,o),
(175,283,cs),
(175,467,o),
(288,577,o),
(443,577,cs),
(504,577,o),
(551,559,o),
(586,523,c),
(193,193,l)
);
}
);
width = 780;
},
{
anchors = (
{
name = bottom;
pos = (349,0);
},
{
name = top;
pos = (466,668);
}
);
background = {
shapes = (
{
closed = 1;
nodes = (
(143,79,l),
(194,22,o),
(267,-10,o),
(355,-10,cs),
(575,-10,o),
(735,146,o),
(735,396,cs),
(735,464,o),
(717,521,o),
(686,566,c),
(788,658,l),
(769,678,l),
(668,588,l),
(617,645,o),
(545,678,o),
(457,678,cs),
(237,678,o),
(77,522,o),
(77,272,cs),
(77,204,o),
(95,146,o),
(126,101,c),
(25,10,l),
(44,-10,l)
);
},
{
closed = 1;
nodes = (
(275,20,o),
(209,48,o),
(166,100,c),
(662,545,l),
(688,504,o),
(701,454,o),
(701,396,cs),
(701,160,o),
(555,20,o),
(355,20,cs)
);
},
{
closed = 1;
nodes = (
(124,163,o),
(111,213,o),
(111,272,cs),
(111,508,o),
(257,648,o),
(457,648,cs),
(537,648,o),
(602,619,o),
(645,567,c),
(150,122,l)
);
}
);
};
layerId = "EA8306D6-B852-442A-A16D-2D86AE16EEA2";
shapes = (
{
closed = 1;
nodes = (
(143,79,l),
(194,22,o),
(267,-10,o),
(355,-10,cs),
(575,-10,o),
(735,146,o),
(735,396,cs),
(735,464,o),
(717,521,o),
(686,566,c),
(788,658,l),
(769,678,l),
(668,588,l),
(617,645,o),
(545,678,o),
(457,678,cs),
(237,678,o),
(77,522,o),
(77,272,cs),
(77,204,o),
(95,146,o),
(126,101,c),
(25,10,l),
(44,-10,l)
);
},
{
closed = 1;
nodes = (
(275,20,o),
(209,48,o),
(166,100,c),
(662,545,l),
(688,504,o),
(701,454,o),
(701,396,cs),
(701,160,o),
(555,20,o),
(355,20,cs)
);
},
{
closed = 1;
nodes = (
(124,163,o),
(111,213,o),
(111,272,cs),
(111,508,o),
(257,648,o),
(457,648,cs),
(537,648,o),
(602,619,o),
(645,567,c),
(150,122,l)
);
}
);
width = 780;
}
);
unicode = 216;
},
